<svg width="6242" height="6243" xmlns="http://www.w3.org/2000/svg" xmlns:xlink="http://www.w3.org/1999/xlink" xml:space="preserve" overflow="hidden"><g transform="translate(-127 -127)"><path d="M3247.42 6366.26C2135 6366 1106.97 5773.12 549.625 4810.39L3248.15 3248.15Z" stroke="#000000" stroke-width="4.58333" stroke-miterlimit="8" fill="#FF7800" fill-rule="evenodd"/><path d="M547.422 4806.57C-8.56201 3843.06-9.12305 2656.32 545.951 1692.28L3248.15 3248.15Z" stroke="#000000" stroke-width="4.58333" stroke-miterlimit="8" fill="#102482" fill-rule="evenodd"/><path d="M3248.88 130.041C4361.3 130.301 5389.33 723.187 5946.68 1685.91L3248.15 3248.15Z" stroke="#000000" stroke-width="4.58333" stroke-miterlimit="8" fill="#FF7800" fill-rule="evenodd"/><path d="M5948.88 1689.73C6504.86 2653.24 6505.42 3839.99 5950.35 4804.02L3248.15 3248.15Z" stroke="#000000" stroke-width="4.58333" stroke-miterlimit="8" fill="#102482" fill-rule="evenodd"/><path d="M5948.4 4808.13C5391.98 5771.35 4364.55 6365.19 3252.17 6366.5L3248.5 3248.5Z" stroke="#000000" stroke-width="4.58333" stroke-miterlimit="8" fill="#F2F2F2" fill-rule="evenodd"/><path d="M548.6 1688.87C1105.02 725.646 2132.45 131.811 3244.83 130.5L3248.5 3248.5Z" stroke="#000000" stroke-width="4.58333" stroke-miterlimit="8" fill="#F2F2F2" fill-rule="evenodd"/></g></svg>
