<svg width="1890" height="1890" xmlns="http://www.w3.org/2000/svg" xmlns:xlink="http://www.w3.org/1999/xlink" overflow="hidden"><defs><clipPath id="clip0"><rect x="0" y="0" width="1890" height="1890"/></clipPath></defs><g clip-path="url(#clip0)"><rect x="0" y="0" width="1890" height="1890" fill="#FFFFFF"/><path d="M952 38 952 1852 951.907 1852 903.693 1850.82C855.693 1848.47 808.644 1842.64 762.812 1833.58L738 1828.04 738 61.96 762.812 56.427C808.644 47.3654 855.693 41.5311 903.693 39.1802L952 38Z" fill="#266430" fill-rule="evenodd"/><path d="M952 38 994.205 39.0662C1040.63 41.4174 1086.14 47.2524 1130.48 56.3151L1159 62.8916 1159 1827.11 1130.48 1833.68C1086.14 1842.75 1040.63 1848.58 994.205 1850.93L952 1852 952 38Z" fill="#DA2A00" fill-rule="evenodd"/><path d="M738 61 738 1827 720.159 1822.92C661.572 1808 605.251 1787.49 551.81 1762.01L529 1750.44 529 137.558 551.81 125.994C605.251 100.505 661.572 79.9965 720.159 65.0758L738 61Z" fill="#DA2A00" fill-rule="evenodd"/><path d="M1159 63 1172.08 66.0327C1229.83 80.9541 1285.34 101.464 1338.02 126.954L1365 140.834 1365 1749.17 1338.02 1763.05C1285.34 1788.54 1229.83 1809.05 1172.08 1823.97L1159 1827 1159 63Z" fill="#266430" fill-rule="evenodd"/><path d="M529 139 529 1751 512.465 1742.53C229.852 1588.94 38 1289.38 38 945 38 600.617 229.852 301.062 512.465 147.472L529 139Z" fill="#266430" fill-rule="evenodd"/><path d="M1365 141 1377.03 147.161C1659.94 300.811 1852 600.482 1852 945 1852 1289.52 1659.94 1589.19 1377.03 1742.84L1365 1749 1365 141Z" fill="#DA2A00" fill-rule="evenodd"/></g></svg>