<svg width="1890" height="1890" xmlns="http://www.w3.org/2000/svg" xmlns:xlink="http://www.w3.org/1999/xlink" overflow="hidden"><defs><clipPath id="clip0"><rect x="0" y="0" width="1890" height="1890"/></clipPath></defs><g clip-path="url(#clip0)"><rect x="0" y="0" width="1890" height="1890" fill="#FFFFFF"/><path d="M945 38C960.595 38 976.097 38.3965 991.497 39.1802L1029 42.043 1029 1847.96 991.497 1850.82 945.032 1852 944.969 1852 898.504 1850.82 861 1847.96 861 42.043 898.504 39.1802C913.904 38.3965 929.406 38 945 38Z" fill-rule="evenodd"/><path d="M861 42 861 1848 852.568 1847.36C823.922 1844.46 795.669 1840.23 767.872 1834.73L692 1816.01 692 73.9851 767.872 55.2689C795.669 49.7735 823.922 45.543 852.568 42.6399L861 42Z" fill="#FF0000" fill-rule="evenodd"/><path d="M692 74 692 1816 685.926 1814.5C311.239 1703.03 38 1355.93 38 945 38 534.075 311.239 186.974 685.926 75.5017L692 74Z" fill="#FFCC00" fill-rule="evenodd"/><path d="M1029 42 1037.43 42.6399C1066.08 45.543 1094.33 49.7735 1122.13 55.269L1198 73.9852 1198 1816.02 1122.13 1834.73C1094.33 1840.23 1066.08 1844.46 1037.43 1847.36L1029.02 1848 1029 1848 1029 42Z" fill="#FF0000" fill-rule="evenodd"/><path d="M1198 74 1204.07 75.5017C1578.76 186.973 1852 534.075 1852 945 1852 1355.93 1578.76 1703.03 1204.07 1814.5L1198 1816 1198 74Z" fill="#FFCC00" fill-rule="evenodd"/></g></svg>