<svg width="1890" height="1890" xmlns="http://www.w3.org/2000/svg" xmlns:xlink="http://www.w3.org/1999/xlink" overflow="hidden"><defs><clipPath id="clip0"><rect x="0" y="0" width="1890" height="1890"/></clipPath></defs><g clip-path="url(#clip0)"><rect x="0" y="0" width="1890" height="1890" fill="#FFFFFF"/><path d="M1235.5 86.5 1257.13 93.812C1604.55 220.932 1852.5 554.281 1852.5 945.5 1852.5 1336.72 1604.55 1670.07 1257.13 1797.19L1235.5 1804.5 1235.5 86.5Z" stroke="#2F528F" stroke-width="1.33345" stroke-miterlimit="8" fill="#2A4B96" fill-rule="evenodd"/><path d="M655.5 86.5 655.5 1804.5 633.875 1797.19C286.447 1670.07 38.5 1336.72 38.5 945.5 38.5 554.281 286.447 220.932 633.875 93.812L655.5 86.5Z" stroke="#2F528F" stroke-width="1.33345" stroke-miterlimit="8" fill="#2A4B96" fill-rule="evenodd"/><path d="M945.5 38.5C1039.35 38.5 1129.86 52.776 1214.99 79.2768L1235.5 86.2222 1235.5 1804.78 1214.99 1811.72C1129.86 1838.22 1039.35 1852.5 945.5 1852.5 851.655 1852.5 761.141 1838.22 676.009 1811.72L655.5 1804.78 655.5 86.2222 676.009 79.2768C761.141 52.776 851.655 38.5 945.5 38.5Z" stroke="#2F528F" stroke-width="1.33345" stroke-miterlimit="8" fill="#FFFFFF" fill-rule="evenodd"/><text fill="#FFFFFF" font-family="DLRG Univers 55 Roman,DLRG Univers 55 Roman_MSFontService,sans-serif" font-weight="700" font-size="117.344" transform="matrix(-1.83697e-16 -1 1 -1.83697e-16 1713.71 1245)">Ettlingen</text></g></svg>