<svg width="312" height="248" xmlns="http://www.w3.org/2000/svg" xmlns:xlink="http://www.w3.org/1999/xlink" xml:space="preserve" overflow="hidden"><defs><filter id="fx0" x="-10%" y="-10%" width="120%" height="120%" filterUnits="userSpaceOnUse" primitiveUnits="userSpaceOnUse"><feComponentTransfer color-interpolation-filters="sRGB"><feFuncR type="discrete" tableValues="0 0"/><feFuncG type="discrete" tableValues="0 0"/><feFuncB type="discrete" tableValues="0 0"/><feFuncA type="linear" slope="0.4" intercept="0"/></feComponentTransfer><feGaussianBlur stdDeviation="2.79714 2.79714"/></filter><clipPath id="clip1"><rect x="1595" y="810" width="312" height="248"/></clipPath><clipPath id="clip2"><rect x="72" y="56" width="160" height="102"/></clipPath></defs><g clip-path="url(#clip1)" transform="translate(-1595 -810)"><path d="M1595 856.334C1595 840.686 1607.69 828 1623.33 828L1878.67 828C1894.31 828 1907 840.686 1907 856.334L1907 969.666C1907 985.314 1894.31 998 1878.67 998L1623.33 998C1607.69 998 1595 985.314 1595 969.666Z" fill="#E30613" fill-rule="evenodd"/><g clip-path="url(#clip2)" filter="url(#fx0)" transform="translate(1606 808)"><g><path d="M24.42-12.98C25.3733-12.9067 26.4733-12.8517 27.72-12.815 28.9667-12.7783 30.1033-12.76 31.13-12.76 34.7967-12.76 38.17-13.0539 41.25-13.6417 44.33-14.2295 47.1167-15.773 49.61-18.272 51.2967-19.9621 52.6167-21.8909 53.57-24.0582 54.5233-26.2255 55.2383-28.3932 55.715-30.5611 56.1917-32.729 56.485-34.7316 56.595-36.569 56.705-38.4063 56.76-39.8022 56.76-40.7567 56.76-43.5491 56.5033-46.2682 55.99-48.9139 55.4767-51.5596 54.6517-53.9662 53.515-56.1335 52.3783-58.3008 50.875-60.1929 49.005-61.8097 47.135-63.4265 44.88-64.6026 42.24-65.3383 41.36-65.5583 40.3883-65.7602 39.325-65.9441 38.2617-66.128 37.0333-66.275 35.64-66.385 34.2467-66.495 32.6333-66.55 30.8-66.55 28.9667-66.55 26.84-66.5133 24.42-66.44ZM7.15-79.31 33.44-79.2C34.54-79.2 36.135-79.1633 38.225-79.09 40.315-79.0167 42.6433-78.7417 45.21-78.265 47.7767-77.7883 50.4167-77.0733 53.13-76.12 55.8433-75.1667 58.41-73.81 60.83-72.05 63.3233-70.2167 65.4317-68.09 67.155-65.67 68.8783-63.25 70.2717-60.665 71.335-57.915 72.3983-55.165 73.1683-52.3417 73.645-49.445 74.1217-46.5483 74.36-43.67 74.36-40.81 74.36-34.7233 73.6083-29.3517 72.105-24.695 70.6017-20.0383 68.5483-16.06 65.945-12.76 63.3417-9.46 60.335-6.82 56.925-4.84 53.515-2.86 49.94-1.54 46.2-0.88 45.4667-0.733333 44.6783-0.605 43.835-0.495 42.9917-0.385 42.02-0.293333 40.92-0.22 39.82-0.146667 38.5367-0.0916667 37.07-0.055 35.6033-0.0183333 33.88 0 31.9 0L7.15 0ZM103.615-43.56 110.435-43.56C111.829-43.56 113.424-43.6147 115.22-43.7241 117.017-43.8336 118.722-44.2716 120.335-45.0381 121.949-45.8047 123.324-47.009 124.46-48.6509 125.597-50.2929 126.165-52.6098 126.165-55.6016 126.165-58.3023 125.67-60.3823 124.68-61.8415 123.69-63.3007 122.462-64.3589 120.995-65.016 119.529-65.6731 117.989-66.0564 116.375-66.1659 114.762-66.2753 113.369-66.33 112.195-66.33L103.615-66.33ZM86.7854-79.31 111.315-79.31C114.175-79.31 116.907-79.2367 119.51-79.09 122.114-78.9433 124.589-78.5583 126.935-77.935 129.282-77.3117 131.445-76.4317 133.425-75.295 135.405-74.1583 137.239-72.6 138.925-70.62 141.052-68.0533 142.39-65.45 142.94-62.81 143.49-60.17 143.765-57.8233 143.765-55.77 143.765-51.15 142.867-46.9883 141.07-43.285 139.274-39.5817 136.799-36.7033 133.645-34.65 132.179-33.6967 130.62-32.9633 128.97-32.45 127.32-31.9367 125.67-31.57 124.02-31.35 122.37-31.13 120.812-31.0017 119.345-30.965 117.879-30.9283 116.632-30.91 115.605-30.91L104.055-30.91 104.055 0 86.7854 0Z" fill="#FFFFFF" transform="matrix(1 0 0 1 76.1068 147)"/></g></g><text fill="#FFFFFF" font-family="DLRG Univers 55 Roman,DLRG Univers 55 Roman_MSFontService,sans-serif" font-weight="700" font-size="110" transform="matrix(1 0 0 1 1677.62 951)">DP</text></g></svg>