<svg width="351" height="248" xmlns="http://www.w3.org/2000/svg" xmlns:xlink="http://www.w3.org/1999/xlink" xml:space="preserve" overflow="hidden"><defs><filter id="fx0" x="-10%" y="-10%" width="120%" height="120%" filterUnits="userSpaceOnUse" primitiveUnits="userSpaceOnUse"><feComponentTransfer color-interpolation-filters="sRGB"><feFuncR type="discrete" tableValues="0 0"/><feFuncG type="discrete" tableValues="0 0"/><feFuncB type="discrete" tableValues="0 0"/><feFuncA type="linear" slope="0.4" intercept="0"/></feComponentTransfer><feGaussianBlur stdDeviation="2.79714 2.79714"/></filter><clipPath id="clip1"><rect x="1225" y="810" width="351" height="248"/></clipPath><clipPath id="clip2"><rect x="65" y="56" width="222" height="102"/></clipPath></defs><g clip-path="url(#clip1)" transform="translate(-1225 -810)"><path d="M1240 856.334C1240 840.686 1252.69 828 1268.33 828L1522.67 828C1538.31 828 1551 840.686 1551 856.334L1551 969.666C1551 985.314 1538.31 998 1522.67 998L1268.33 998C1252.69 998 1240 985.314 1240 969.666Z" fill="#E30613" fill-rule="evenodd"/><g clip-path="url(#clip2)" filter="url(#fx0)" transform="translate(1224 808)"><g><path d="M17.71-25.74C17.8567-21.4133 18.5717-17.985 19.855-15.455 21.1383-12.925 23.54-11.66 27.06-11.66 28.6733-11.66 30.0117-11.9167 31.075-12.43 32.1383-12.9433 33-13.5483 33.66-14.245 34.32-14.9417 34.7967-15.675 35.09-16.445 35.3833-17.215 35.6033-17.8567 35.75-18.37 36.1167-20.0567 36.3183-22.0183 36.355-24.255 36.3917-26.4917 36.41-28.6733 36.41-30.8L36.41-79.53 53.68-79.53 53.68-30.69C53.68-27.61 53.515-24.7133 53.185-22 52.855-19.2867 52.2317-16.7567 51.315-14.41 50.3983-12.0633 49.1333-9.9 47.52-7.92 45.9067-5.94 43.8533-4.18 41.36-2.64 39.82-1.68667 37.84-0.88 35.42-0.22 33 0.44 29.8467 0.77 25.96 0.77 21.6333 0.77 17.7283 0.146667 14.245-1.1 10.7617-2.34667 7.73667-4.95 5.17-8.91 4.21667-10.3767 3.465-11.88 2.915-13.42 2.365-14.96 1.94333-16.4817 1.65-17.985 1.35667-19.4883 1.17333-20.9 1.1-22.22 1.02667-23.54 0.99-24.7133 0.99-25.74ZM84.7321-44.77 98.4821-44.77C99.5087-44.77 100.865-44.8617 102.552-45.045 104.239-45.2283 105.779-45.87 107.172-46.97 107.465-47.19 107.869-47.5383 108.382-48.015 108.895-48.4917 109.39-49.0967 109.867-49.83 110.344-50.5633 110.747-51.4617 111.077-52.525 111.407-53.5883 111.572-54.8167 111.572-56.21 111.572-58.9233 111.077-60.9583 110.087-62.315 109.097-63.6717 108.199-64.6067 107.392-65.12 106.072-66.0733 104.55-66.6233 102.827-66.77 101.104-66.9167 98.8854-66.99 96.1721-66.99L84.7321-66.99ZM67.9021-79.53 98.3721-79.53C100.572-79.53 102.772-79.5117 104.972-79.475 107.172-79.4383 109.299-79.255 111.352-78.925 113.405-78.595 115.367-78.0633 117.237-77.33 119.107-76.5967 120.849-75.5333 122.462-74.14 124.955-72.0133 126.734-69.575 127.797-66.825 128.86-64.075 129.392-61.4167 129.392-58.85 129.392-55.11 128.714-52.0483 127.357-49.665 126-47.2817 124.405-45.375 122.572-43.945 120.739-42.515 118.887-41.47 117.017-40.81 115.147-40.15 113.735-39.6733 112.782-39.38 115.789-39.0867 118.154-38.4633 119.877-37.51 121.6-36.5567 122.939-35.2917 123.892-33.715 124.845-32.1383 125.524-30.2867 125.927-28.16 126.33-26.0333 126.715-23.6867 127.082-21.12 127.669-16.4267 128.145-12.9617 128.512-10.725 128.879-8.48833 129.209-6.82 129.502-5.72 129.942-3.96 130.345-2.73167 130.712-2.035 131.079-1.33833 131.482-0.66 131.922 0L113.112 0C112.892-1.1 112.599-3.00667 112.232-5.72 111.865-8.43333 111.48-11.2933 111.077-14.3 110.674-17.3067 110.27-20.075 109.867-22.605 109.464-25.135 109.115-26.8033 108.822-27.61 108.455-28.71 107.924-29.5717 107.227-30.195 106.53-30.8183 105.797-31.2767 105.027-31.57 104.257-31.8633 103.45-32.0283 102.607-32.065 101.764-32.1017 100.975-32.12 100.242-32.12L85.2821-32.12 85.2821 0 67.9021 0ZM158.615-43.56 165.435-43.56C166.829-43.56 168.424-43.6147 170.22-43.7241 172.017-43.8336 173.722-44.2716 175.335-45.0381 176.949-45.8047 178.324-47.009 179.46-48.6509 180.597-50.2929 181.165-52.6098 181.165-55.6016 181.165-58.3023 180.67-60.3823 179.68-61.8415 178.69-63.3007 177.462-64.3589 175.995-65.016 174.529-65.6731 172.989-66.0564 171.375-66.1659 169.762-66.2753 168.369-66.33 167.195-66.33L158.615-66.33ZM141.785-79.31 166.315-79.31C169.175-79.31 171.907-79.2367 174.51-79.09 177.114-78.9433 179.589-78.5583 181.935-77.935 184.282-77.3117 186.445-76.4317 188.425-75.295 190.405-74.1583 192.239-72.6 193.925-70.62 196.052-68.0533 197.39-65.45 197.94-62.81 198.49-60.17 198.765-57.8233 198.765-55.77 198.765-51.15 197.867-46.9883 196.07-43.285 194.274-39.5817 191.799-36.7033 188.645-34.65 187.179-33.6967 185.62-32.9633 183.97-32.45 182.32-31.9367 180.67-31.57 179.02-31.35 177.37-31.13 175.812-31.0017 174.345-30.965 172.879-30.9283 171.632-30.91 170.605-30.91L159.055-30.91 159.055 0 141.785 0Z" fill="#FFFFFF" transform="matrix(1 0 0 1 75.5724 147)"/></g></g><text fill="#FFFFFF" font-family="DLRG Univers 55 Roman,DLRG Univers 55 Roman_MSFontService,sans-serif" font-weight="700" font-size="110" transform="matrix(1 0 0 1 1295.08 951)">JRP</text></g></svg>