<svg width="6236" height="6236" xmlns="http://www.w3.org/2000/svg" xmlns:xlink="http://www.w3.org/1999/xlink" xml:space="preserve" overflow="hidden"><defs><clipPath id="clip0"><rect x="130" y="130" width="6236" height="6236"/></clipPath></defs><g clip-path="url(#clip0)" transform="translate(-130 -130)"><path d="M3248 130C3301.84 130 3355.36 131.363 3408.53 134.057L3538 143.899 3538 6352.11 3408.53 6361.95 3248.11 6366 3247.89 6366 3087.48 6361.95 2958 6352.1 2958 143.899 3087.48 134.057C3140.65 131.363 3194.16 130 3248 130Z" fill-rule="evenodd"/><path d="M2958 144 2958 6352 2929.11 6349.8C2830.97 6339.82 2734.17 6325.28 2638.94 6306.39L2379 6242.05 2379 253.947 2638.94 189.611C2734.17 170.721 2830.97 156.179 2929.11 146.2L2958 144Z" fill="#FF0000" fill-rule="evenodd"/><path d="M2379 254 2379 6242 2358.11 6236.84C1069.62 5853.66 130 4660.53 130 3248 130 1835.47 1069.62 642.338 2358.11 259.162L2379 254Z" fill="#FFCC00" fill-rule="evenodd"/><path d="M3538 144 3566.94 146.2C3665.25 156.179 3762.22 170.721 3857.61 189.611L4118 253.947 4118 6242.06 3857.61 6306.39C3762.22 6325.28 3665.25 6339.83 3566.94 6349.8L3538.06 6352 3538 6352 3538 144Z" fill="#FF0000" fill-rule="evenodd"/><path d="M4118 254 4138.88 259.162C5426.79 642.338 6366 1835.47 6366 3248 6366 4660.53 5426.79 5853.66 4138.88 6236.84L4118 6242 4118 254Z" fill="#FFCC00" fill-rule="evenodd"/></g></svg>