<svg width="454" height="454" xmlns="http://www.w3.org/2000/svg" xmlns:xlink="http://www.w3.org/1999/xlink" xml:space="preserve" overflow="hidden"><g transform="translate(-216 -107)"><path d="M584.875 441.778C575.144 442.155 565.549 444.186 556.5 447.784 550.476 450.277 544.087 451.778 537.583 452.229 531.079 451.778 524.691 450.277 518.667 447.784 509.618 444.186 500.022 442.155 490.292 441.778 480.561 442.155 470.965 444.186 461.917 447.784 455.893 450.277 449.504 451.778 443 452.229 436.496 451.778 430.107 450.277 424.083 447.784 415.035 444.186 405.439 442.155 395.708 441.778 385.978 442.155 376.382 444.186 367.333 447.784 361.309 450.277 354.921 451.778 348.417 452.229 341.913 451.778 335.524 450.277 329.5 447.784 320.451 444.186 310.856 442.155 301.125 441.778 291.394 442.155 281.799 444.186 272.75 447.784 266.726 450.277 260.337 451.778 253.833 452.229L253.833 480.604C263.564 480.227 273.16 478.196 282.208 474.598 288.216 472.008 294.605 470.411 301.125 469.869 307.645 470.411 314.034 472.008 320.042 474.598 329.09 478.196 338.686 480.227 348.417 480.604 358.147 480.227 367.743 478.196 376.792 474.598 382.8 472.008 389.188 470.411 395.708 469.869 402.212 470.32 408.601 471.821 414.625 474.314 423.65 478.031 433.25 480.159 443 480.604 452.731 480.227 462.326 478.196 471.375 474.598 477.383 472.008 483.772 470.411 490.292 469.869 496.812 470.411 503.2 472.008 509.208 474.598 518.257 478.196 527.853 480.227 537.583 480.604 547.314 480.227 556.91 478.196 565.958 474.598 571.966 472.008 578.355 470.411 584.875 469.869 591.379 470.32 597.768 471.821 603.792 474.314 612.817 478.031 622.417 480.159 632.167 480.604L632.167 452.229C625.663 451.778 619.274 450.277 613.25 447.784 604.201 444.186 594.606 442.155 584.875 441.778Z" fill="#D9D9D9"/><path d="M613.25 391.034C604.201 387.436 594.606 385.405 584.875 385.028 575.144 385.405 565.549 387.436 556.5 391.034 550.476 393.527 544.087 395.028 537.583 395.479 531.079 395.028 524.691 393.527 518.667 391.034 515.38 389.749 512.016 388.675 508.594 387.818 469.152 369.894 449.006 333.811 451.844 305.909 454.208 281.837 468.679 254.739 494.879 252.044 520.132 249.223 543.256 266.437 547.798 291.438 548.43 295.683 552.218 298.73 556.5 298.437 558.771 298.228 560.865 297.121 562.317 295.363 563.722 293.587 564.353 291.32 564.067 289.073 555.601 225.939 499.324 183.518 433.542 190.281 397.836 193.969 364.307 216.291 333.851 256.489 329.784 261.833 325.811 267.224 321.839 272.615 300.699 300.99 280.553 328.42 254.022 346.958L254.022 423.854C263.753 423.477 273.349 421.446 282.397 417.848 288.405 415.258 294.794 413.661 301.314 413.119 307.834 413.661 314.223 415.258 320.231 417.848 329.22 421.425 338.75 423.456 348.417 423.854 358.147 423.477 367.743 421.446 376.792 417.848 382.8 415.258 389.188 413.661 395.708 413.119 402.212 413.57 408.601 415.071 414.625 417.564 423.65 421.281 433.25 423.409 443 423.854 452.731 423.477 462.326 421.446 471.375 417.848 477.383 415.258 483.772 413.661 490.292 413.119 496.812 413.661 503.2 415.258 509.208 417.848 518.257 421.446 527.853 423.477 537.583 423.854 547.314 423.477 556.91 421.446 565.958 417.848 571.966 415.258 578.355 413.661 584.875 413.119 591.379 413.57 597.768 415.071 603.792 417.564 612.817 421.281 622.417 423.409 632.167 423.854L632.167 395.479C625.663 395.028 619.274 393.527 613.25 391.034Z" fill="#D9D9D9"/></g></svg>