<svg width="1170" height="1226" xmlns="http://www.w3.org/2000/svg" xmlns:xlink="http://www.w3.org/1999/xlink" xml:space="preserve" overflow="hidden"><g transform="translate(-2077 -366)"><path d="M2468.5 1342.5 2468.12 1344.5 2467.5 1344.11 2468.5 1342.5Z" stroke="#042433" stroke-width="6.875" stroke-miterlimit="8" fill="#156082" fill-rule="evenodd"/><path d="M2649 366 2649 366 2559 431 2559 431 2649 366 2649 366Z" fill="#012169" fill-rule="evenodd"/><path d="M2657 422 2657 427 2470.13 563 2378 563 2558.95 431.306 2601.43 424.811 2657 422Z" fill="#FFFFFF" fill-rule="evenodd"/><path d="M2657 427 2657 563 2470 563 2657 427Z" fill="#012169" fill-rule="evenodd"/><path d="M2559 431 2377.54 563 2307 563 2381.74 508.63 2442.96 464.099 2487.42 447.807C2505.74 442.101 2524.45 437.272 2543.5 433.369L2559 431Z" fill="#C00000" fill-rule="evenodd"/><path d="M2443 464 2381.78 508.576 2307.04 563 2297 563 2297 549.437 2334.29 521.492C2365.42 500.411 2398.69 482.254 2433.69 467.415L2443 464Z" fill="#FFFFFF" fill-rule="evenodd"/><path d="M2295.02 551 2295.02 562.641 2297 562.641 2297 563 2281 563 2289.55 555.139 2295.02 551Z" fill="#FFFFFF" fill-rule="evenodd"/><path d="M2308 563 2308 563 2307 564 2307 564 2308 563Z" fill="#FFFFFF" fill-rule="evenodd"/><path d="M2378 563 2378 563 2377 564 2377 564 2378 563Z" fill="#FFFFFF" fill-rule="evenodd"/><path d="M2471 563 2471 563 2470 564 2470 564 2471 563Z" fill="#FFFFFF" fill-rule="evenodd"/><path d="M2657 563 2657 563 2657 744.086 2657 744.086 2657 711.327 2656.86 711.327 2656.86 710.367 2263.45 710.367 2263.45 711.167 2263.31 711.167 2263.31 957.895 2263.47 957.895 2263.47 958 2163.49 958 2163.49 744.213 2163.54 744.213 2163.54 710.322 2158 710.322 2176.73 679.483C2197.72 648.395 2221.63 619.437 2248.06 593L2263.41 579.039 2263.41 593.599 2263.45 593.599 2263.45 597.26 2656.86 597.26 2656.86 596.213 2657 596.213 2657 563Z" fill="#C00000" fill-rule="evenodd"/><path d="M2297 563 2307 563 2297 570 2297 563Z" fill="#FFFFFF" fill-rule="evenodd"/><path d="M2307.05 563 2377 563 2332.11 596 2332.11 596 2332.11 596 2264 596 2264 594.649 2265.73 593.374 2297.6 593.374 2297.6 569.951 2307.05 563Z" fill="#FFFFFF" fill-rule="evenodd"/><path d="M2377.38 563 2470 563 2424.62 596 2424.62 596 2332 596 2377.38 563Z" fill="#FFFFFF" fill-rule="evenodd"/><path d="M2469.27 563 2657 563 2657 596 2424 596 2424 596 2469.27 563Z" fill="#FFFFFF" fill-rule="evenodd"/><path d="M2297 570 2297 570 2265 593 2265 593 2297 570Z" fill="#FFFFFF" fill-rule="evenodd"/><path d="M2264 593 2265 593 2264 594.999 2264 595 2264 595 2264 593Z" fill="#FFFFFF" fill-rule="evenodd"/><path d="M2264 711 2297 711 2297 711.16 2264.02 711.16 2264.02 744 2264 744 2264 711Z" fill="#FFFFFF" fill-rule="evenodd"/><path d="M2314 711 2386.2 711 2433 744 2360.8 744 2314 711Z" fill="#FFFFFF" fill-rule="evenodd"/><path d="M2314.05 711 2361 744 2297 744 2297 711 2314.05 711Z" fill="#FFFFFF" fill-rule="evenodd"/><path d="M2387 711 2425.34 711 2472 744 2433.66 744 2387 711Z" fill="#FFFFFF" fill-rule="evenodd"/><path d="M2425 711 2657 711 2657 744 2471.75 744 2425 711Z" fill="#FFFFFF" fill-rule="evenodd"/><path d="M2157.72 711 2161 711 2161 712 2157 712 2157.72 711Z" fill="#FFFFFF" fill-rule="evenodd"/><path d="M2160.8 712 2163 712 2163 744 2160.8 744 2160.8 719.697 2145 731.384 2145 731.383 2160.8 719.697 2160.8 712Z" fill="#FFFFFF" fill-rule="evenodd"/><path d="M2130 743 2130 743 2128 744 2128 744 2130 743Z" fill="#FFFFFF" fill-rule="evenodd"/><path d="M2295 744 2297 744 2297 745 2295 745 2295 744Z" fill="#FFFFFF" fill-rule="evenodd"/><path d="M2361 744 2361 744 2362 745 2362 745 2361 744Z" fill="#FFFFFF" fill-rule="evenodd"/><path d="M2433 744 2433 744 2434 745 2434 745 2433 744Z" fill="#FFFFFF" fill-rule="evenodd"/><path d="M2472 744 2472 744 2473 745 2473 745 2472 744Z" fill="#FFFFFF" fill-rule="evenodd"/><path d="M2656.86 744 2657 744 2657 874 2472 744.172 2656.86 744.172 2656.86 744Z" fill="#012169" fill-rule="evenodd"/><path d="M2139.68 744 2161 744 2161 745.263 2161 745.263 2161 745.263 2130 767 2130 764.121 2139.68 744Z" fill="#FFFFFF" fill-rule="evenodd"/><path d="M2264 744 2295 744 2295 776 2264 753.81 2264 744Z" fill="#FFFFFF" fill-rule="evenodd"/><path d="M2297 744 2361.03 744 2657 951.457 2657 957.799 2657 957.799 2657 957.799 2656.86 958 2554.51 958 2297 777.496 2297 744Z" fill="#FFFFFF" fill-rule="evenodd"/><path d="M2361 744 2433.2 744 2657 900.506 2657 951 2361 744Z" fill="#C00000" fill-rule="evenodd"/><path d="M2434 744 2472.31 744 2657 874.029 2657 874.028 2657 874.029 2657 901 2434 744Z" fill="#FFFFFF" fill-rule="evenodd"/><path d="M2161 745 2161 958 2130 958 2130 767.238 2161 745Z" fill="#FFFFFF" fill-rule="evenodd"/><path d="M2264 754 2295 776.27 2295 958 2264 958 2264 754Z" fill="#FFFFFF" fill-rule="evenodd"/><path d="M2130 767 2130 767 2127 769 2127 768.999 2130 767Z" fill="#FFFFFF" fill-rule="evenodd"/><path d="M2128 769 2127 770 2127 769.337 2128 769Z" fill="#FFFFFF" fill-rule="evenodd"/><path d="M2127.29 770 2127.29 958 2130 958 2130 958 2079 958 2079.59 946.437C2085.67 887.41 2100.64 830.977 2123.15 778.46L2127.29 770Z" fill="#012169" fill-rule="evenodd"/><path d="M2295 776 2297 777 2297 777 2295 776 2295 776Z" fill="#FFFFFF" fill-rule="evenodd"/><path d="M2297.71 777 2555 958 2264 958 2264 957.999 2295.75 957.999 2295.75 957.894 2297.71 957.894 2297.71 777Z" fill="#012169" fill-rule="evenodd"/><path d="M2658 958 2658 959 2657 959 2658 958Z" fill="#012169" fill-rule="evenodd"/><path d="M2160.85 958 2163 958 2163 959 2130 959 2130 958 2160.85 958 2160.85 958Z" fill="#FFFFFF" fill-rule="evenodd"/><path d="M2661.5 421C2843.08 421 3005.32 503.871 3112.53 633.886L3139.64 670.176 3093.61 699.702 3158.78 707.069 3151.28 773.937 3182.48 741.745 3200.07 778.292C3229.64 848.28 3246 925.229 3246 1006L3244.22 1041.26 3218.54 1031.96 3242.27 1070.51 3237.94 1098.88 3197.96 1124.53 3232.95 1128.49 3219.72 1179.96C3196.95 1253.23 3160.18 1320.33 3112.53 1378.11L3093.31 1399.27 3083.15 1369.22 3062.23 1431.09 3060.72 1432.47 2999.82 1410.41 3030.19 1459.74 2988.3 1491.09C2895.01 1554.17 2782.55 1591 2661.5 1591 2560.62 1591 2465.71 1565.42 2382.89 1520.39L2348.26 1499.34 2336.94 1408.26 2467.48 1395.09 2355.55 1326.24 2426.7 1215.35 2303.41 1260.46 2261.6 1135.35 2219.78 1260.46 2119.26 1223.68 2103.28 1179.96C2086.2 1125.01 2077 1066.58 2077 1006L2079.43 957.745 2129.68 957.745 2129.68 959.221 2163.58 959.221 2163.58 957.744 2263.62 957.744 2263.62 957.745 2554.9 957.745 2657.25 957.745 2657.25 957.745 2657.25 957.745 2657.39 957.745 2657.39 957.544 2657.39 957.544 2657.39 951.202 2361.4 743.767 2361.4 743.767 2657.39 951.202 2657.39 900.602 2433.6 743.767 2433.6 743.767 2657.39 900.602 2657.39 873.659 2657.39 873.659 2657.39 743.595 2657.39 743.595 2657.39 562.31 2657.39 562.31 2657.39 426.211 2657.39 421.208 2661.5 421ZM2839.17 798.388 2815.53 871.088 2745.42 844.735 2786.05 909.037 2722.27 948.875 2796.57 956.358 2787.14 1032.39 2839.17 977.418 2891.19 1032.39 2881.77 956.358 2956.07 948.875 2892.29 909.037 2932.92 844.735 2862.81 871.088 2839.17 798.388Z" fill="#012169" fill-rule="evenodd"/><path d="M2657 427 2470 563 2470 563 2657 427Z" fill="#012169" fill-rule="evenodd"/><path d="M2559 431 2378 563 2378 563 2559 431 2559 431Z" fill="#012169" fill-rule="evenodd"/><path d="M2443 464 2382 508 2443 464 2443 464Z" fill="#012169" fill-rule="evenodd"/><path d="M2382 508 2307 563 2307 563 2382 508Z" fill="#012169" fill-rule="evenodd"/><path d="M2297 549 2297 563 2295 563 2295 550.595 2297 549Z" fill="#FFFFFF" fill-rule="evenodd"/><path d="M2297 563 2307 563 2306.49 564 2297 564 2297 563Z" fill="#FFFFFF" fill-rule="evenodd"/><path d="M2307.51 563 2378 563 2377.49 564 2307 564 2307.51 563Z" fill="#FFFFFF" fill-rule="evenodd"/><path d="M2377.51 563 2470 563 2469.49 564 2377 564 2377.51 563Z" fill="#FFFFFF" fill-rule="evenodd"/><path d="M2470.51 563 2657 563 2657 596 2656.86 596 2656.86 563.367 2470 563.367 2470.51 563Z" fill="#012169" fill-rule="evenodd"/><path d="M2280.76 563 2297 563 2297 569.865 2265.7 593 2264 593 2264 578.5 2280.76 563Z" fill="#FFFFFF" fill-rule="evenodd"/><path d="M2307 563 2307 563 2297 570 2297 570 2307 563Z" fill="#FFFFFF" fill-rule="evenodd"/><path d="M2377 563 2377 563 2332 596 2332 596 2377 563Z" fill="#012169" fill-rule="evenodd"/><path d="M2470 563 2470 563 2424 596 2424 596 2424 596 2470 563Z" fill="#012169" fill-rule="evenodd"/><path d="M2297 570 2297 593 2265 593 2297 570Z" fill="#FFFFFF" fill-rule="evenodd"/><path d="M2264 579 2264 593 2263 593 2263 579.035 2264 579Z" fill="#FFFFFF" fill-rule="evenodd"/><path d="M2264 593 2264.02 593 2264.02 594.387 2264.02 594.387 2264.02 595.857 2332.51 595.856 2332.51 595.856 2424.64 595.856 2657 595.856 2657 597 2264 597 2264 593Z" fill="#FFFFFF" fill-rule="evenodd"/><path d="M2265 593 2265 593 2264 595 2264 594.999 2265 593Z" fill="#FFFFFF" fill-rule="evenodd"/><path d="M2157.69 710 2164 710 2164 744 2163.94 744 2163.94 712.432 2161.43 712.432 2161.43 711.009 2157 711.008 2157.69 710Z" fill="#FFFFFF" fill-rule="evenodd"/><path d="M2264 710 2657 710 2657 710.968 2425.14 710.968 2471.86 744 2471.86 744 2425.14 710.968 2386.76 710.968 2433.47 744 2433.47 744 2386.75 710.968 2314.67 710.968 2297.7 710.968 2297.7 710.806 2264 710.806 2264 710Z" fill="#FFFFFF" fill-rule="evenodd"/><path d="M2263 711 2263.14 711 2263.14 744.128 2263.16 744.128 2263.16 753.974 2295 776.247 2295 776.247 2263.16 753.974 2263.16 958 2263 958 2263 711Z" fill="#FFFFFF" fill-rule="evenodd"/><path d="M2314 711 2361 744 2361 744 2314 711Z" fill="#FFFFFF" fill-rule="evenodd"/><path d="M2657 711 2658 711 2658 744 2657 744 2657 711Z" fill="#FFFFFF" fill-rule="evenodd"/><path d="M2297 711 2297 743.828 2295.08 743.828 2295.08 744 2264 744 2264 711 2297 711Z" fill="#FFFFFF" fill-rule="evenodd"/><path d="M2156.19 712 2161 712 2161 719.942 2145 732 2147.02 727.653 2156.19 712Z" fill="#FFFFFF" fill-rule="evenodd"/><path d="M2161 720 2161 744 2139 744 2145.03 731.541 2161 720Z" fill="#FFFFFF" fill-rule="evenodd"/><path d="M2297 744 2360.75 744 2361 745 2297 745 2297 744Z" fill="#FFFFFF" fill-rule="evenodd"/><path d="M2361 744 2433.75 744 2434 745 2361.25 745 2361 744Z" fill="#FFFFFF" fill-rule="evenodd"/><path d="M2433 744 2471.75 744 2472 745 2433.25 745 2433 744Z" fill="#FFFFFF" fill-rule="evenodd"/><path d="M2472 744 2657 744 2657 745 2472.24 745 2472 744Z" fill="#FFFFFF" fill-rule="evenodd"/><path d="M2161 744 2163 744 2163 958 2161 958 2161 745.29 2161 745.29 2161 744Z" fill="#FFFFFF" fill-rule="evenodd"/><path d="M2295 744 2297 744 2297 777 2295 775.647 2295 744Z" fill="#FFFFFF" fill-rule="evenodd"/><path d="M2472 744 2472 744 2657 874 2657 874 2472 744Z" fill="#012169" fill-rule="evenodd"/><path d="M2161 745 2161 745 2130 767 2130 767 2161 745Z" fill="#FFFFFF" fill-rule="evenodd"/><path d="M2130 765 2130 767.651 2127 769 2130 765Z" fill="#FFFFFF" fill-rule="evenodd"/><path d="M2130 767 2130 958 2127 958 2127 769.62 2127.6 768.502 2130 767Z" fill="#FFFFFF" fill-rule="evenodd"/><path d="M2128 769 2128 769.002 2127 770 2127 769.999 2128 769Z" fill="#FFFFFF" fill-rule="evenodd"/><path d="M2295 776 2297 777.375 2297 958 2295 958 2295 776Z" fill="#FFFFFF" fill-rule="evenodd"/><path d="M2297 777 2555 958 2297 777 2297 777Z" fill="#012169" fill-rule="evenodd"/><path d="M2658 958 2658 958.002 2657 959 2657 959 2658 958Z" fill="#012169" fill-rule="evenodd"/><path d="M2264 958 2295 958 2295 959 2264 959 2264 958Z" fill="#FFFFFF" fill-rule="evenodd"/><path d="M2077.5 1006.5C2077.5 683.413 2339.19 421.5 2662 421.5 2984.81 421.5 3246.5 683.413 3246.5 1006.5 3246.5 1329.59 2984.81 1591.5 2662 1591.5 2339.19 1591.5 2077.5 1329.59 2077.5 1006.5Z" stroke="#000000" stroke-width="1.14583" stroke-miterlimit="8" fill="none" fill-rule="evenodd"/></g></svg>