<svg width="6241" height="6241" xmlns="http://www.w3.org/2000/svg" xmlns:xlink="http://www.w3.org/1999/xlink" xml:space="preserve" overflow="hidden"><g transform="translate(-128 -128)"><path d="M4246.5 294.5 4320.8 319.645C5514.56 756.795 6366.5 1903.14 6366.5 3248.5 6366.5 4593.86 5514.56 5740.2 4320.8 6177.35L4246.5 6202.5 4246.5 294.5Z" stroke="#2F528F" stroke-width="4.58333" stroke-miterlimit="8" fill="#2A4B96" fill-rule="evenodd"/><path d="M2250.5 294.5 2250.5 6202.5 2176.2 6177.35C982.44 5740.21 130.5 4593.86 130.5 3248.5 130.5 1903.14 982.44 756.795 2176.2 319.645L2250.5 294.5Z" stroke="#2F528F" stroke-width="4.58333" stroke-miterlimit="8" fill="#2A4B96" fill-rule="evenodd"/><path d="M3248.5 130.5C3571.46 130.5 3882.95 179.577 4175.92 270.679L4246.5 294.555 4246.5 6202.45 4175.92 6226.32C3882.95 6317.42 3571.46 6366.5 3248.5 6366.5 2925.54 6366.5 2614.05 6317.42 2321.08 6226.32L2250.5 6202.45 2250.5 294.555 2321.08 270.679C2614.05 179.577 2925.54 130.5 3248.5 130.5Z" stroke="#2F528F" stroke-width="4.58333" stroke-miterlimit="8" fill="#FFFFFF" fill-rule="evenodd"/><text fill="#FFFFFF" font-family="DLRG Univers 55 Roman,DLRG Univers 55 Roman_MSFontService,sans-serif" font-weight="700" font-size="403" transform="matrix(-1.83697e-16 -1 1 -1.83697e-16 5890.81 4278)">Ettlingen</text></g></svg>