<svg width="6242" height="6243" xmlns="http://www.w3.org/2000/svg" xml:space="preserve" overflow="hidden"><g stroke="#000" stroke-width="4.583" stroke-miterlimit="8" fill-rule="evenodd"><path d="M3120.42 6239.26C2008 6239 979.97 5646.12 422.625 4683.39L3121.15 3121.15z" fill="#FF7800"/><path d="M420.422 4679.57c-555.984-963.51-556.545-2150.25-1.471-3114.29L3121.15 3121.15z" fill="#102482"/><path d="M3121.88 3.041c1112.42.26 2140.45 593.146 2697.8 1555.869L3121.15 3121.15z" fill="#FF7800"/><path d="M5821.88 1562.73c555.98 963.51 556.54 2150.26 1.47 3114.29l-2702.2-1555.87z" fill="#102482"/><path d="M5821.4 4681.13c-556.42 963.22-1583.85 1557.06-2696.23 1558.37l-3.67-3118zM421.6 1561.87C978.02 598.646 2005.45 4.811 3117.83 3.5l3.67 3118z" fill="#FFF"/></g></svg>