<svg width="2208" height="2209" xmlns="http://www.w3.org/2000/svg" xmlns:xlink="http://www.w3.org/1999/xlink" xml:space="preserve" overflow="hidden"><defs><clipPath id="clip0"><rect x="1096" y="92" width="2208" height="2209"/></clipPath></defs><g clip-path="url(#clip0)" transform="translate(-1096 -92)"><path d="M1096 1196.5C1096 586.502 1590.28 92.0001 2200 92.0001 2809.72 92.0001 3304 586.502 3304 1196.5 3304 1806.5 2809.72 2301 2200 2301 1590.28 2301 1096 1806.5 1096 1196.5Z" fill="#3441FF" fill-rule="evenodd"/><path d="M1372.88 720.5 3049.12 720.5 2774.69 1212.66 3049.5 1705.5 1372.5 1705.5 1647.31 1212.66 1372.88 720.5Z" stroke="#042433" stroke-width="6.875" stroke-miterlimit="8" fill="#FFC90D" fill-rule="evenodd"/><path d="M2210.5 2178.5 1895.5 1686.53 1895.5 706.473 2210.5 214.5 2525.5 706.473 2525.5 1686.53Z" stroke="#042433" stroke-width="6.875" stroke-miterlimit="8" fill="#FA0101" fill-rule="evenodd"/><path d="M2210.5 2078.5 2100.5 1512.54 2100.5 881.463 2210.5 315.5 2320.5 881.463 2320.5 1512.54Z" stroke="#042433" stroke-width="6.875" stroke-miterlimit="8" fill="#FFFFFF" fill-rule="evenodd"/></g></svg>