<svg width="326" height="326" xmlns="http://www.w3.org/2000/svg" xmlns:xlink="http://www.w3.org/1999/xlink" xml:space="preserve" overflow="hidden"><g transform="translate(-516 -323)"><path d="M780.875 563.391C773.888 563.662 766.998 565.12 760.5 567.704 756.174 569.494 751.587 570.572 746.917 570.896 742.246 570.572 737.659 569.494 733.333 567.704 726.836 565.12 719.946 563.662 712.958 563.391 705.971 563.662 699.081 565.12 692.583 567.704 688.258 569.494 683.67 570.572 679 570.896 674.33 570.572 669.742 569.494 665.417 567.704 658.919 565.12 652.029 563.662 645.042 563.391 638.054 563.662 631.164 565.12 624.667 567.704 620.341 569.494 615.754 570.572 611.083 570.896 606.413 570.572 601.826 569.494 597.5 567.704 591.002 565.12 584.112 563.662 577.125 563.391 570.138 563.662 563.248 565.12 556.75 567.704 552.424 569.494 547.837 570.572 543.167 570.896L543.167 591.271C550.154 591 557.044 589.542 563.542 586.958 567.856 585.099 572.443 583.951 577.125 583.562 581.807 583.951 586.394 585.099 590.708 586.958 597.206 589.542 604.096 591 611.083 591.271 618.071 591 624.961 589.542 631.458 586.958 635.772 585.099 640.36 583.951 645.042 583.562 649.712 583.886 654.299 584.964 658.625 586.754 665.106 589.423 671.999 590.951 679 591.271 685.987 591 692.877 589.542 699.375 586.958 703.689 585.099 708.276 583.952 712.958 583.562 717.64 583.952 722.228 585.099 726.542 586.958 733.039 589.542 739.929 591 746.917 591.271 753.904 591 760.794 589.542 767.292 586.958 771.606 585.099 776.193 583.952 780.875 583.562 785.545 583.886 790.133 584.964 794.458 586.754 800.939 589.423 807.832 590.951 814.833 591.271L814.833 570.896C810.163 570.572 805.576 569.494 801.25 567.704 794.752 565.12 787.862 563.662 780.875 563.391Z" fill="#B4E564"/><path d="M801.25 526.954C794.752 524.37 787.862 522.912 780.875 522.641 773.888 522.912 766.998 524.37 760.5 526.954 756.174 528.744 751.587 529.822 746.917 530.146 742.246 529.822 737.659 528.744 733.333 526.954 730.974 526.031 728.558 525.26 726.1 524.645 697.779 511.774 683.313 485.864 685.35 465.829 687.048 448.544 697.439 429.086 716.252 427.15 734.385 425.125 750.99 437.486 754.252 455.438 754.705 458.486 757.425 460.674 760.5 460.463 762.131 460.313 763.634 459.519 764.677 458.256 765.686 456.981 766.139 455.353 765.933 453.74 759.855 408.405 719.444 377.945 672.208 382.801 646.57 385.449 622.493 401.478 600.624 430.342 597.704 434.18 594.851 438.051 591.999 441.922 576.819 462.297 562.353 481.993 543.302 495.305L543.302 550.521C550.29 550.25 557.18 548.792 563.677 546.208 567.992 544.349 572.579 543.201 577.261 542.812 581.943 543.201 586.53 544.349 590.844 546.208 597.299 548.777 604.142 550.235 611.083 550.521 618.071 550.25 624.961 548.792 631.458 546.208 635.772 544.349 640.36 543.201 645.042 542.812 649.712 543.136 654.299 544.214 658.625 546.004 665.106 548.673 671.999 550.201 679 550.521 685.987 550.25 692.877 548.792 699.375 546.208 703.689 544.349 708.276 543.202 712.958 542.812 717.64 543.202 722.228 544.349 726.542 546.208 733.039 548.792 739.929 550.25 746.917 550.521 753.904 550.25 760.794 548.792 767.292 546.208 771.606 544.349 776.193 543.202 780.875 542.812 785.545 543.136 790.133 544.214 794.458 546.004 800.939 548.673 807.832 550.201 814.833 550.521L814.833 530.146C810.163 529.822 805.576 528.744 801.25 526.954Z" fill="#B4E564"/></g></svg>