<svg width="498" height="498" xmlns="http://www.w3.org/2000/svg" xmlns:xlink="http://www.w3.org/1999/xlink" xml:space="preserve" overflow="hidden"><g transform="translate(-563 -103)"><path d="M811.481 523.188C731.075 523.188 666.231 458.344 666.231 377.938 666.231 297.531 731.075 232.688 811.481 232.688 891.888 232.688 956.731 297.531 956.731 377.938L956.731 377.938C956.731 458.344 891.888 523.188 811.481 523.188ZM934.425 251.363 949.987 235.8C955.694 229.575 955.694 219.719 949.469 214.012 943.244 208.306 933.906 207.788 927.681 213.494L910.044 231.65C885.144 215.05 856.612 204.675 827.044 202.6L827.044 180.812 873.731 180.812 873.731 149.688 749.231 149.688 749.231 180.812 795.919 180.812 795.919 202.081C698.394 210.381 626.806 296.494 635.106 393.5 643.406 490.506 729.519 562.612 826.525 554.312 923.531 546.013 995.638 459.9 987.338 362.894 983.706 320.356 965.031 280.931 934.425 251.363Z" fill="#008800"/><path d="M723.294 466.125C772.056 514.888 850.906 514.888 899.15 466.125 947.394 417.362 947.912 338.513 899.15 290.269 875.806 266.925 844.162 253.956 811.481 253.956L811.481 378.456 723.294 466.125Z" fill="#008800"/></g></svg>