<svg width="1170" height="1171" xmlns="http://www.w3.org/2000/svg" xmlns:xlink="http://www.w3.org/1999/xlink" xml:space="preserve" overflow="hidden"><defs><clipPath id="clip0"><rect x="1483" y="332" width="1170" height="1171"/></clipPath></defs><g clip-path="url(#clip0)" transform="translate(-1483 -332)"><path d="M2067.5 332C2309.6 332 2517.31 479.326 2606.04 689.292L2618 722 1517 722 1528.96 689.292C1617.69 479.326 1825.4 332 2067.5 332Z" fill="#C8102E" fill-rule="evenodd"/><path d="M1516.97 722 2618.03 722 2625.72 743.039C2642.8 797.993 2652 856.421 2652 917 2652 957.386 2647.91 996.816 2640.13 1034.9L2616.21 1112 1518.79 1112 1494.88 1034.9C1487.09 996.816 1483 957.386 1483 917 1483 856.421 1492.2 797.993 1509.28 743.039Z" fill="#FFFFFF" fill-rule="evenodd"/><path d="M550.5 0C792.595 0 1000.31 147.326 1089.04 357.291L1101 390 0 390 11.9604 357.291C100.688 147.326 308.404 0 550.5 0Z" fill-rule="evenodd" transform="matrix(1 0 0 -1 1517 1502)"/><path d="M1483.5 917.5C1483.5 594.413 1745.19 332.5 2068 332.5 2390.81 332.5 2652.5 594.413 2652.5 917.5 2652.5 1240.59 2390.81 1502.5 2068 1502.5 1745.19 1502.5 1483.5 1240.59 1483.5 917.5Z" stroke="#000000" stroke-width="1.14583" stroke-miterlimit="8" fill="none" fill-rule="evenodd"/><g><g><g><path d="M239.546 200.224C239.1 201.873 238.61 203.434 238.12 204.682 239.567 212.58 240.284 220.594 240.26 228.623 240.26 248.151 236.47 268.748 226.885 278.245 225.77 282.435 225.948 285.021 228.846 285.333 237.763 286.359 243.291 296.167 243.291 296.167 246.902 307.001 253.01 303.746 253.01 303.746 273.117 299.02 271.423 323.63 269.64 327.242 267.857 330.853 270.71 329.738 270.71 329.738 280.83 328.312 275.792 306.287 281.544 300.848 284.937 297.928 287.543 294.203 289.123 290.015 298.04 294.027 300.67 282.435 300.67 282.435 300.67 282.435 309.587 286.626 311.905 275.57 322.427 227.642 258.806 205.707 239.546 200.224Z" fill="#C09300" transform="matrix(1.00234 0 0 1 1853 703)"/><path d="M186.76 228.757C186.726 220.651 187.457 212.561 188.944 204.593 188.498 203.3 188.052 201.873 187.651 200.402 167.678 206.198 105.529 228.133 115.917 275.703 118.369 286.76 127.152 282.569 127.152 282.569 127.152 282.569 130.005 294.161 138.699 290.148 140.279 294.337 142.885 298.062 146.278 300.982 152.029 306.421 146.991 328.445 157.112 329.872 157.112 329.872 160.366 330.987 158.182 327.375 155.997 323.764 154.704 299.154 174.811 303.88 174.811 303.88 180.919 307.135 184.53 296.301 184.53 296.301 190.014 286.492 198.975 285.467 201.65 285.2 202.007 282.97 201.205 279.404 190.817 270.264 186.76 248.998 186.76 228.757Z" fill="#C09300" transform="matrix(1.00234 0 0 1 1853 703)"/><path d="M249.934 98.3508C247.628 95.6299 243.6 95.1801 240.75 97.3254 224.21 110.7 216.853 137.896 213.732 155.952 210.567 138.119 203.255 110.567 186.67 97.3254 183.662 95.1827 179.486 95.8845 177.344 98.8925 175.367 101.668 175.793 105.486 178.333 107.758 195.587 121.579 201.695 160.5 202.587 174.321 202.587 174.321 202.587 174.321 202.587 174.321 200.867 177.014 199.784 180.063 199.421 183.237 198.952 190.039 200.209 196.848 203.077 203.032 201.163 211.336 200.235 219.835 200.313 228.356 200.313 251.495 206.287 270.264 213.688 270.264 221.089 270.264 227.063 251.495 227.063 228.356 227.13 219.912 226.217 211.489 224.343 203.255 227.262 197.006 228.551 190.119 228.088 183.237 227.749 179.94 226.617 176.774 224.789 174.009L224.789 174.009C225.681 160.188 231.789 121.267 249.042 107.446 251.688 105.122 252.078 101.144 249.934 98.3508Z" fill="#C09300" transform="matrix(1.00234 0 0 1 1853 703)"/><path d="M390.461 134.508C387.518 92.9117 277.932 134.865 238.387 171.78 240.435 176.533 241.424 181.675 241.285 186.849 255.685 190.727 301.829 205.395 319.44 237.629 321.728 238.208 324.078 238.507 326.439 238.521 341.597 238.03 352.208 224.076 352.565 210.701 366.174 206.971 374.545 193.312 371.691 179.492 371.691 179.492 392.333 168.48 383.417 148.953 388.294 145.845 391.015 140.264 390.461 134.508ZM338.833 222.159C336.649 225.235 333.35 226.617 331.432 225.235 329.515 223.853 329.694 220.286 331.878 217.21 334.063 214.134 337.362 212.752 339.279 214.178 341.196 215.605 341.018 219.127 338.833 222.159ZM358.539 192.778C356.711 196.033 353.59 197.772 351.54 196.612 349.489 195.453 349.266 191.887 351.094 188.632 352.922 185.378 356.042 183.594 358.093 184.753 360.144 185.912 360.367 189.479 358.539 192.778ZM374.5 161.57C373.341 165.137 370.621 167.455 368.347 166.742 366.074 166.028 365.227 162.551 366.341 158.984 367.456 155.417 370.22 153.099 372.449 153.812 374.678 154.526 375.615 157.959 374.5 161.525ZM373.965 140.839C371.602 140.839 369.507 137.807 369.507 134.062 369.507 130.317 371.424 127.285 373.965 127.285 376.506 127.285 378.423 130.317 378.423 134.062 378.423 137.807 376.283 140.794 373.965 140.794Z" fill="#C09300" transform="matrix(1.00234 0 0 1 1853 703)"/><path d="M43.7362 148.953C34.8196 168.48 55.64 179.314 55.64 179.314 52.7862 193.133 61.1576 206.793 74.7662 210.522 75.1229 223.897 85.7337 237.852 100.892 238.342 103.253 238.329 105.603 238.03 107.892 237.451 125.502 205.217 171.646 190.549 186.046 186.67 185.95 181.5 186.937 176.367 188.944 171.601 149.399 134.865 39.8129 92.9117 36.8704 134.508 36.2995 140.224 38.9432 145.786 43.7362 148.953ZM88.0521 214C89.9692 212.618 93.3129 214 95.4529 217.032 97.5929 220.063 97.8604 223.675 95.8987 225.057 93.9371 226.439 90.6825 225.057 88.4979 221.98 86.3133 218.904 86.135 215.56 88.0521 214ZM69.2379 184.575C71.2887 183.416 74.4542 185.155 76.2821 188.454 78.11 191.753 77.8871 195.275 75.8362 196.434 73.7854 197.593 70.62 195.855 68.7921 192.6 66.9642 189.345 67.1871 185.912 69.2379 184.753ZM54.8821 153.59C57.1112 152.876 59.8754 155.195 60.99 158.761 62.1046 162.328 61.2129 165.805 58.9837 166.519 56.7546 167.232 53.9904 164.914 52.8312 161.347 51.6721 157.78 52.6083 154.481 54.8821 153.768ZM49.0417 134.017C49.0417 130.272 50.9587 127.241 53.5 127.241 56.0412 127.241 57.7354 130.272 57.7354 134.017 57.7354 137.762 55.8629 140.794 53.5 140.794 51.1371 140.794 49.0417 137.762 49.0417 134.017Z" fill="#C09300" transform="matrix(1.00234 0 0 1 1853 703)"/></g></g></g></g></svg>