<svg width="657" height="656" xmlns="http://www.w3.org/2000/svg" xmlns:xlink="http://www.w3.org/1999/xlink" xml:space="preserve" overflow="hidden"><g transform="translate(-1872 -910)"><path d="M1875.5 1238C1875.5 1058.78 2021.01 913.5 2200.5 913.5 2379.99 913.5 2525.5 1058.78 2525.5 1238 2525.5 1417.22 2379.99 1562.5 2200.5 1562.5 2021.01 1562.5 1875.5 1417.22 1875.5 1238Z" stroke="#000000" stroke-width="6.875" stroke-miterlimit="8" fill-rule="evenodd"/><path d="M2200.24 913 2216.7 913.417C2321.81 918.752 2413.73 974.156 2469.14 1056.29L2481 1075.83 2200 1238 2200 1235.81 2200.24 913Z" fill="#002799" fill-rule="evenodd"/><path d="M1925.25 1065.12 2199.77 1238 1919 1075.42ZM2199.77 913 2200 913.006 2199.77 1235.81 2199.77 1238 2199.77 1238 2199.77 1238 1925.25 1065.12 1930.61 1056.29C1988.94 969.839 2087.73 913 2199.77 913Z" fill="#E30613" fill-rule="evenodd"/><path d="M2481.37 1075 2485.77 1082.26 2487.32 1085.48 2487.32 1085.48 2499.46 1110.69C2515.91 1149.6 2525 1192.39 2525 1237.29 2525 1293.43 2510.79 1346.24 2485.77 1392.33L2481.12 1400 2200 1237.29 2200 1237.29 2200 1237.29 2200 1237.29 2200 1237.29Z" fill-rule="evenodd"/><path d="M2200.24 1238 2200.24 1238 2200.24 1238 2481 1400.08 2474.75 1410.34 2474.75 1410.34 2469.39 1419.15C2411.06 1505.34 2312.28 1562 2200.24 1562L2200 1561.99 2200.24 1238Z" fill="#E30613" fill-rule="evenodd"/><path d="M2200 1237.71 1918.63 1400 1914.23 1392.74 1912.68 1389.52ZM1918.88 1075 2200 1237.71 2200 1237.71 1912.68 1389.52 1900.54 1364.31C1884.09 1325.4 1875 1282.61 1875 1237.71 1875 1181.57 1889.21 1128.76 1914.23 1082.67Z" fill-rule="evenodd"/><path d="M2200 1238 2199.76 1562 2187.72 1561.7ZM2200 1238 2200 1238 2187.72 1561.7 2183.3 1561.58C2078.19 1556.27 1986.27 1501.03 1930.86 1419.15L1919 1399.67Z" fill="#002799" fill-rule="evenodd"/></g></svg>