<svg width="6237" height="6238" xmlns="http://www.w3.org/2000/svg" xmlns:xlink="http://www.w3.org/1999/xlink" xml:space="preserve" overflow="hidden"><defs><clipPath id="clip0"><rect x="130" y="129" width="6237" height="6238"/></clipPath></defs><g clip-path="url(#clip0)" transform="translate(-130 -129)"><path d="M550.987 1683.56C1415.09 193.961 3323.14-313.109 4812.74 550.989 5284.64 824.735 5676.46 1217.5 5949.07 1690.07L3248.15 3248.15Z" fill="#FFC000" fill-rule="evenodd"/><path d="M5945.31 4812.74C5081.22 6302.34 3173.17 6809.41 1683.57 5945.31 1211.66 5671.57 819.838 5278.8 547.23 4806.24L3248.15 3248.15Z" fill="#FFC000" fill-rule="evenodd"/><path d="M5950.01 1691.69C6506.78 2658.19 6504.89 3848.47 5945.05 4813.18L3248.15 3248.15Z" fill="#FE0000" fill-rule="evenodd"/><path d="M546.287 4804.61C-10.4771 3838.12-8.58594 2647.84 551.247 1683.12L3248.15 3248.15Z" fill="#FE0000" fill-rule="evenodd"/><text fill="#FF0000" font-family="Kristen ITC,Kristen ITC_MSFontService,sans-serif" font-weight="400" font-stretch="semi-expanded" font-size="344" transform="matrix(0.67339 0.739287 -0.739287 0.67339 893.592 4931)">Baden</text><path d="M130 3248C130 1525.98 1525.98 130 3248 130 4970.02 130 6366 1525.98 6366 3248 6366 4970.02 4970.02 6366 3248 6366 1525.98 6366 130 4970.02 130 3248Z" fill="#FFFFFF" fill-rule="evenodd" fill-opacity="0.74902"/></g></svg>