<svg width="397" height="396" xmlns="http://www.w3.org/2000/svg" xmlns:xlink="http://www.w3.org/1999/xlink" xml:space="preserve" overflow="hidden"><g transform="translate(-2002 -1040)"><path d="M2200 1043C2206.65 1043 2213.22 1043.34 2219.7 1044L2227 1045.13 2227 1429.87 2219.7 1431C2213.22 1431.66 2206.65 1432 2200 1432 2193.35 1432 2186.78 1431.66 2180.3 1431L2173 1429.87 2173 1045.13 2180.3 1044C2186.78 1043.34 2193.35 1043 2200 1043Z" fill-rule="evenodd"/><path d="M2227 1045 2239 1046.82C2328.03 1064.97 2395 1143.44 2395 1237.5 2395 1331.56 2328.03 1410.03 2239 1428.18L2227 1430 2227 1045Z" fill="#007A51" fill-rule="evenodd"/><path d="M2173 1045 2173 1430 2161 1428.18C2071.97 1410.03 2005 1331.56 2005 1237.5 2005 1143.44 2071.97 1064.97 2161 1046.82L2173 1045Z" fill="#FFED00" fill-rule="evenodd"/><path d="M2005.5 1238C2005.5 1130.58 2092.8 1043.5 2200.5 1043.5 2308.2 1043.5 2395.5 1130.58 2395.5 1238 2395.5 1345.42 2308.2 1432.5 2200.5 1432.5 2092.8 1432.5 2005.5 1345.42 2005.5 1238Z" stroke="#404040" stroke-width="6.875" stroke-miterlimit="8" fill="none" fill-rule="evenodd"/></g></svg>