<svg width="1301" height="1301" xmlns="http://www.w3.org/2000/svg" xmlns:xlink="http://www.w3.org/1999/xlink" xml:space="preserve" overflow="hidden"><g transform="translate(-1770 -862)"><path d="M2879.64 1971.39C2625.96 2225.07 2214.65 2225.07 1960.96 1971.39 1960.53 1970.96 1960.11 1970.53 1959.68 1970.1L2420.3 1512.04Z" stroke="#404040" stroke-width="1.14583" stroke-miterlimit="8" fill="#007A51" fill-rule="evenodd"/><path d="M1960.96 1971.39C1707.27 1717.7 1707.27 1306.39 1960.96 1052.7 1961.39 1052.28 1961.82 1051.85 1962.25 1051.42L2420.3 1512.04Z" fill="#FFFFFF" fill-rule="evenodd"/><path d="M1960.96 1052.7C2214.65 799.017 2625.96 799.017 2879.64 1052.7 2880.07 1053.13 2880.5 1053.56 2880.93 1053.99L2420.3 1512.05Z" fill="#007A51" fill-rule="evenodd"/><path d="M2879.64 1052.7C3133.33 1306.39 3133.33 1717.7 2879.64 1971.39 2879.21 1971.81 2878.79 1972.24 2878.36 1972.67L2420.3 1512.04Z" fill="#FFFFFF" fill-rule="evenodd"/><path d="M1771.5 1512.5C1771.5 1153.51 2062.29 862.5 2421 862.5 2779.71 862.5 3070.5 1153.51 3070.5 1512.5 3070.5 1871.49 2779.71 2162.5 2421 2162.5 2062.29 2162.5 1771.5 1871.49 1771.5 1512.5Z" stroke="#404040" stroke-width="1.14583" stroke-miterlimit="8" fill="none" fill-rule="evenodd"/></g></svg>