<svg width="1306" height="1306" xmlns="http://www.w3.org/2000/svg" xmlns:xlink="http://www.w3.org/1999/xlink" xml:space="preserve" overflow="hidden"><g transform="translate(-1432 -937)"><path d="M2734.5 1590C2734.5 1948.71 2443.71 2239.5 2085 2239.5 2083.21 2239.5 2081.41 2239.49 2079.62 2239.48L2085 1590Z" stroke="#000000" stroke-width="6.875" stroke-miterlimit="8" fill="#99D9EA" fill-rule="evenodd"/><path d="M1435.5 1590C1435.5 1231.29 1726.29 940.5 2085 940.5 2086.79 940.5 2088.59 940.507 2090.38 940.522L2085 1590Z" stroke="#000000" stroke-width="6.875" stroke-miterlimit="8" fill="#99D9EA" fill-rule="evenodd"/><path d="M2085 940.5C2443.71 940.5 2734.5 1231.29 2734.5 1590 2734.5 1591.79 2734.49 1593.59 2734.48 1595.38L2085 1590Z" stroke="#000000" stroke-width="6.875" stroke-miterlimit="8" fill="#FFFF80" fill-rule="evenodd"/><path d="M2085 2239.5C1726.29 2239.5 1435.5 1948.71 1435.5 1590 1435.5 1588.21 1435.51 1586.41 1435.52 1584.62L2085 1590Z" stroke="#000000" stroke-width="6.875" stroke-miterlimit="8" fill="#FFFF80" fill-rule="evenodd"/></g></svg>