<svg width="1956" height="1955" xmlns="http://www.w3.org/2000/svg" xmlns:xlink="http://www.w3.org/1999/xlink" xml:space="preserve" overflow="hidden"><g transform="translate(-1323 -234)"><path d="M3275.5 1211.5C3275.5 1749.43 2839.2 2185.5 2301 2185.5 2299.49 2185.5 2297.98 2185.5 2296.47 2185.49L2301 1211.5Z" stroke="#042433" stroke-width="6.875" stroke-miterlimit="8" fill="#07BED8" fill-rule="evenodd"/><path d="M2301 2185.5C1762.8 2185.5 1326.5 1749.43 1326.5 1211.5 1326.5 1209.99 1326.5 1208.48 1326.51 1206.96L2301 1211.5Z" stroke="#042433" stroke-width="6.875" stroke-miterlimit="8" fill="#FFFFFF" fill-rule="evenodd"/><path d="M1326.5 1211.5C1326.5 673.575 1762.8 237.5 2301 237.5 2302.51 237.5 2304.02 237.504 2305.53 237.511L2301 1211.5Z" stroke="#042433" stroke-width="6.875" stroke-miterlimit="8" fill="#07BED8" fill-rule="evenodd"/><path d="M2301 237.5C2839.2 237.5 3275.5 673.575 3275.5 1211.5 3275.5 1213.01 3275.5 1214.52 3275.49 1216.04L2301 1211.5Z" stroke="#042433" stroke-width="6.875" stroke-miterlimit="8" fill="#FFFFFF" fill-rule="evenodd"/></g></svg>