<svg width="656" height="657" xmlns="http://www.w3.org/2000/svg" xmlns:xlink="http://www.w3.org/1999/xlink" xml:space="preserve" overflow="hidden"><g transform="translate(-1823 -795)"><path d="M2151 798C2162.22 798 2173.3 798.568 2184.22 799.678L2200 802.087 2200 1443.91 2184.22 1446.32C2173.3 1447.43 2162.22 1448 2151 1448 2139.79 1448 2128.7 1447.43 2117.78 1446.32L2102 1443.91 2102 802.087 2117.78 799.678C2128.7 798.568 2139.79 798 2151 798Z" fill="#FFFFFF" fill-rule="evenodd"/><path d="M2102 802 2102 1444 2085.6 1441.48C2076.4 1439.59 2067.33 1437.3 2058.43 1434.64L2037 1427.2 2037 818.802 2058.43 811.363C2067.33 808.699 2076.4 806.411 2085.6 804.516L2102 802Z" fill="#E30613" fill-rule="evenodd"/><path d="M2037 819 2037 1427 2032.19 1425.34C1911.44 1377.83 1826 1260.37 1826 1123 1826 985.628 1911.44 868.17 2032.19 820.658L2037 819Z" fill-rule="evenodd"/><path d="M66 0 66 642 49.352 639.484C40.0042 637.589 30.801 635.301 21.761 632.637L0 625.198 0 16.8025 21.761 9.36272C30.801 6.69935 40.0042 4.41109 49.352 2.51654L66 0Z" fill="#E30613" fill-rule="evenodd" transform="matrix(-1 0 0 1 2265 802)"/><path d="M210 0 210 608 205.211 606.342C85.0371 558.83 0 441.372 0 304 0 166.628 85.0371 49.1698 205.211 1.65741L210 0Z" fill-rule="evenodd" transform="matrix(-1 0 0 1 2475 819)"/><path d="M1826.5 1123.5C1826.5 944.008 1971.78 798.5 2151 798.5 2330.22 798.5 2475.5 944.008 2475.5 1123.5 2475.5 1302.99 2330.22 1448.5 2151 1448.5 1971.78 1448.5 1826.5 1302.99 1826.5 1123.5Z" stroke="#404040" stroke-width="6.875" stroke-miterlimit="8" fill="none" fill-rule="evenodd"/></g></svg>