<svg width="391" height="391" xmlns="http://www.w3.org/2000/svg" xmlns:xlink="http://www.w3.org/1999/xlink" xml:space="preserve" overflow="hidden"><defs><clipPath id="clip0"><rect x="2218" y="848" width="391" height="391"/></clipPath></defs><g clip-path="url(#clip0)" transform="translate(-2218 -848)"><path d="M2413.21 848 2427 848.672 2424.41 854.275 2401 860 2406.4 848.332 2413.21 848Z" fill="#FFFFFF" fill-rule="evenodd"/><path d="M2386 850 2378.97 865.328 2356 871 2363.62 854.392 2374.04 851.779 2386 850Z" fill="#FFFFFF" fill-rule="evenodd"/><path d="M2440.88 850 2446 850.76 2437.91 868.354 2415 874 2424.14 854.126 2440.88 850Z" fill="#FFFFFF" fill-rule="evenodd"/><path d="M2463.74 855 2471.02 856.788 2477 858.882 2460 863 2463.74 855Z" fill="#FFFFFF" fill-rule="evenodd"/><path d="M2401 860 2392.16 880.248 2370 886 2378.84 865.752 2401 860Z" fill="#FFFFFF" fill-rule="evenodd"/><path d="M2481.78 860 2489.26 862.674 2499 867.259 2497.17 871.266 2474 877 2481.78 860Z" fill="#FFFFFF" fill-rule="evenodd"/><path d="M2339.75 862 2333.02 876.861 2326 878.615 2326 892.539 2333.07 876.934 2356.12 871.17 2346.93 891.46 2326 896.694 2326 914.832 2337.85 911.869 2328.66 932.159 2326 932.824 2326 938.164 2328.69 932.223 2351.75 926.458 2342.55 946.748 2326 950.888 2326 968.817 2333.44 966.956 2333.44 966.973 2333.65 966.92 2326 983.804 2326 986.914 2347.25 981.601 2347.24 981.618 2347.46 981.564 2338.27 1001.84 2326 1004.91 2326 1023.01 2329.28 1022.19 2326 1029.43 2326 1041.09 2343.19 1036.79 2334 1057.08 2326 1059.08 2326 1074.74 2333.95 1057.2 2357 1051.43 2347.81 1071.73 2326 1077.18 2326 1095.28 2338.82 1092.08 2329.62 1112.37 2326 1113.28 2326 1120.57 2329.75 1112.29 2352.8 1106.53 2343.61 1126.82 2326 1131.22 2326 1149.36 2334.53 1147.23 2326 1166.06 2326 1167.42 2348.43 1161.82 2339.24 1182.11 2326 1185.42 2326 1203.54 2330.26 1202.47 2326 1211.88 2326 1217 2326 1217 2326 868.222 2336.99 862.996 2339.75 862Z" fill="#FFFFFF" fill-rule="evenodd"/><path d="M2461 863 2451.88 883.248 2429 889 2438.12 868.752 2461 863Z" fill="#FFFFFF" fill-rule="evenodd"/><path d="M2500 871 2500 888.963 2488 892 2497.07 871.743 2500 871Z" fill="#FFFFFF" fill-rule="evenodd"/><path d="M2415 874 2405.88 894.248 2383 900 2392.12 879.752 2415 874Z" fill="#FFFFFF" fill-rule="evenodd"/><path d="M2474 877 2464.88 897.248 2442 903 2451.12 882.752 2474 877Z" fill="#FFFFFF" fill-rule="evenodd"/><path d="M2370 886 2360.88 906.248 2338 912 2347.12 891.752 2370 886Z" fill="#FFFFFF" fill-rule="evenodd"/><path d="M2429 889 2419.88 909.248 2397 915 2406.12 894.752 2429 889Z" fill="#FFFFFF" fill-rule="evenodd"/><path d="M2488 892 2478.88 912.248 2456 918 2465.12 897.752 2488 892Z" fill="#FFFFFF" fill-rule="evenodd"/><path d="M2383 900 2374.16 920.248 2352 926 2360.84 905.752 2383 900Z" fill="#FFFFFF" fill-rule="evenodd"/><path d="M2443 903 2433.88 924.026 2411 930 2420.12 908.973 2443 903Z" fill="#FFFFFF" fill-rule="evenodd"/><path d="M2500 907 2500 910.809 2492.8 927.14 2470 933 2479.09 912.374 2500 907Z" fill="#FFFFFF" fill-rule="evenodd"/><path d="M2397 915 2387.88 935.248 2365 941 2374.12 920.752 2397 915Z" fill="#FFFFFF" fill-rule="evenodd"/><path d="M2456 918 2446.88 938.248 2424 944 2433.12 923.752 2456 918Z" fill="#FFFFFF" fill-rule="evenodd"/><path d="M2500 925 2500 942.891 2483 947 2492.46 926.823 2500 925Z" fill="#FFFFFF" fill-rule="evenodd"/><path d="M2411 930 2401.88 950.248 2379 956 2388.12 935.752 2411 930Z" fill="#FFFFFF" fill-rule="evenodd"/><path d="M2470 933 2460.88 953.248 2438 959 2447.12 938.752 2470 933Z" fill="#FFFFFF" fill-rule="evenodd"/><path d="M2366 941 2356.88 961.261 2334.2 966.964 2334.21 966.947 2334 967 2343.12 946.756 2366 941Z" fill="#FFFFFF" fill-rule="evenodd"/><path d="M2425 944 2415.88 964.248 2393 970 2402.12 949.752 2425 944Z" fill="#FFFFFF" fill-rule="evenodd"/><path d="M2484 947 2474.88 967.248 2452 973 2461.12 952.752 2484 947Z" fill="#FFFFFF" fill-rule="evenodd"/><path d="M2379 956 2369.88 976.261 2347.2 981.964 2347.21 981.947 2347 982 2356.12 961.756 2379 956Z" fill="#FFFFFF" fill-rule="evenodd"/><path d="M2500 956 2500 961.32 2497 962 2500 956Z" fill="#FFFFFF" fill-rule="evenodd"/><path d="M2438 959 2428.88 979.248 2406 985 2415.12 964.752 2438 959Z" fill="#FFFFFF" fill-rule="evenodd"/><path d="M2497 962 2487.88 982.248 2465 988 2474.12 967.752 2497 962Z" fill="#FFFFFF" fill-rule="evenodd"/><path d="M2393 970 2383.88 990.261 2361.2 995.964 2361.21 995.947 2361 996 2370.12 975.756 2393 970Z" fill="#FFFFFF" fill-rule="evenodd"/><path d="M2452 973 2442.88 993.248 2420 999 2429.12 978.752 2452 973Z" fill="#FFFFFF" fill-rule="evenodd"/><path d="M2500 979 2500 996.858 2479 1002 2488.32 981.861 2500 979Z" fill="#FFFFFF" fill-rule="evenodd"/><path d="M2407 985 2397.88 1005.26 2375.2 1010.96 2375.21 1010.95 2375 1011 2384.12 990.756 2407 985Z" fill="#FFFFFF" fill-rule="evenodd"/><path d="M2466 988 2456.88 1008.25 2434 1014 2443.12 993.752 2466 988Z" fill="#FFFFFF" fill-rule="evenodd"/><path d="M2361 996 2351.88 1016.24 2329 1022 2338.12 1001.74 2360.8 996.036 2360.79 996.053 2361 996Z" fill="#FFFFFF" fill-rule="evenodd"/><path d="M2420 999 2410.99 1019.27 2388.6 1024.98 2388.61 1024.96 2388.4 1025.02 2388.39 1025.04 2388.6 1024.98 2379.6 1045.24 2357 1051 2366.01 1030.72 2388.4 1025.02 2397.4 1004.76 2420 999Z" fill="#FFFFFF" fill-rule="evenodd"/><path d="M2500 1002 2500 1015.3 2493 1017 2500 1002Z" fill="#FFFFFF" fill-rule="evenodd"/><path d="M2479 1002 2470.16 1022.25 2448 1028 2456.84 1007.75 2479 1002Z" fill="#FFFFFF" fill-rule="evenodd"/><path d="M2375 1011 2365.88 1031.24 2343 1037 2352.12 1016.74 2374.8 1011.04 2374.79 1011.05 2375 1011Z" fill="#FFFFFF" fill-rule="evenodd"/><path d="M2434 1014 2424.88 1034.26 2402.2 1039.96 2402.21 1039.95 2402 1040 2411.12 1019.76 2434 1014Z" fill="#FFFFFF" fill-rule="evenodd"/><path d="M2493 1017 2483.88 1037.25 2461 1043 2470.12 1022.75 2493 1017Z" fill="#FFFFFF" fill-rule="evenodd"/><path d="M2448 1028 2438.88 1048.26 2416.2 1053.96 2416.21 1053.95 2416 1054 2425.12 1033.76 2448 1028Z" fill="#FFFFFF" fill-rule="evenodd"/><path d="M2500 1033 2500 1047.41 2497.96 1052.06 2475 1058 2484.16 1037.1 2500 1033Z" fill="#FFFFFF" fill-rule="evenodd"/><path d="M2402 1040 2393.17 1060.24 2371 1066 2379.84 1045.74 2401.8 1040.04 2401.79 1040.05 2402 1040Z" fill="#FFFFFF" fill-rule="evenodd"/><path d="M2461 1043 2452.16 1063.26 2430.2 1068.96 2430.21 1068.95 2430 1069 2438.83 1048.76 2461 1043Z" fill="#FFFFFF" fill-rule="evenodd"/><path d="M2500 1051 2500 1069.18 2489 1072 2498.04 1051.5 2500 1051Z" fill="#FFFFFF" fill-rule="evenodd"/><path d="M2416 1054 2406.88 1074.24 2384 1080 2393.12 1059.74 2415.8 1054.04 2415.79 1054.05 2416 1054Z" fill="#FFFFFF" fill-rule="evenodd"/><path d="M2475 1058 2465.88 1078.26 2443.2 1083.96 2443.21 1083.95 2443 1084 2452.12 1063.76 2475 1058Z" fill="#FFFFFF" fill-rule="evenodd"/><path d="M2371 1066 2361.88 1086.25 2339 1092 2348.12 1071.75 2371 1066Z" fill="#FFFFFF" fill-rule="evenodd"/><path d="M2430 1069 2420.88 1089.24 2398 1095 2407.12 1074.74 2429.8 1069.04 2429.79 1069.05 2430 1069Z" fill="#FFFFFF" fill-rule="evenodd"/><path d="M2489 1072 2479.88 1092.26 2457.2 1097.96 2457.21 1097.95 2457 1098 2466.12 1077.76 2489 1072Z" fill="#FFFFFF" fill-rule="evenodd"/><path d="M2385 1080 2375.88 1100.25 2353 1106 2362.12 1085.75 2385 1080Z" fill="#FFFFFF" fill-rule="evenodd"/><path d="M2444 1084 2434.88 1104.24 2412 1110 2421.12 1089.74 2443.8 1084.04 2443.79 1084.05 2444 1084Z" fill="#FFFFFF" fill-rule="evenodd"/><path d="M2500 1088 2500 1093.42 2493.65 1107.46 2470.99 1113.14 2461.87 1133.27 2439 1139 2448.12 1118.84 2470.78 1113.17 2470.77 1113.19 2470.99 1113.14 2470.99 1113.12 2470.78 1113.17 2479.89 1093.03 2500 1088Z" fill="#FFFFFF" fill-rule="evenodd"/><path d="M2398 1095 2388.88 1115.25 2366 1121 2375.12 1100.75 2398 1095Z" fill="#FFFFFF" fill-rule="evenodd"/><path d="M2457 1098 2447.88 1118.24 2425 1124 2434.12 1103.74 2456.8 1098.04 2456.79 1098.05 2457 1098Z" fill="#FFFFFF" fill-rule="evenodd"/><path d="M2500 1106 2500 1123.67 2484.84 1127.43 2484.85 1127.42 2484.64 1127.47 2484.63 1127.49 2484.84 1127.43 2475.77 1147.34 2453 1153 2462.08 1133.08 2484.64 1127.47 2493.71 1107.56 2500 1106Z" fill="#FFFFFF" fill-rule="evenodd"/><path d="M2412 1110 2402.88 1130.25 2380 1136 2389.12 1115.75 2412 1110Z" fill="#FFFFFF" fill-rule="evenodd"/><path d="M2366 1121 2357.16 1141.25 2335 1147 2343.84 1126.75 2366 1121Z" fill="#FFFFFF" fill-rule="evenodd"/><path d="M2426 1124 2416.88 1144.25 2394 1150 2403.12 1129.75 2426 1124Z" fill="#FFFFFF" fill-rule="evenodd"/><path d="M2380 1136 2370.88 1156.25 2348 1162 2357.12 1141.75 2380 1136Z" fill="#FFFFFF" fill-rule="evenodd"/><path d="M2500 1138 2500 1138 2498.41 1141.62 2498.41 1141.64 2498.62 1141.59 2489.61 1162.15 2467 1168 2476.01 1147.42 2498.41 1141.62 2500 1138Z" fill="#FFFFFF" fill-rule="evenodd"/><path d="M2500 1138 2500 1141.6 2500 1141.6 2498 1142 2498 1142 2500 1141.6 2500 1138 2500 1138Z" fill="#0099D5" fill-rule="evenodd"/><path d="M2439 1139 2429.88 1159.25 2407 1165 2416.12 1144.75 2439 1139Z" fill="#FFFFFF" fill-rule="evenodd"/><path d="M2499 1142 2499 1142 2498 1143 2499 1142Z" fill="#0099D5" fill-rule="evenodd"/><path d="M2394 1150 2384.88 1170.25 2362 1176 2371.12 1155.75 2394 1150Z" fill="#FFFFFF" fill-rule="evenodd"/><path d="M2453 1153 2443.88 1173.25 2421 1179 2430.12 1158.75 2453 1153Z" fill="#FFFFFF" fill-rule="evenodd"/><path d="M2500 1160 2500 1178.03 2480 1183 2489.26 1162.67 2500 1160Z" fill="#FFFFFF" fill-rule="evenodd"/><path d="M2408 1165 2398.88 1185.25 2376 1191 2385.12 1170.75 2408 1165Z" fill="#FFFFFF" fill-rule="evenodd"/><path d="M2467 1168 2457.88 1188.25 2435 1194 2444.12 1173.75 2467 1168Z" fill="#FFFFFF" fill-rule="evenodd"/><path d="M2362 1176 2352.88 1196.25 2330 1202 2339.12 1181.75 2362 1176Z" fill="#FFFFFF" fill-rule="evenodd"/><path d="M2421 1179 2411.88 1200.03 2389 1206 2398.12 1184.97 2421 1179Z" fill="#FFFFFF" fill-rule="evenodd"/><path d="M2480 1183 2470.88 1203.25 2448 1209 2457.12 1188.75 2480 1183Z" fill="#FFFFFF" fill-rule="evenodd"/><path d="M2500 1184 2500 1195.53 2494 1197 2500 1184Z" fill="#FFFFFF" fill-rule="evenodd"/><path d="M2376 1191 2366.88 1211.25 2344 1217 2353.12 1196.75 2376 1191Z" fill="#FFFFFF" fill-rule="evenodd"/><path d="M2435 1194 2425.88 1214.25 2403 1220 2412.12 1199.75 2435 1194Z" fill="#FFFFFF" fill-rule="evenodd"/><path d="M2494 1197 2484.88 1217.25 2462 1223 2471.12 1202.75 2494 1197Z" fill="#FFFFFF" fill-rule="evenodd"/><path d="M2390 1206 2380.91 1225.53 2362.51 1230 2359 1229.13 2367.19 1211.55 2390 1206Z" fill="#FFFFFF" fill-rule="evenodd"/><path d="M2449 1209 2439.88 1229.25 2417 1235 2426.12 1214.75 2449 1209Z" fill="#FFFFFF" fill-rule="evenodd"/><path d="M2500 1214 2500 1217.18 2489.25 1222.35 2482 1225 2485.26 1217.73 2500 1214Z" fill="#FFFFFF" fill-rule="evenodd"/><path d="M2344 1217 2341.19 1224 2337.34 1222.43 2333 1220.1 2344 1217Z" fill="#FFFFFF" fill-rule="evenodd"/><path d="M2403 1220 2395.71 1237 2392.99 1236.86 2377 1234.31 2380.6 1225.91 2403 1220Z" fill="#FFFFFF" fill-rule="evenodd"/><path d="M2462 1223 2458.07 1231.93 2451.99 1233.52 2436 1236 2439.13 1228.89 2462 1223Z" fill="#FFFFFF" fill-rule="evenodd"/><path d="M2417 1235 2415.79 1236.9 2413.07 1237 2407 1236.78 2417 1235Z" fill="#FFFFFF" fill-rule="evenodd"/><path d="M2406.21 848 2400.95 859.736 2423.73 853.978 2426.25 848.343 2432.79 848.672 2440.41 849.833 2423.76 854.041 2414.68 874.311 2437.46 868.552 2445.5 850.608 2452.16 851.623 2463.79 854.605 2460.15 862.728 2476.69 858.547 2481.44 860.284 2473.79 877.357 2496.57 871.599 2498.38 867.574 2499.55 868.135 2505.86 871.17C2566.7 904.146 2608 968.461 2608 1042.4 2608 1116.34 2566.7 1180.66 2505.86 1213.63L2499.55 1216.67 2499.55 1213.48 2484.8 1217.21 2481.54 1224.48 2470.87 1228.38 2458.22 1231.63 2462.13 1222.89 2439.35 1228.65 2436.24 1235.6 2432.79 1236.13 2415.51 1237 2416.7 1234.35 2406.86 1236.83 2395.64 1236.27 2403.06 1219.72 2380.28 1225.48 2376.61 1233.65 2373.5 1233.18 2361.83 1230.19 2380.2 1225.54 2389.29 1205.27 2366.51 1211.03 2358.33 1229.29 2354.79 1228.38 2340.91 1223.31 2343.86 1216.73 2332.31 1219.64 2326 1216.61 2326 1211.5 2330.21 1202.1 2326 1203.16 2326 1185.06 2339.08 1181.75 2348.16 1161.48 2326 1167.09 2326 1165.72 2334.43 1146.91 2326 1149.04 2326 1130.92 2343.41 1126.52 2352.49 1106.25 2329.71 1112.01 2326 1120.28 2326 1112.99 2329.58 1112.09 2338.66 1091.82 2326 1095.02 2326 1076.93 2347.55 1071.49 2356.63 1051.22 2333.85 1056.97 2326 1074.5 2326 1058.85 2333.91 1056.86 2342.99 1036.59 2326 1040.88 2326 1029.23 2329.24 1022 2326 1022.82 2326 1004.73 2338.13 1001.67 2347.2 981.417 2347.2 981.417 2347.2 981.417 2369.77 975.711 2378.85 955.442 2356.07 961.2 2347 981.453 2326 986.761 2326 983.654 2333.56 966.787 2356.13 961.082 2365.21 940.812 2342.43 946.571 2333.36 966.823 2333.35 966.823 2333.35 966.823 2326 968.682 2326 950.771 2342.36 946.636 2351.44 926.367 2328.66 932.125 2326 938.061 2326 932.726 2328.63 932.062 2337.71 911.792 2326 914.752 2326 896.633 2346.68 891.404 2355.77 871.135 2332.99 876.893 2326 892.483 2326 878.573 2332.93 876.82 2339.59 861.975 2354.79 856.421 2363.16 854.275 2355.6 871.135 2378.38 865.376 2385.36 849.817 2392.88 848.672 2406.21 848ZM2401.11 859.736 2378.33 865.495 2369.25 885.764 2392.03 880.006 2401.11 859.736ZM2414.84 874.311 2392.06 880.069 2382.98 900.339 2405.76 894.58 2414.84 874.311ZM2428.61 888.756 2405.83 894.514 2396.75 914.784 2419.53 909.026 2428.61 888.756ZM2442.26 903.386 2419.48 909.144 2410.39 929.414 2433.17 923.655 2442.26 903.386ZM2455.99 917.96 2433.21 923.718 2424.12 943.988 2446.9 938.23 2455.99 917.96ZM2469.74 932.544 2446.96 938.303 2437.87 958.572 2460.66 952.814 2469.74 932.544ZM2483.38 947.174 2460.6 952.932 2451.52 973.202 2474.3 967.443 2483.38 947.174ZM2499.55 955.951 2496.95 961.748 2499.55 961.092 2499.55 955.951ZM2497.11 961.748 2474.33 967.507 2465.25 987.776 2488.03 982.018 2497.11 961.748ZM2499.55 979.061 2488.16 981.94 2479.07 1002.21 2499.55 997.034 2499.55 979.061ZM2499.55 1001.59 2492.72 1016.84 2499.55 1015.11 2499.55 1001.59ZM2369.41 885.764 2346.63 891.523 2337.55 911.792 2360.33 906.034 2369.41 885.764ZM2383.14 900.339 2360.36 906.097 2351.28 926.367 2374.06 920.608 2383.14 900.339ZM2396.91 914.784 2374.13 920.543 2365.05 940.812 2387.83 935.054 2396.91 914.784ZM2410.56 929.414 2387.77 935.172 2378.69 955.442 2401.47 949.683 2410.56 929.414ZM2424.29 943.988 2401.51 949.747 2392.42 970.016 2415.2 964.258 2424.29 943.988ZM2438.04 958.572 2415.26 964.331 2406.17 984.6 2428.95 978.842 2438.04 958.572ZM2451.68 973.202 2428.9 978.96 2419.82 999.23 2442.6 993.472 2451.68 973.202ZM2465.41 987.776 2442.63 993.535 2433.55 1013.8 2456.33 1008.05 2465.41 987.776ZM2479.24 1002.21 2456.45 1007.97 2447.37 1028.24 2470.15 1022.48 2479.24 1002.21ZM2492.88 1016.84 2470.1 1022.6 2461.02 1042.87 2483.8 1037.11 2492.88 1016.84ZM2499.55 1033.2 2483.83 1037.17 2474.75 1057.44 2497.53 1051.68 2499.55 1047.18 2499.55 1033.2ZM2499.55 1051.26 2497.58 1051.76 2488.5 1072.03 2499.55 1069.23 2499.55 1051.26ZM2392.59 970.016 2369.81 975.775 2360.73 996.027 2360.73 996.027 2360.73 996.027 2338.16 1001.73 2329.08 1022 2351.86 1016.24 2360.93 995.991 2383.5 990.286 2392.59 970.016ZM2406.34 984.6 2383.56 990.359 2374.48 1010.61 2374.48 1010.61 2374.48 1010.61 2351.91 1016.32 2342.83 1036.59 2365.61 1030.83 2374.68 1010.58 2397.25 1004.87 2406.34 984.6ZM2419.98 999.23 2397.2 1004.99 2388.12 1025.24 2365.55 1030.95 2356.47 1051.22 2379.25 1045.46 2388.33 1025.2 2388.33 1025.2 2388.33 1025.2 2410.9 1019.5 2419.98 999.23ZM2433.71 1013.8 2410.93 1019.56 2401.86 1039.82 2401.86 1039.82 2401.86 1039.82 2379.29 1045.52 2370.2 1065.79 2392.98 1060.03 2402.06 1039.78 2424.63 1034.07 2433.71 1013.8ZM2447.53 1028.24 2424.75 1034 2415.68 1054.25 2415.68 1054.25 2415.68 1054.25 2393.11 1059.95 2384.03 1080.22 2406.81 1074.47 2415.88 1054.21 2438.45 1048.51 2447.53 1028.24ZM2461.18 1042.87 2438.4 1048.63 2429.32 1068.88 2429.32 1068.88 2429.32 1068.88 2406.75 1074.58 2397.67 1094.85 2420.45 1089.09 2429.53 1068.84 2429.53 1068.84 2429.53 1068.84 2452.1 1063.14 2461.18 1042.87ZM2474.91 1057.44 2452.13 1063.2 2443.05 1083.45 2443.05 1083.45 2443.05 1083.45 2420.48 1089.16 2411.4 1109.43 2434.18 1103.67 2443.26 1083.42 2443.26 1083.42 2443.26 1083.42 2465.83 1077.71 2474.91 1057.44ZM2488.66 1072.03 2465.88 1077.78 2456.8 1098.04 2456.8 1098.04 2456.8 1098.04 2434.23 1103.74 2425.15 1124.01 2447.93 1118.25 2457.01 1098 2457.01 1098 2457.01 1098 2479.58 1092.3 2488.66 1072.03ZM2499.55 1087.35 2479.52 1092.41 2470.45 1112.67 2447.88 1118.37 2438.79 1138.64 2461.58 1132.88 2470.65 1112.63 2493.22 1106.93 2499.55 1092.81 2499.55 1087.35ZM2499.55 1105.4 2493.25 1106.99 2484.18 1127.24 2461.61 1132.95 2452.53 1153.22 2475.31 1147.46 2484.38 1127.2 2484.38 1127.2 2484.38 1127.2 2499.55 1123.37 2499.55 1105.4ZM2499.55 1138.12 2497.95 1141.69 2475.38 1147.39 2466.3 1167.66 2489.08 1161.9 2498.15 1141.65 2498.15 1141.65 2499.55 1141.3 2499.55 1141.3 2499.55 1138.12 2499.55 1138.12 2499.55 1138.12ZM2499.55 1159.36 2489.02 1162.02 2479.94 1182.29 2499.55 1177.33 2499.55 1159.36ZM2370.37 1065.79 2347.58 1071.55 2338.5 1091.82 2361.28 1086.06 2370.37 1065.79ZM2384.19 1080.22 2361.41 1085.98 2352.32 1106.25 2375.11 1100.49 2384.19 1080.22ZM2397.83 1094.85 2375.05 1100.61 2365.97 1120.88 2388.75 1115.12 2397.83 1094.85ZM2411.56 1109.43 2388.78 1115.19 2379.7 1135.46 2402.48 1129.7 2411.56 1109.43ZM2425.31 1124.01 2402.53 1129.77 2393.45 1150.04 2416.23 1144.28 2425.31 1124.01ZM2438.96 1138.64 2416.18 1144.4 2407.09 1164.67 2429.87 1158.91 2438.96 1138.64ZM2452.69 1153.22 2429.91 1158.97 2420.83 1179.24 2443.61 1173.49 2452.69 1153.22ZM2466.46 1167.66 2443.68 1173.42 2434.6 1193.69 2457.38 1187.93 2466.46 1167.66ZM2480.1 1182.29 2457.32 1188.05 2448.24 1208.32 2471.02 1202.56 2480.1 1182.29ZM2499.55 1183.75 2493.67 1196.87 2499.55 1195.38 2499.55 1183.75ZM2493.83 1196.87 2471.05 1202.62 2461.97 1222.89 2484.75 1217.14 2493.83 1196.87ZM2366.13 1120.88 2343.35 1126.64 2334.27 1146.91 2357.05 1141.15 2366.13 1120.88ZM2379.86 1135.46 2357.08 1141.21 2348 1161.48 2370.78 1155.73 2379.86 1135.46ZM2393.61 1150.04 2370.83 1155.8 2361.75 1176.07 2384.53 1170.31 2393.61 1150.04ZM2407.26 1164.67 2384.48 1170.43 2375.39 1190.7 2398.17 1184.94 2407.26 1164.67ZM2420.99 1179.24 2398.21 1185 2389.12 1205.27 2411.91 1199.51 2420.99 1179.24ZM2434.76 1193.69 2411.98 1199.45 2402.89 1219.72 2425.68 1213.96 2434.76 1193.69ZM2448.4 1208.32 2425.62 1214.08 2416.54 1234.35 2439.32 1228.59 2448.4 1208.32ZM2361.91 1176.07 2339.13 1181.83 2330.05 1202.1 2352.83 1196.34 2361.91 1176.07ZM2375.56 1190.7 2352.77 1196.46 2343.69 1216.73 2366.47 1210.97 2375.56 1190.7ZM2499.55 870.919 2496.61 871.662 2487.53 891.932 2499.55 888.893 2499.55 870.919ZM2460.31 862.728 2437.53 868.486 2428.45 888.756 2451.23 882.998 2460.31 862.728ZM2473.96 877.358 2451.18 883.116 2442.09 903.386 2464.87 897.627 2473.96 877.358ZM2487.69 891.932 2464.91 897.69 2455.82 917.96 2478.61 912.201 2487.69 891.932ZM2499.55 906.994 2478.66 912.275 2469.57 932.544 2492.36 926.786 2499.55 910.737 2499.55 906.994ZM2499.55 925.073 2492.3 926.904 2483.22 947.174 2499.55 943.046 2499.55 925.073Z" fill="#0099D5" fill-rule="evenodd"/><path d="M2326 868 2326 1217 2319.82 1214.02C2259.17 1180.98 2218 1116.56 2218 1042.5 2218 968.437 2259.17 904.015 2319.82 870.984L2326 868Z" fill="#0099D5" fill-rule="evenodd"/><path d="M2335 967 2334.96 967.242 2334 968 2334.03 967.761 2334.04 967.759 2334.04 967.758 2335 967Z" fill="#0099D5" fill-rule="evenodd"/><path d="M2348 982 2347.97 982.24 2347.97 982.24 2347.97 982.242 2347 983 2347.03 982.758 2348 982Z" fill="#0099D5" fill-rule="evenodd"/><path d="M2362 996 2361.96 996.242 2361 997 2361.03 996.759 2361.03 996.759 2361.03 996.758 2362 996Z" fill="#0099D5" fill-rule="evenodd"/><path d="M2376 1011 2375.96 1011.24 2375 1012 2375.03 1011.76 2375.03 1011.76 2375.04 1011.76 2376 1011Z" fill="#0099D5" fill-rule="evenodd"/><path d="M2389 1025 2388.97 1025.24 2388.97 1025.24 2388.97 1025.24 2388 1026 2388.03 1025.76 2389 1025Z" fill="#0099D5" fill-rule="evenodd"/><path d="M2403 1040 2402.97 1040.24 2402 1041 2402.03 1040.76 2402.03 1040.76 2402.04 1040.76 2403 1040Z" fill="#0099D5" fill-rule="evenodd"/><path d="M2417 1054 2416.96 1054.24 2416 1055 2416.03 1054.76 2416.03 1054.76 2416.03 1054.76 2417 1054Z" fill="#0099D5" fill-rule="evenodd"/><path d="M2431 1069 2430.96 1069.24 2430.96 1069.24 2430.96 1069.24 2430 1070 2430.03 1069.76 2430.03 1069.76 2430.04 1069.76 2431 1069Z" fill="#0099D5" fill-rule="evenodd"/><path d="M2444 1084 2443.97 1084.24 2443.96 1084.24 2443.96 1084.24 2443 1085 2443.03 1084.76 2443.03 1084.76 2443.04 1084.76 2444 1084Z" fill="#0099D5" fill-rule="evenodd"/><path d="M2458 1098 2457.97 1098.24 2457.96 1098.24 2457.96 1098.24 2457 1099 2457.03 1098.76 2457.03 1098.76 2457.04 1098.76 2458 1098Z" fill="#0099D5" fill-rule="evenodd"/><path d="M2472 1113 2471.97 1113.24 2471 1114 2471.03 1113.76 2472 1113Z" fill="#0099D5" fill-rule="evenodd"/><path d="M2485 1127 2484.97 1127.24 2484.96 1127.24 2484.96 1127.24 2484 1128 2484.03 1127.76 2485 1127Z" fill="#0099D5" fill-rule="evenodd"/><path d="M2500 1138 2500 1141.56 2498.25 1141.96 2498.26 1141.94 2498.26 1141.94 2498.26 1141.94 2498 1142 2500 1138Z" fill="#FFFFFF" fill-rule="evenodd"/><path d="M2499 1142 2498.96 1142.24 2498.96 1142.24 2498.96 1142.24 2498 1143 2498.03 1142.76 2499 1142Z" fill="#0099D5" fill-rule="evenodd"/><path d="M2484 861 2489.3 862.947C2559.06 892.529 2608 961.784 2608 1042.5 2608 1123.22 2559.06 1192.47 2489.3 1222.05L2484 1224 2484 861Z" fill="#0099D5" fill-rule="evenodd"/><path d="M2342 861 2342 1224 2336.87 1222.12C2267.01 1192.53 2218 1123.25 2218 1042.5 2218 961.754 2267.01 892.474 2336.87 862.881L2342 861Z" fill="#0099D5" fill-rule="evenodd"/><path d="M2218.5 1043.5C2218.5 935.804 2305.8 848.5 2413.5 848.5 2521.2 848.5 2608.5 935.804 2608.5 1043.5 2608.5 1151.2 2521.2 1238.5 2413.5 1238.5 2305.8 1238.5 2218.5 1151.2 2218.5 1043.5Z" stroke="#404040" stroke-width="1.14583" stroke-miterlimit="8" fill="none" fill-rule="evenodd"/></g></svg>