<svg width="397" height="397" xmlns="http://www.w3.org/2000/svg" xmlns:xlink="http://www.w3.org/1999/xlink" xml:space="preserve" overflow="hidden"><g transform="translate(-1912 -900)"><path d="M2110 903C2123.38 903 2136.44 904.364 2149.05 906.962L2158 909.277 2158 1286.72 2149.05 1289.04C2136.44 1291.64 2123.38 1293 2110 1293 2096.62 1293 2083.56 1291.64 2070.95 1289.04L2062 1286.72 2062 909.277 2070.95 906.962C2083.56 904.364 2096.62 903 2110 903Z" fill="#007A51" fill-rule="evenodd"/><path d="M2158 909 2167.7 911.494C2247.25 936.219 2305 1010.37 2305 1098 2305 1185.63 2247.25 1259.78 2167.7 1284.51L2158 1287 2158 909Z" fill="#FFFFFF" fill-rule="evenodd"/><path d="M2062 909 2062 1287 2052.3 1284.51C1972.75 1259.78 1915 1185.63 1915 1098 1915 1010.37 1972.75 936.219 2052.3 911.494L2062 909Z" fill="#FFFFFF" fill-rule="evenodd"/><path d="M2305.5 1098.5C2305.5 1206.2 2218.2 1293.5 2110.5 1293.5 2002.8 1293.5 1915.5 1206.2 1915.5 1098.5 1915.5 990.804 2002.8 903.5 2110.5 903.5 2218.2 903.5 2305.5 990.804 2305.5 1098.5Z" stroke="#404040" stroke-width="6.875" stroke-miterlimit="8" fill="none" fill-rule="evenodd"/><text fill="#007A51" font-family="DLRG Univers 55 Roman,DLRG Univers 55 Roman_MSFontService,sans-serif" font-weight="700" font-size="50" transform="matrix(6.12323e-17 1 -1 6.12323e-17 1995.94 967)">SACHSEN</text><text fill="#007A51" font-family="DLRG Univers 55 Roman,DLRG Univers 55 Roman_MSFontService,sans-serif" font-weight="700" font-size="50" transform="matrix(-1.83697e-16 -1 1 -1.83697e-16 2225.43 1222)">SACHSEN</text></g></svg>