<svg width="391" height="391" xmlns="http://www.w3.org/2000/svg" xmlns:xlink="http://www.w3.org/1999/xlink" xml:space="preserve" overflow="hidden"><g transform="translate(-1924 -827)"><path d="M1950.92 924.735C1985.63 864.27 2049.92 827 2119.5 827L2119.5 1022Z" fill="#E30613" fill-rule="evenodd"/><path d="M2288.16 924.516C2323.01 984.817 2323.03 1059.13 2288.21 1119.43L2119.44 1021.99Z" fill="#0569B4" fill-rule="evenodd"/><path d="M2288.08 1119.26C2253.37 1179.73 2189.09 1217 2119.5 1217L2119.5 1022Z" fill="#E30613" fill-rule="evenodd"/><path d="M1950.71 1119.47C1915.86 1059.17 1915.85 984.86 1950.67 924.552L2119.44 1021.99Z" fill="#0569B4" fill-rule="evenodd"/><path d="M1925.5 1022.5C1925.5 914.804 2012.58 827.5 2120 827.5 2227.42 827.5 2314.5 914.804 2314.5 1022.5 2314.5 1130.2 2227.42 1217.5 2120 1217.5 2012.58 1217.5 1925.5 1130.2 1925.5 1022.5Z" stroke="#404040" stroke-width="1.14583" stroke-miterlimit="8" fill="none" fill-rule="evenodd"/></g></svg>