<svg width="473" height="470" xmlns="http://www.w3.org/2000/svg" xmlns:xlink="http://www.w3.org/1999/xlink" xml:space="preserve" overflow="hidden"><g transform="translate(-1272 -367)"><path d="M1316 601.928C1316.04 494.261 1403.33 407 1511 407L1511 602Z" fill="#E30613" fill-rule="evenodd"/><path d="M1706 602.072C1705.96 709.739 1618.67 797 1511 797L1511 602Z" fill="#E30613" fill-rule="evenodd"/><path d="M1316.5 602.5C1316.5 494.804 1403.8 407.5 1511.5 407.5 1619.2 407.5 1706.5 494.804 1706.5 602.5 1706.5 710.195 1619.2 797.5 1511.5 797.5 1403.8 797.5 1316.5 710.195 1316.5 602.5Z" stroke="#404040" stroke-width="1.14583" stroke-miterlimit="8" fill="none" fill-rule="evenodd"/><text fill="#FFFFFF" font-family="DLRG Univers 55 Roman,DLRG Univers 55 Roman_MSFontService,sans-serif" font-weight="700" font-size="92" transform="matrix(-0.707107 0.707107 -0.707107 -0.707107 1413.26 468)">H</text><text fill="#FFFFFF" font-family="DLRG Univers 55 Roman,DLRG Univers 55 Roman_MSFontService,sans-serif" font-weight="700" font-size="92" transform="matrix(0.707107 -0.707107 0.707107 0.707107 1603.48 734)">H</text><text fill="#E30613" font-family="DLRG Univers 55 Roman,DLRG Univers 55 Roman_MSFontService,sans-serif" font-weight="700" font-size="92" transform="matrix(0.707107 0.707107 -0.707107 0.707107 1375.46 696)">H</text><text fill="#E30613" font-family="DLRG Univers 55 Roman,DLRG Univers 55 Roman_MSFontService,sans-serif" font-weight="700" font-size="92" transform="matrix(-0.707107 -0.707107 0.707107 -0.707107 1643.15 508)">H</text></g></svg>