<svg width="6241" height="6241" xmlns="http://www.w3.org/2000/svg" xmlns:xlink="http://www.w3.org/1999/xlink" xml:space="preserve" overflow="hidden"><g transform="translate(-128 -128)"><path d="M2736.5 173.5 2736.5 6324.5 2620.03 6303.69C2417.1 6262.16 2221.36 6200.9 2034.89 6122.01L1933.5 6076.16 1933.5 421.84 2034.89 375.989C2221.36 297.099 2417.1 235.841 2620.03 194.306L2736.5 173.5Z" stroke="#172C51" stroke-width="4.58333" stroke-miterlimit="8" fill="#FFFFFF" fill-rule="evenodd"/><path d="M3771.5 173.5 3877.36 192.409C4080.29 233.943 4276.03 295.199 4462.5 374.087L4574.5 424.735 4574.5 6069.27 4462.5 6119.91C4276.03 6198.8 4080.29 6260.06 3877.36 6301.59L3771.5 6320.5 3771.5 173.5Z" stroke="#172C51" stroke-width="4.58333" stroke-miterlimit="8" fill="#FFFFFF" fill-rule="evenodd"/><path d="M3248.69 130.5C3410.23 130.5 3568.9 142.769 3723.81 166.426L3771.5 174.937 3771.5 6322.06 3723.81 6330.57C3568.9 6354.23 3410.23 6366.5 3248.69 6366.5 3087.15 6366.5 2928.48 6354.23 2773.56 6330.57L2736.5 6323.96 2736.5 173.041 2773.56 166.426C2928.48 142.769 3087.15 130.5 3248.69 130.5Z" stroke="#172C51" stroke-width="4.58333" stroke-miterlimit="8" fill="#F98D00" fill-rule="evenodd"/><path d="M1933.5 421.5 1933.5 6075.5 1896.8 6058.91C851.697 5555.37 130.5 4486.15 130.5 3248.5 130.5 2010.85 851.697 941.627 1896.8 438.09L1933.5 421.5Z" stroke="#172C51" stroke-width="4.58333" stroke-miterlimit="8" fill="#F98D00" fill-rule="evenodd"/><path d="M4574.5 421.5 4600.58 433.293C5645.46 936.883 6366.5 2006.22 6366.5 3244 6366.5 4481.78 5645.46 5551.12 4600.58 6054.71L4574.5 6066.5 4574.5 421.5Z" stroke="#172C51" stroke-width="4.58333" stroke-miterlimit="8" fill="#F98D00" fill-rule="evenodd"/></g></svg>