<svg width="114" height="113" xmlns="http://www.w3.org/2000/svg" xmlns:xlink="http://www.w3.org/1999/xlink" xml:space="preserve" overflow="hidden"><g transform="translate(-583 -259)"><path d="M58.7886 115.249C27.6383 115.242 2.38216 90.0028 2.3541 58.8527L58.8018 58.8018Z" stroke="#000000" stroke-width="0.333334" stroke-miterlimit="8" fill="#FFFFFF" fill-rule="evenodd" transform="matrix(1.00885 0 0 1 580.681 256.701)"/><path d="M2.35415 58.7886C2.36143 27.6383 27.6008 2.38216 58.7509 2.35412L58.8018 58.8018Z" stroke="#000000" stroke-width="0.333334" stroke-miterlimit="8" fill-rule="evenodd" transform="matrix(1.00885 0 0 1 580.681 256.701)"/><path d="M58.815 2.35415C89.9653 2.36145 115.221 27.6008 115.249 58.7509L58.8018 58.8018Z" stroke="#000000" stroke-width="0.333334" stroke-miterlimit="8" fill="#FFFFFF" fill-rule="evenodd" transform="matrix(1.00885 0 0 1 580.681 256.701)"/><path d="M115.249 58.815C115.242 89.9653 90.0028 115.221 58.8527 115.249L58.8018 58.8018Z" stroke="#000000" stroke-width="0.333334" stroke-miterlimit="8" fill-rule="evenodd" transform="matrix(1.00885 0 0 1 580.681 256.701)"/></g></svg>