<svg width="1170" height="1171" xmlns="http://www.w3.org/2000/svg" xmlns:xlink="http://www.w3.org/1999/xlink" xml:space="preserve" overflow="hidden"><defs><clipPath id="clip0"><rect x="1483" y="332" width="1170" height="1171"/></clipPath></defs><g clip-path="url(#clip0)" transform="translate(-1483 -332)"><path d="M1483 917C1483 674.685 1630.33 466.779 1840.29 377.972L1873 366 1873 1468 1840.29 1456.03C1630.33 1367.22 1483 1159.32 1483 917Z" fill="#002654" fill-rule="evenodd"/><path d="M1873 1468 1873 366.001 1894.04 358.3C1948.99 341.208 2007.42 332 2068 332 2108.39 332 2147.82 336.092 2185.9 343.885L2263 367.819 2263 1466.18 2185.9 1490.11C2147.82 1497.91 2108.39 1502 2068 1502 2007.42 1502 1948.99 1492.79 1894.04 1475.7Z" fill="#FFFFFF" fill-rule="evenodd"/><path d="M551 0C793.315 0 1001.22 146.949 1090.03 356.376L1102 389 0 389 11.9712 356.376C100.779 146.949 308.684 0 551 0Z" fill="#CE1126" fill-rule="evenodd" transform="matrix(-1.83697e-16 -1 -1 1.83697e-16 2652 1468)"/><path d="M1483.5 917.5C1483.5 594.413 1745.19 332.5 2068 332.5 2390.81 332.5 2652.5 594.413 2652.5 917.5 2652.5 1240.59 2390.81 1502.5 2068 1502.5 1745.19 1502.5 1483.5 1240.59 1483.5 917.5Z" stroke="#000000" stroke-width="1.14583" stroke-miterlimit="8" fill="none" fill-rule="evenodd"/></g></svg>