<svg width="1560" height="1559" xmlns="http://www.w3.org/2000/svg" xmlns:xlink="http://www.w3.org/1999/xlink" xml:space="preserve" overflow="hidden"><defs><clipPath id="clip0"><rect x="1420" y="458" width="1560" height="1559"/></clipPath></defs><g clip-path="url(#clip0)" transform="translate(-1420 -458)"><path d="M1420 1237.5C1420 806.994 1769.22 458 2200 458 2630.78 458 2980 806.994 2980 1237.5 2980 1668.01 2630.78 2017 2200 2017 1769.22 2017 1420 1668.01 1420 1237.5Z" fill="#575756" fill-rule="evenodd"/><g><g><g><g><path d="M7706.72 4251.92C7706.72 3882.84 8006.67 3583.64 8376.72 3583.64 8746.76 3583.64 9046.72 3882.84 9046.72 4251.92 9046.72 4621.01 8746.76 4920.21 8376.72 4920.21 8006.67 4920.21 7706.72 4621.01 7706.72 4251.92Z" fill="#575756" fill-rule="evenodd" transform="matrix(1 0 0 1.00033 -6176.72 -3015.81)"/><path d="M8212.38 4133.38 8462.75 4133.38C8474.47 4133.38 8483.95 4142.76 8483.95 4154.34L8483.95 4188.91 8483.95 4188.91 8483.95 4603.21 8539.48 4603.21C8550.16 4603.21 8558.82 4611.76 8558.82 4622.35L8558.82 4660.55C8558.82 4671.14 8550.16 4679.69 8539.48 4679.69L8448.46 4679.69 8448.46 4679.69 8306.45 4679.69 8306.45 4679.69 8210.52 4679.69C8199.84 4679.69 8191.18 4671.14 8191.18 4660.55L8191.18 4622.35C8191.18 4611.76 8199.84 4603.21 8210.52 4603.21L8270.96 4603.21 8270.96 4209.87 8212.38 4209.87C8200.66 4209.87 8191.18 4200.49 8191.18 4188.91L8191.18 4154.34C8191.18 4142.76 8200.66 4133.38 8212.38 4133.38Z" fill="#FFFFFF" fill-rule="evenodd" transform="matrix(1 0 0 1.00033 -6176.72 -3015.81)"/><path d="M8228.97 3913.49C8228.97 3831.88 8295.12 3765.74 8376.72 3765.74 8458.32 3765.74 8524.46 3831.88 8524.46 3913.49 8524.46 3995.09 8458.32 4061.23 8376.72 4061.23 8295.12 4061.23 8228.97 3995.09 8228.97 3913.49Z" fill="#FFFFFF" fill-rule="evenodd" transform="matrix(1 0 0 1.00033 -6176.72 -3015.81)"/></g></g></g></g></g></svg>