<svg width="498" height="498" xmlns="http://www.w3.org/2000/svg" xmlns:xlink="http://www.w3.org/1999/xlink" xml:space="preserve" overflow="hidden"><g transform="translate(-391 -103)"><path d="M639.481 523.188C559.075 523.188 494.231 458.344 494.231 377.938 494.231 297.531 559.075 232.688 639.481 232.688 719.888 232.688 784.731 297.531 784.731 377.938L784.731 377.938C784.731 458.344 719.888 523.188 639.481 523.188ZM762.425 251.363 777.987 235.8C783.694 229.575 783.694 219.719 777.469 214.012 771.244 208.306 761.906 207.788 755.681 213.494L738.044 231.65C713.144 215.05 684.612 204.675 655.044 202.6L655.044 180.812 701.731 180.812 701.731 149.688 577.231 149.688 577.231 180.812 623.919 180.812 623.919 202.081C526.394 210.381 454.806 296.494 463.106 393.5 471.406 490.506 557.519 562.612 654.525 554.312 751.531 546.013 823.638 459.9 815.338 362.894 811.706 320.356 793.031 280.931 762.425 251.363Z" fill="#D9D9D9"/><path d="M551.294 466.125C600.056 514.888 678.906 514.888 727.15 466.125 775.394 417.362 775.912 338.513 727.15 290.269 703.806 266.925 672.162 253.956 639.481 253.956L639.481 378.456 551.294 466.125Z" fill="#D9D9D9"/></g></svg>