<svg width="650" height="650" xmlns="http://www.w3.org/2000/svg" xmlns:xlink="http://www.w3.org/1999/xlink" xml:space="preserve" overflow="hidden"><defs><clipPath id="clip0"><rect x="1453" y="696" width="650" height="650"/></clipPath></defs><g clip-path="url(#clip0)" transform="translate(-1453 -696)"><path d="M1778 696C1957.49 696 2103 841.454 2103 1020.88L2103 1021.12C2103 1200.55 1957.49 1346 1778 1346 1598.51 1346 1453 1200.55 1453 1021.12L1453 1020.88C1453 841.454 1598.51 696 1778 696ZM1958.01 861.375C1954.53 861.396 1951.07 862.742 1948.43 865.409L1723.63 1092.85 1612.1 981.359C1605.49 974.744 1594.76 974.744 1588.14 981.359L1544.13 1025.35C1537.52 1031.97 1537.52 1042.69 1544.13 1049.31L1665.3 1170.43 1665.6 1170.88 1677.86 1182.99 1709.08 1214.2 1710.24 1214.96 1711.37 1216.08C1716.7 1221.35 1725.3 1221.29 1730.57 1215.96L1730.92 1215.61 1733.05 1214.2 1777.06 1170.2 1779.64 1166.32 2013.52 929.691C2018.79 924.358 2018.74 915.763 2013.4 910.494L1967.64 865.293C1964.97 862.659 1961.49 861.354 1958.01 861.375Z" fill="#008800" fill-rule="evenodd"/></g></svg>