<svg width="331" height="329" xmlns="http://www.w3.org/2000/svg" xmlns:xlink="http://www.w3.org/1999/xlink" xml:space="preserve" overflow="hidden"><defs><clipPath id="clip0"><rect x="1724" y="973" width="331" height="329"/></clipPath></defs><g clip-path="url(#clip0)" transform="translate(-1724 -973)"><path d="M1847.73 1011.5C1800.68 1011.5 1762.54 1049.01 1762.54 1095.28 1762.54 1141.55 1800.68 1179.06 1847.73 1179.06 1894.78 1179.06 1932.92 1141.55 1932.92 1095.28 1932.92 1049.01 1894.78 1011.5 1847.73 1011.5ZM1847.73 973C1916.06 973 1971.46 1027.75 1971.46 1095.28 1971.46 1124.83 1960.85 1151.93 1943.2 1173.06L1941.98 1174.4 1947.62 1180.11 1962.12 1180.07 1962.15 1180.04 2055 1273.58 2026.31 1302 1933.46 1208.46 1933.43 1208.49 1933.6 1192.99 1928.47 1187.8 1926.43 1189.64C1905.04 1207.08 1877.62 1217.56 1847.73 1217.56 1779.39 1217.56 1724 1162.81 1724 1095.28 1724 1027.75 1779.39 973 1847.73 973Z" fill="#FFFFFF" fill-rule="evenodd" fill-opacity="0.8"/></g></svg>