<svg width="436" height="436" xmlns="http://www.w3.org/2000/svg" xmlns:xlink="http://www.w3.org/1999/xlink" xml:space="preserve" overflow="hidden"><g transform="translate(-422 -142)"><path d="M639.546 509.875C569.15 509.875 512.379 453.104 512.379 382.708 512.379 312.312 569.15 255.542 639.546 255.542 709.942 255.542 766.713 312.312 766.713 382.708L766.713 382.708C766.713 453.104 709.942 509.875 639.546 509.875ZM747.183 271.892 760.808 258.267C765.804 252.817 765.804 244.188 760.354 239.192 754.904 234.196 746.729 233.742 741.279 238.737L725.838 254.633C704.037 240.1 679.058 231.017 653.171 229.2L653.171 210.125 694.046 210.125 694.046 182.875 585.046 182.875 585.046 210.125 625.921 210.125 625.921 228.746C540.537 236.012 477.862 311.404 485.129 396.333 492.396 481.262 567.787 544.392 652.717 537.125 737.646 529.858 800.775 454.467 793.508 369.537 790.329 332.296 773.979 297.779 747.183 271.892Z" fill="#B4E564"/><path d="M562.338 459.917C605.029 502.608 674.062 502.608 716.3 459.917 758.537 417.225 758.992 348.192 716.3 305.954 695.862 285.517 668.158 274.162 639.546 274.162L639.546 383.162 562.338 459.917Z" fill="#B4E564"/></g></svg>