<svg width="1288" height="1287" xmlns="http://www.w3.org/2000/svg" xmlns:xlink="http://www.w3.org/1999/xlink" xml:space="preserve" overflow="hidden"><g transform="translate(-1556 -594)"><path d="M2200 594.151C2555.18 594.151 2843.11 882.081 2843.11 1237.26L2843.11 1237.74C2843.11 1592.92 2555.18 1880.85 2200 1880.85 1844.82 1880.85 1556.89 1592.92 1556.89 1237.74L1556.89 1237.26C1556.89 882.081 1844.82 594.151 2200 594.151ZM2498.18 965.476C2492.41 965.511 2486.65 967.749 2482.26 972.183L2108.63 1350.34 1923.26 1164.97C1912.27 1153.97 1894.44 1153.97 1883.44 1164.97L1810.29 1238.12C1799.29 1249.12 1799.29 1266.95 1810.29 1277.95L2011.68 1479.33 2012.18 1480.08 2032.56 1500.22 2084.45 1552.11 2086.37 1553.38 2088.24 1555.23C2097.11 1563.99 2111.4 1563.91 2120.16 1555.04L2120.74 1554.46 2124.28 1552.11 2197.43 1478.96 2201.72 1472.5 2590.44 1079.06C2599.2 1070.2 2599.12 1055.91 2590.25 1047.14L2514.18 971.99C2509.75 967.61 2503.96 965.441 2498.18 965.476Z" fill="#008800" fill-rule="evenodd"/></g></svg>