<svg width="1170" height="1171" xmlns="http://www.w3.org/2000/svg" xmlns:xlink="http://www.w3.org/1999/xlink" xml:space="preserve" overflow="hidden"><defs><clipPath id="clip0"><rect x="1483" y="332" width="1170" height="1171"/></clipPath></defs><g clip-path="url(#clip0)" transform="translate(-1483 -332)"><path d="M1483 917 2652 917C2652 1240.09 2390.31 1502 2067.5 1502 1744.69 1502 1483 1240.09 1483 917Z" fill="#DC143C" fill-rule="evenodd"/><path d="M0 0 1169 0C1169 323.086 907.31 585 584.5 585 261.69 585 0 323.086 0 0Z" fill="#FFFFFF" fill-rule="evenodd" transform="matrix(1 0 0 -1 1483 917)"/><path d="M1483.5 917.5C1483.5 594.413 1745.19 332.5 2068 332.5 2390.81 332.5 2652.5 594.413 2652.5 917.5 2652.5 1240.59 2390.81 1502.5 2068 1502.5 1745.19 1502.5 1483.5 1240.59 1483.5 917.5Z" stroke="#000000" stroke-width="1.14583" stroke-miterlimit="8" fill="none" fill-rule="evenodd"/></g></svg>