<svg width="6236" height="6236" xmlns="http://www.w3.org/2000/svg" xmlns:xlink="http://www.w3.org/1999/xlink" xml:space="preserve" overflow="hidden"><defs><clipPath id="clip0"><rect x="137" y="130" width="6236" height="6236"/></clipPath></defs><g clip-path="url(#clip0)" transform="translate(-137 -130)"><path d="M3255.41 130C3578.34 130 3889.81 179.077 4182.76 270.179L4288 305.784 4288 6190.22 4182.76 6225.82C3889.81 6316.92 3578.34 6366 3255.41 6366 2932.48 6366 2621.01 6316.92 2328.06 6225.82L2209 6185.54 2209 310.459 2328.06 270.179C2621.01 179.077 2932.48 130 3255.41 130Z" fill="#FFED00" fill-rule="evenodd"/><path d="M4288 306 4327.64 319.415C5521.2 756.525 6373 1902.77 6373 3248 6373 4593.23 5521.2 5739.48 4327.64 6176.59L4288 6190 4288 306Z" fill="#7030A0" fill-rule="evenodd"/><path d="M2209 311 2209 6186 2183.17 6177.26C989.136 5740.12 137 4593.81 137 3248.5 137 1903.19 989.136 756.876 2183.17 319.74L2209 311Z" fill="#7030A0" fill-rule="evenodd"/></g></svg>