<svg width="391" height="390" xmlns="http://www.w3.org/2000/svg" xmlns:xlink="http://www.w3.org/1999/xlink" xml:space="preserve" overflow="hidden"><defs><clipPath id="clip0"><rect x="2005" y="1043" width="391" height="390"/></clipPath></defs><g clip-path="url(#clip0)" transform="translate(-2005 -1043)"><path d="M2200 1043C2226.93 1043 2252.59 1048.44 2275.93 1058.28L2287 1063.6 2287 1411.4 2275.93 1416.72C2252.59 1426.56 2226.93 1432 2200 1432 2173.07 1432 2147.41 1426.56 2124.07 1416.72L2113 1411.4 2113 1063.6 2124.07 1058.28C2147.41 1048.44 2173.07 1043 2200 1043Z" fill="#FFFFFF" fill-rule="evenodd"/><path d="M2287 1063 2292.98 1065.88C2353.75 1098.93 2395 1163.39 2395 1237.5 2395 1311.61 2353.75 1376.07 2292.98 1409.12L2287 1412 2287 1063Z" fill="#33CCFF" fill-rule="evenodd"/><path d="M2113 1063 2113 1412 2107.02 1409.12C2046.25 1376.07 2005 1311.61 2005 1237.5 2005 1163.39 2046.25 1098.93 2107.02 1065.88L2113 1063Z" fill="#33CCFF" fill-rule="evenodd"/><path d="M2005.5 1238C2005.5 1130.58 2092.8 1043.5 2200.5 1043.5 2308.2 1043.5 2395.5 1130.58 2395.5 1238 2395.5 1345.42 2308.2 1432.5 2200.5 1432.5 2092.8 1432.5 2005.5 1345.42 2005.5 1238Z" stroke="#404040" stroke-width="1.14583" stroke-miterlimit="8" fill="none" fill-rule="evenodd"/></g></svg>