<svg width="6236" height="6236" xmlns="http://www.w3.org/2000/svg" xmlns:xlink="http://www.w3.org/1999/xlink" xml:space="preserve" overflow="hidden"><defs><clipPath id="clip0"><rect x="137" y="130" width="6236" height="6236"/></clipPath></defs><g clip-path="url(#clip0)" transform="translate(-137 -130)"><path d="M137 3248C137 1525.98 1532.98 130 3255 130 4977.02 130 6373 1525.98 6373 3248 6373 4970.02 4977.02 6366 3255 6366 1532.98 6366 137 4970.02 137 3248Z" fill="#FFED00" fill-rule="evenodd"/><path d="M4748.17 664.291C5670.87 1197.12 6239.74 2181.12 6241 3246.48L3254.5 3250Z" fill-rule="evenodd"/><path d="M4747.17 5836.49C3824.36 6368.98 2687.77 6369.51 1764.47 5837.89L3254.6 3249.88Z" fill-rule="evenodd"/><path d="M262.262 3245.72C262.511 2180.31 830.344 1195.72 1752.39 661.925L3248.61 3246.42Z" fill-rule="evenodd"/><path d="M2274 3249.5C2274 2711.3 2710.3 2275 3248.5 2275 3786.7 2275 4223 2711.3 4223 3249.5 4223 3787.7 3786.7 4224 3248.5 4224 2710.3 4224 2274 3787.7 2274 3249.5Z" fill="#FFED00" fill-rule="evenodd"/><path d="M2599 3246.5C2599 2887.79 2889.79 2597 3248.5 2597 3607.21 2597 3898 2887.79 3898 3246.5 3898 3605.21 3607.21 3896 3248.5 3896 2889.79 3896 2599 3605.21 2599 3246.5Z" fill-rule="evenodd"/></g></svg>