<?xml version="1.0" encoding="UTF-8" standalone="no"?>
<svg xmlns="http://www.w3.org/2000/svg" width="1070" height="1070" viewBox="92 84 1070 1070">
  <title>SAAR-Kappe – Vektorgrafik</title>
  <desc>Vektorisierte Draufsicht der schwarzen Kappe mit neongrün-weißem Muster, mittigem SAAR-Schriftzug und X-Markierung.</desc>
  <defs>
    <clipPath id="capClip">
      <circle cx="627" cy="619" r="535"/>
    </clipPath>
  </defs>
  <circle cx="627" cy="619" r="535" fill="#050505"/>
  <g clip-path="url(#capClip)">
    <path d="M 784 1015 L 784 1020 L 785 1021 L 785 1029 L 786 1030 L 786 1037 L 787 1039 L 803 1022 L 796 1020 L 795 1019 L 793 1019 L 790 1017 L 788 1017 Z M 468 1015 L 462 1018 L 460 1018 L 459 1019 L 457 1019 L 450 1022 L 453 1025 L 453 1026 L 466 1039 L 466 1035 L 467 1034 L 467 1025 L 468 1024 Z M 865 979 L 866 979 L 869 982 L 872 983 L 874 985 L 878 985 L 878 982 L 877 981 L 877 978 L 876 976 L 873 976 L 872 977 L 866 978 Z M 374 985 L 378 985 L 389 978 L 385 978 L 384 977 L 380 977 L 379 976 L 377 976 L 376 977 Z M 993 974 L 989 974 L 988 975 L 983 975 L 982 976 L 980 976 L 981 984 L 983 984 Z M 260 973 L 270 983 L 272 983 L 273 975 L 271 975 L 270 974 L 262 974 Z M 378 969 L 378 971 L 385 974 L 388 974 L 391 976 L 395 975 L 397 973 L 400 972 L 400 971 L 398 971 L 394 969 L 391 969 L 390 968 L 387 968 L 386 967 L 383 967 L 382 966 L 379 966 L 379 968 Z M 875 970 L 874 969 L 874 966 L 873 965 L 869 967 L 866 967 L 865 968 L 862 968 L 861 969 L 853 971 L 853 972 L 860 976 L 862 976 L 865 974 L 870 973 Z M 1009 956 L 1007 956 L 1006 957 L 1001 957 L 1000 958 L 995 958 L 994 959 L 990 959 L 989 961 L 979 970 L 999 967 L 1008 958 Z M 244 955 L 246 957 L 246 958 L 255 967 L 261 967 L 262 968 L 269 968 L 270 969 L 272 969 L 271 967 L 269 966 L 263 960 L 262 958 L 256 958 L 255 957 L 250 957 L 249 956 L 245 956 Z M 821 952 L 828 957 L 831 958 L 833 960 L 835 960 L 842 957 L 848 952 L 847 951 L 828 951 L 827 952 Z M 402 952 L 406 954 L 408 954 L 410 956 L 418 960 L 423 958 L 428 954 L 431 953 L 431 952 L 425 952 L 424 951 L 405 951 L 404 952 Z M 872 960 L 871 959 L 871 956 L 870 955 L 869 949 L 864 949 L 863 950 L 859 950 L 858 951 L 855 951 L 853 952 L 848 958 L 845 959 L 843 961 L 839 962 L 839 963 L 841 965 L 846 967 L 848 969 L 850 969 L 850 967 L 853 965 L 856 965 L 857 964 L 860 964 L 861 963 L 866 963 L 869 961 L 872 961 Z M 381 958 L 381 961 L 383 962 L 389 963 L 390 964 L 396 964 L 397 965 L 401 966 L 404 969 L 408 967 L 410 965 L 413 964 L 415 962 L 413 962 L 407 959 L 405 957 L 402 956 L 399 953 L 397 953 L 394 951 L 391 951 L 387 949 L 384 949 L 383 951 L 383 954 Z M 228 936 L 234 943 L 234 944 L 239 949 L 243 949 L 244 950 L 248 950 L 249 951 L 253 951 L 254 952 L 256 952 L 243 939 L 243 938 L 237 938 L 236 937 Z M 1027 935 L 1026 936 L 1022 936 L 1021 937 L 1017 937 L 1016 938 L 1012 938 L 1010 939 L 1010 940 L 999 951 L 998 951 L 998 952 L 1016 948 Z M 864 930 L 860 930 L 859 931 L 855 931 L 854 932 L 847 932 L 846 933 L 843 933 L 841 935 L 840 935 L 840 936 L 835 941 L 833 940 L 833 936 L 829 940 L 828 940 L 820 949 L 826 949 L 827 948 L 840 948 L 841 947 L 852 947 L 853 946 L 857 946 L 858 945 L 865 944 L 867 943 L 867 942 L 866 941 L 866 937 L 864 933 Z M 385 943 L 388 945 L 391 945 L 392 946 L 395 946 L 396 947 L 403 947 L 404 948 L 426 948 L 427 949 L 433 949 L 420 936 L 420 940 L 418 942 L 415 939 L 415 938 L 409 933 L 397 932 L 396 931 L 393 931 L 392 930 L 389 930 L 389 932 L 387 936 L 387 939 Z M 1036 917 L 1030 917 L 1018 931 L 1021 931 L 1022 930 L 1025 930 L 1026 929 L 1032 928 L 1036 923 Z M 217 916 L 217 922 L 223 929 L 231 930 L 232 931 L 236 931 L 230 925 L 230 924 L 224 918 L 223 916 Z M 860 916 L 859 915 L 849 925 L 849 926 L 857 926 L 858 925 L 862 925 Z M 393 915 L 392 921 L 391 922 L 391 925 L 393 925 L 394 926 L 403 926 L 404 927 L 401 922 L 394 915 Z M 833 846 L 834 847 L 837 847 L 838 846 L 843 846 L 845 845 L 842 845 L 841 844 L 836 844 L 834 843 Z M 419 847 L 419 843 L 408 845 L 410 846 L 413 846 L 414 847 Z M 833 819 L 833 838 L 836 840 L 839 840 L 840 841 L 844 841 L 845 842 L 848 842 L 849 843 L 853 843 L 855 844 L 856 843 L 869 842 L 870 841 L 875 841 L 876 840 L 881 840 L 882 839 L 887 839 L 888 838 L 894 838 L 895 837 L 904 836 L 901 836 L 900 835 L 897 835 L 896 834 L 892 834 L 891 833 L 888 833 L 887 832 L 883 832 L 882 831 L 879 831 L 878 830 L 875 830 L 874 829 L 871 829 L 870 828 L 867 828 L 866 827 L 863 827 L 862 826 L 859 826 L 858 825 L 855 825 L 854 824 L 851 824 L 850 823 L 847 823 L 846 822 L 843 822 L 842 821 L 839 821 L 838 820 L 835 820 Z M 420 819 L 414 820 L 413 821 L 410 821 L 409 822 L 406 822 L 405 823 L 402 823 L 401 824 L 398 824 L 397 825 L 394 825 L 393 826 L 390 826 L 389 827 L 386 827 L 385 828 L 382 828 L 381 829 L 378 829 L 377 830 L 374 830 L 373 831 L 370 831 L 369 832 L 360 833 L 359 834 L 356 834 L 355 835 L 352 835 L 350 836 L 360 837 L 361 838 L 366 838 L 367 839 L 377 840 L 378 841 L 390 842 L 391 843 L 397 843 L 398 844 L 400 844 L 401 843 L 405 843 L 409 841 L 413 841 L 414 840 L 417 840 L 419 839 L 420 837 Z M 871 807 L 875 808 L 876 809 L 879 809 L 882 811 L 885 811 L 886 812 L 892 813 L 893 814 L 895 814 L 902 817 L 905 817 L 912 820 L 919 821 L 920 822 L 926 823 L 927 824 L 930 824 L 931 825 L 931 824 L 925 821 L 918 815 L 904 806 L 880 806 L 879 807 Z M 800 793 L 800 797 L 801 798 L 801 809 L 805 809 L 806 810 L 810 810 L 811 811 L 815 811 L 816 812 L 820 812 L 821 813 L 831 814 L 833 816 L 833 817 L 837 817 L 838 818 L 841 818 L 842 819 L 846 819 L 847 820 L 850 820 L 851 821 L 854 821 L 855 822 L 858 822 L 859 823 L 862 823 L 863 824 L 866 824 L 867 825 L 871 825 L 875 827 L 879 827 L 880 828 L 883 828 L 884 829 L 893 830 L 894 831 L 902 832 L 903 833 L 906 833 L 907 834 L 910 834 L 911 835 L 916 835 L 917 834 L 918 835 L 923 835 L 924 836 L 928 836 L 929 837 L 936 837 L 940 832 L 934 831 L 930 829 L 926 829 L 925 828 L 919 827 L 915 825 L 912 825 L 911 824 L 909 824 L 908 823 L 906 823 L 905 822 L 903 822 L 902 821 L 900 821 L 899 820 L 897 820 L 890 817 L 887 817 L 886 816 L 884 816 L 883 815 L 881 815 L 880 814 L 878 814 L 871 811 L 868 811 L 867 810 L 865 810 L 858 807 L 855 807 L 851 805 L 848 805 L 847 804 L 840 803 L 836 801 L 828 800 L 827 799 L 824 799 L 823 798 L 820 798 L 819 797 L 816 797 L 815 796 L 812 796 L 811 795 Z M 453 793 L 445 794 L 444 795 L 440 795 L 439 796 L 436 796 L 432 798 L 429 798 L 428 799 L 425 799 L 424 800 L 419 800 L 418 801 L 412 802 L 408 804 L 401 805 L 400 806 L 394 807 L 390 809 L 387 809 L 386 810 L 384 810 L 383 811 L 381 811 L 380 812 L 378 812 L 377 813 L 375 813 L 374 814 L 372 814 L 371 815 L 369 815 L 368 816 L 366 816 L 365 817 L 363 817 L 362 818 L 360 818 L 359 819 L 357 819 L 356 820 L 354 820 L 353 821 L 351 821 L 344 824 L 341 824 L 337 826 L 334 826 L 333 827 L 330 827 L 329 828 L 326 828 L 325 829 L 322 829 L 321 830 L 313 832 L 316 834 L 317 833 L 319 833 L 320 834 L 320 836 L 321 835 L 323 836 L 326 836 L 329 834 L 345 834 L 346 833 L 354 832 L 355 831 L 358 831 L 359 830 L 363 830 L 364 829 L 367 829 L 368 828 L 372 828 L 373 827 L 376 827 L 377 826 L 380 826 L 381 825 L 385 825 L 389 823 L 393 823 L 394 822 L 397 822 L 401 820 L 405 820 L 406 819 L 409 819 L 410 818 L 418 817 L 422 814 L 426 814 L 427 813 L 431 813 L 432 812 L 441 811 L 442 810 L 445 810 L 446 809 L 450 809 L 452 808 L 452 794 Z M 799 770 L 800 788 L 804 788 L 805 789 L 808 789 L 809 790 L 812 790 L 813 791 L 824 793 L 828 795 L 833 795 L 837 797 L 848 799 L 855 802 L 859 802 L 860 803 L 863 803 L 864 804 L 877 804 L 878 803 L 895 802 L 886 795 L 869 786 L 868 787 L 867 786 L 862 786 L 861 785 L 850 784 L 849 783 L 846 783 L 845 782 L 834 780 L 831 778 L 828 778 L 827 777 L 824 777 L 823 776 L 820 776 L 819 775 L 816 775 L 812 773 L 809 773 L 808 772 L 805 772 L 804 771 L 800 771 Z M 454 770 L 448 771 L 447 772 L 444 772 L 443 773 L 440 773 L 436 775 L 429 776 L 428 777 L 422 778 L 421 779 L 418 779 L 417 780 L 413 780 L 412 781 L 409 781 L 408 782 L 405 782 L 404 783 L 394 784 L 393 785 L 389 785 L 388 786 L 384 786 L 383 787 L 381 787 L 375 790 L 365 797 L 362 798 L 360 800 L 359 800 L 358 802 L 389 801 L 390 802 L 389 803 L 386 803 L 382 805 L 372 805 L 371 806 L 348 806 L 339 813 L 336 814 L 331 818 L 328 819 L 325 822 L 321 824 L 321 825 L 323 824 L 331 823 L 332 822 L 335 822 L 336 821 L 339 821 L 340 820 L 343 820 L 344 819 L 347 819 L 348 818 L 350 818 L 351 817 L 353 817 L 354 816 L 356 816 L 357 815 L 359 815 L 360 814 L 362 814 L 363 813 L 365 813 L 366 812 L 368 812 L 369 811 L 383 807 L 385 805 L 387 805 L 389 803 L 394 803 L 399 800 L 402 800 L 403 799 L 406 799 L 407 798 L 411 798 L 412 797 L 416 797 L 417 796 L 420 796 L 421 795 L 425 795 L 429 793 L 436 792 L 439 790 L 443 790 L 444 789 L 452 788 L 453 786 L 453 771 Z M 422 788 L 423 787 L 425 787 L 429 789 L 428 790 L 423 790 Z M 798 749 L 798 760 L 799 761 L 799 764 L 800 765 L 806 766 L 807 767 L 810 767 L 811 768 L 817 769 L 818 770 L 821 770 L 822 771 L 825 771 L 826 772 L 829 772 L 832 774 L 836 774 L 837 775 L 840 775 L 841 776 L 844 776 L 845 777 L 848 777 L 849 778 L 860 780 L 853 775 L 848 773 L 843 769 L 840 768 L 837 765 L 834 764 L 829 760 L 824 758 L 819 754 Z M 455 748 L 454 749 L 447 750 L 443 752 L 435 753 L 430 757 L 422 761 L 417 765 L 414 766 L 412 768 L 409 769 L 404 773 L 401 774 L 399 776 L 396 777 L 392 780 L 394 780 L 395 779 L 399 779 L 400 778 L 404 778 L 405 777 L 408 777 L 409 776 L 412 776 L 413 775 L 416 775 L 417 774 L 421 774 L 423 772 L 427 772 L 428 771 L 431 771 L 432 770 L 435 770 L 436 769 L 439 769 L 443 767 L 446 767 L 447 766 L 453 765 L 454 764 Z M 797 741 L 798 743 L 805 745 Z M 455 741 L 448 745 L 452 743 L 455 743 Z M 1075 692 L 1070 692 L 1068 693 L 1070 696 L 1070 698 L 1072 702 L 1074 700 L 1075 700 Z M 197 671 L 194 676 L 194 678 L 192 681 L 192 683 L 190 687 L 192 688 L 195 688 L 196 689 L 200 689 L 201 690 L 205 690 L 206 691 L 210 691 L 211 692 L 215 692 L 216 693 L 218 693 L 218 683 L 219 682 L 219 675 L 216 673 L 212 673 L 211 672 L 206 672 L 205 671 Z M 1056 670 L 1054 670 L 1053 671 L 1049 671 L 1048 672 L 1045 672 L 1044 673 L 1034 674 L 1034 685 L 1035 686 L 1035 692 L 1047 691 L 1048 690 L 1052 690 L 1053 689 L 1057 689 L 1058 688 L 1061 688 L 1063 687 L 1062 682 L 1060 679 L 1060 677 Z M 203 655 L 199 666 L 206 669 L 209 669 L 210 670 L 213 670 L 214 671 L 219 671 L 219 665 L 220 664 L 219 662 L 220 661 L 220 656 Z M 1049 654 L 1048 655 L 1038 655 L 1037 656 L 1034 656 L 1033 655 L 1033 665 L 1034 666 L 1034 670 L 1037 670 L 1038 669 L 1043 669 L 1044 668 L 1048 668 L 1049 667 L 1052 667 L 1054 666 L 1053 661 Z M 175 647 L 161 664 L 161 665 L 152 676 L 150 680 L 153 685 L 159 692 L 161 696 L 170 707 L 170 708 L 171 708 L 176 712 L 176 700 L 177 699 L 177 697 L 178 696 L 179 697 L 179 703 L 181 704 L 183 701 L 183 699 L 186 692 L 179 692 L 179 693 L 177 695 L 176 694 L 176 664 L 175 663 Z M 1078 646 L 1078 690 L 1077 691 L 1077 712 L 1078 711 L 1082 710 L 1082 709 L 1085 706 L 1092 695 L 1103 681 L 1102 677 L 1095 669 L 1095 668 L 1085 656 L 1085 655 Z M 930 632 L 928 632 L 927 633 L 923 633 L 924 634 L 927 634 Z M 323 632 L 327 634 L 329 633 L 327 632 Z M 215 612 L 213 615 L 213 617 L 221 627 L 225 634 L 240 653 L 240 654 L 241 652 L 241 616 L 238 616 L 237 615 L 232 615 L 231 614 L 227 614 L 223 612 Z M 1038 611 L 1036 612 L 1026 613 L 1025 614 L 1022 614 L 1021 615 L 1017 615 L 1016 616 L 1012 616 L 1012 652 L 1013 654 L 1023 641 L 1025 637 L 1028 634 L 1030 630 L 1041 616 Z M 960 604 L 955 604 L 954 605 L 951 605 L 950 606 L 947 606 L 946 607 L 943 607 L 942 608 L 938 608 L 937 609 L 928 610 L 927 611 L 924 611 L 923 612 L 920 612 L 919 613 L 915 613 L 914 614 L 911 614 L 910 615 L 905 615 L 903 616 L 918 629 L 923 629 L 924 628 L 933 627 L 934 626 L 937 626 L 938 625 L 942 625 L 946 623 L 951 619 L 954 618 L 956 616 L 959 615 L 960 614 Z M 293 604 L 293 614 L 299 617 L 301 619 L 311 625 L 315 625 L 316 626 L 320 626 L 321 627 L 325 627 L 326 628 L 331 628 L 332 629 L 334 629 L 350 616 L 348 616 L 347 615 L 343 615 L 342 614 L 339 614 L 338 613 L 334 613 L 333 612 L 330 612 L 329 611 L 325 611 L 324 610 L 321 610 L 320 609 L 316 609 L 315 608 L 312 608 L 311 607 L 307 607 L 306 606 L 303 606 L 302 605 L 299 605 L 298 604 Z M 1036 608 L 1029 597 L 1026 594 L 1024 595 L 1017 595 L 1016 596 L 1012 596 L 1012 611 L 1018 611 L 1019 610 L 1026 610 L 1027 609 Z M 960 581 L 958 582 L 948 583 L 947 584 L 943 584 L 942 585 L 939 585 L 938 586 L 934 586 L 933 587 L 930 587 L 929 588 L 924 588 L 923 589 L 920 589 L 919 590 L 910 591 L 909 592 L 906 592 L 905 593 L 901 593 L 900 594 L 891 595 L 889 597 L 888 597 L 885 600 L 885 601 L 898 612 L 901 612 L 902 611 L 906 611 L 907 610 L 911 610 L 912 609 L 921 608 L 922 607 L 925 607 L 926 606 L 930 606 L 931 605 L 935 605 L 936 604 L 940 604 L 941 603 L 945 603 L 946 602 L 949 602 L 950 601 L 958 600 L 960 599 Z M 293 581 L 293 599 L 295 600 L 298 600 L 299 601 L 302 601 L 303 602 L 307 602 L 308 603 L 312 603 L 313 604 L 316 604 L 317 605 L 321 605 L 322 606 L 325 606 L 326 607 L 330 607 L 331 608 L 335 608 L 336 609 L 340 609 L 341 610 L 350 611 L 351 612 L 354 612 L 356 611 L 368 601 L 368 600 L 365 597 L 361 596 L 360 595 L 352 594 L 351 593 L 347 593 L 346 592 L 342 592 L 341 591 L 337 591 L 336 590 L 332 590 L 331 589 L 328 589 L 327 588 L 324 588 L 323 587 L 319 587 L 318 586 L 315 586 L 314 585 L 310 585 L 309 584 L 306 584 L 305 583 L 301 583 L 300 582 L 296 582 L 295 581 Z M 1012 573 L 1011 574 L 1011 591 L 1012 592 L 1023 591 L 1024 590 L 1022 586 L 1020 584 L 1019 581 L 1017 579 L 1015 575 L 1013 573 Z M 241 572 L 234 581 L 233 584 L 229 589 L 227 594 L 220 603 L 218 608 L 223 608 L 224 609 L 228 609 L 229 610 L 241 611 L 241 595 L 240 594 L 242 590 L 242 574 Z M 960 557 L 958 558 L 955 558 L 954 559 L 951 559 L 950 560 L 946 560 L 945 561 L 934 563 L 933 564 L 930 564 L 929 565 L 926 565 L 925 566 L 922 566 L 906 581 L 905 581 L 900 586 L 899 586 L 896 589 L 896 590 L 904 589 L 905 588 L 908 588 L 909 587 L 912 587 L 913 586 L 916 586 L 917 585 L 923 585 L 924 584 L 927 584 L 928 583 L 932 583 L 933 582 L 937 582 L 938 581 L 941 581 L 942 580 L 946 580 L 947 579 L 950 579 L 951 578 L 959 577 L 960 576 Z M 870 562 L 869 561 L 868 557 L 866 557 L 865 558 L 861 558 L 860 559 L 857 559 L 856 560 L 853 560 L 852 561 L 848 561 L 847 562 L 844 562 L 843 563 L 839 563 L 839 564 L 840 564 L 849 572 L 852 573 L 853 572 L 858 571 Z M 378 575 L 396 578 L 414 563 L 411 563 L 410 562 L 407 562 L 406 561 L 402 561 L 401 560 L 397 560 L 396 559 L 392 559 L 391 558 L 387 558 L 386 557 L 385 558 L 384 562 L 382 564 L 380 568 Z M 293 557 L 293 576 L 294 577 L 298 577 L 299 578 L 302 578 L 303 579 L 306 579 L 307 580 L 310 580 L 311 581 L 315 581 L 316 582 L 319 582 L 320 583 L 329 584 L 330 585 L 333 585 L 334 586 L 337 586 L 338 587 L 342 587 L 343 588 L 347 588 L 348 589 L 351 589 L 352 590 L 358 591 L 358 590 L 353 585 L 352 585 L 347 580 L 342 577 L 332 567 L 330 566 L 326 566 L 325 565 L 319 564 L 318 563 L 315 563 L 314 562 L 308 561 L 304 559 L 300 559 L 299 558 Z M 293 535 L 294 536 L 293 537 L 293 552 L 297 553 L 298 554 L 305 555 L 309 557 L 312 557 L 313 558 L 316 558 L 317 559 L 320 559 L 321 560 L 325 561 L 297 537 Z M 960 534 L 950 543 L 946 545 L 941 550 L 940 550 L 935 555 L 934 555 L 929 560 L 928 560 L 928 561 L 929 560 L 932 560 L 933 559 L 936 559 L 937 558 L 941 558 L 942 557 L 945 557 L 949 555 L 952 555 L 953 554 L 959 553 L 960 552 Z M 857 534 L 852 534 L 851 535 L 847 535 L 846 536 L 843 536 L 842 537 L 838 537 L 836 538 L 836 560 L 838 560 L 839 559 L 843 559 L 844 558 L 847 558 L 848 557 L 852 557 L 853 556 L 856 556 L 857 555 L 860 555 L 861 554 L 865 554 L 866 553 L 860 542 L 860 540 Z M 397 534 L 388 551 L 388 554 L 396 555 L 397 556 L 401 556 L 402 557 L 405 557 L 406 558 L 410 558 L 411 559 L 415 559 L 417 560 L 417 538 L 414 538 L 413 537 L 409 537 L 408 536 Z M 843 509 L 842 510 L 836 510 L 836 533 L 854 529 L 845 510 Z M 417 508 L 416 509 L 410 509 L 408 511 L 403 522 L 401 524 L 401 526 L 399 530 L 403 530 L 404 531 L 407 531 L 408 532 L 413 532 L 414 533 L 417 533 Z M 1012 445 L 1014 448 L 1014 450 L 1017 455 L 1019 462 L 1022 467 L 1022 469 L 1028 481 L 1030 488 L 1033 493 L 1033 495 L 1036 500 L 1036 502 L 1039 507 L 1039 509 L 1042 514 L 1042 516 L 1045 521 L 1045 523 L 1048 528 L 1048 530 L 1051 535 L 1051 537 L 1054 542 L 1054 544 L 1057 549 L 1057 551 L 1060 556 L 1062 563 L 1066 570 L 1066 572 L 1069 578 L 1076 567 L 1085 556 L 1087 552 L 1093 545 L 1095 541 L 1098 538 L 1098 537 L 1101 534 L 1101 533 L 1107 526 L 1107 525 L 1097 516 L 1096 516 L 1092 512 L 1091 512 L 1084 505 L 1083 505 L 1078 500 L 1077 500 L 1071 494 L 1070 494 L 1065 489 L 1064 489 L 1058 483 L 1057 483 L 1053 479 L 1052 479 L 1039 467 L 1038 467 L 1034 463 L 1033 463 L 1027 457 L 1026 457 L 1020 451 L 1019 451 Z M 241 445 L 213 469 L 212 469 L 206 475 L 205 475 L 200 480 L 199 480 L 194 485 L 193 485 L 180 497 L 179 497 L 174 502 L 173 502 L 167 508 L 166 508 L 161 513 L 160 513 L 147 525 L 149 529 L 152 532 L 154 536 L 160 543 L 164 550 L 170 557 L 172 561 L 175 564 L 177 568 L 184 577 L 185 577 L 186 575 L 186 573 L 189 568 L 191 561 L 194 556 L 194 554 L 197 549 L 197 547 L 200 542 L 200 540 L 203 535 L 203 533 L 206 528 L 206 526 L 209 521 L 209 519 L 212 514 L 212 512 L 215 507 L 215 505 L 218 500 L 220 493 L 223 488 L 223 486 L 226 481 L 226 479 L 229 474 L 229 472 L 232 467 L 234 460 L 238 453 L 238 451 Z M 199 432 L 199 433 L 196 435 L 196 440 L 198 442 L 199 440 L 198 439 L 199 438 Z M 875 423 L 875 425 L 877 425 L 878 424 Z M 374 424 L 378 425 L 378 423 Z M 1064 400 L 1064 401 L 1066 401 L 1066 400 Z M 875 400 L 875 418 L 876 419 L 880 420 L 880 416 L 879 415 L 879 408 L 876 402 L 876 400 Z M 378 400 L 377 400 L 376 402 L 376 405 L 375 406 L 375 411 L 374 412 L 374 416 L 373 417 L 374 419 L 378 418 Z M 191 399 L 189 399 L 186 401 L 189 401 Z M 202 398 L 201 398 L 200 401 L 197 404 L 201 407 L 201 401 L 202 400 Z M 924 394 L 924 395 L 928 399 L 928 402 L 930 402 L 936 399 L 933 397 L 931 397 Z M 331 394 L 317 399 L 323 402 L 325 402 L 328 399 L 331 399 Z M 379 378 L 379 383 L 378 384 L 378 389 L 377 390 L 376 396 L 378 395 L 378 390 L 379 389 Z M 874 376 L 874 393 L 875 395 L 877 396 L 877 392 L 876 391 L 876 388 L 875 387 Z M 970 367 L 973 365 L 970 365 Z M 968 332 L 968 345 L 969 346 L 969 355 L 970 356 L 970 359 L 975 362 L 978 362 L 989 354 L 992 353 L 997 349 L 1003 346 L 1003 345 L 1001 345 L 998 343 L 996 343 L 990 340 L 988 340 L 985 338 L 983 338 L 978 335 L 976 335 L 975 334 Z M 287 331 L 286 332 L 281 333 L 278 335 L 273 336 L 270 338 L 265 339 L 262 341 L 260 341 L 253 345 L 251 345 L 264 354 L 267 355 L 275 361 L 279 363 L 281 363 L 285 360 L 285 349 L 286 348 Z M 967 315 L 968 326 L 970 328 L 972 328 L 979 332 L 981 332 L 986 335 L 993 337 L 998 340 L 981 326 L 980 326 L 976 322 L 971 319 Z M 288 315 L 271 329 L 270 329 L 266 333 L 265 333 L 260 338 L 259 338 L 265 335 L 267 335 L 270 333 L 272 333 L 277 330 L 279 330 L 282 328 L 287 327 L 287 320 L 288 319 Z M 238 312 L 235 313 L 230 317 L 235 315 Z M 414 302 L 415 303 L 415 305 L 418 305 L 421 303 L 415 303 Z M 852 306 L 852 300 L 843 301 L 836 304 L 834 304 L 829 301 L 836 306 L 838 306 L 843 310 L 848 310 L 850 309 Z M 811 290 L 817 293 L 824 298 L 819 295 L 816 292 Z M 984 288 L 990 299 L 990 301 L 995 310 L 995 312 L 997 316 L 998 316 L 998 315 L 1000 313 L 1003 313 L 1005 314 L 1005 308 L 1004 307 L 1004 304 L 1005 302 L 1003 300 L 997 297 Z M 271 288 L 270 288 L 262 294 L 257 296 L 255 298 L 249 301 L 249 306 L 248 307 L 248 310 L 248 307 L 249 306 L 252 310 L 255 317 L 256 317 L 260 308 L 262 306 Z M 913 272 L 912 272 L 908 277 L 911 277 L 912 276 L 912 273 Z" fill="#ffffff" fill-rule="evenodd" clip-rule="evenodd"/>
    <path d="M 891 1012 L 891 1020 L 892 1021 L 892 1039 L 893 1040 L 893 1047 L 894 1047 L 915 1026 L 916 1026 L 917 1024 L 919 1023 L 908 1018 L 906 1018 L 901 1015 L 899 1015 L 896 1013 Z M 334 1022 L 334 1023 L 338 1027 L 339 1027 L 360 1047 L 361 1011 L 353 1015 L 351 1015 L 346 1018 L 344 1018 L 341 1020 Z M 989 959 L 982 960 L 981 961 L 977 961 L 978 970 Z M 264 959 L 273 968 L 274 970 L 276 961 L 269 960 L 268 959 Z M 455 958 L 458 963 L 467 973 L 473 973 L 474 964 L 475 963 L 474 962 Z M 799 957 L 779 962 L 778 964 L 779 965 L 779 972 L 780 974 L 781 973 L 787 972 L 796 962 Z M 1010 938 L 1009 939 L 1004 939 L 1003 940 L 986 942 L 985 943 L 981 943 L 980 944 L 975 944 L 974 946 L 975 947 L 975 953 L 976 954 L 976 956 L 996 953 L 996 952 L 1002 946 L 1003 946 Z M 438 938 L 438 939 L 444 945 L 449 952 L 455 953 L 456 954 L 460 954 L 465 956 L 469 956 L 470 957 L 475 957 L 477 945 L 470 944 L 469 943 L 465 943 L 464 942 L 460 942 L 459 941 L 449 940 L 448 939 Z M 244 938 L 244 939 L 255 950 L 256 950 L 257 952 L 259 953 L 269 954 L 274 956 L 276 956 L 277 955 L 278 946 L 279 945 L 278 944 L 274 944 L 273 943 L 264 942 L 263 941 L 258 941 L 257 940 L 252 940 L 251 939 L 245 939 Z M 815 937 L 809 937 L 808 938 L 805 938 L 800 940 L 796 940 L 795 941 L 787 942 L 786 943 L 776 945 L 777 957 L 778 958 L 779 957 L 784 957 L 785 956 L 788 956 L 789 955 L 792 955 L 793 954 L 796 954 L 797 953 L 805 951 L 807 947 L 811 943 Z M 1060 928 L 1048 931 L 1048 941 L 1051 941 L 1053 939 Z M 193 928 L 203 941 L 205 941 L 205 933 L 206 931 L 201 929 L 196 929 L 195 928 Z M 812 918 L 807 919 L 806 920 L 803 920 L 802 921 L 799 921 L 798 922 L 794 922 L 790 924 L 786 924 L 785 925 L 774 927 L 773 928 L 774 940 L 775 941 L 777 941 L 778 940 L 782 940 L 783 939 L 791 938 L 795 936 L 803 935 L 804 934 L 808 934 L 809 933 L 814 932 Z M 440 918 L 438 933 L 440 934 L 444 934 L 445 935 L 450 935 L 451 936 L 460 937 L 461 938 L 465 938 L 466 939 L 470 939 L 471 940 L 478 940 L 478 936 L 479 935 L 479 931 L 480 930 L 480 928 L 479 927 L 476 927 L 471 925 L 467 925 L 466 924 L 463 924 L 462 923 L 459 923 L 458 922 L 455 922 L 454 921 L 451 921 L 450 920 Z M 1028 917 L 972 928 L 971 929 L 972 930 L 973 939 L 974 940 L 975 939 L 986 938 L 987 937 L 995 936 L 996 935 L 1000 935 L 1001 934 L 1005 934 L 1006 933 L 1017 932 L 1018 929 L 1026 921 Z M 224 916 L 238 932 L 240 932 L 241 933 L 246 933 L 247 934 L 252 934 L 253 935 L 258 935 L 259 936 L 263 936 L 264 937 L 268 937 L 269 938 L 273 938 L 274 939 L 280 939 L 281 928 L 278 928 L 273 926 L 263 925 L 262 924 L 258 924 L 257 923 L 254 923 L 249 921 L 245 921 L 244 920 L 240 920 L 239 919 L 235 919 L 234 918 Z M 1072 911 L 1070 910 L 1069 911 L 1059 912 L 1058 913 L 1049 914 L 1047 915 L 1047 924 L 1048 925 L 1051 925 L 1056 923 L 1064 922 Z M 182 910 L 182 912 L 189 922 L 194 922 L 195 923 L 203 924 L 204 925 L 206 924 L 206 915 L 205 914 L 195 913 L 194 912 L 190 912 L 189 911 L 183 911 Z M 870 902 L 868 902 L 864 904 L 861 904 L 860 905 L 857 905 L 850 908 L 846 908 L 845 909 L 834 911 L 834 923 L 840 923 L 841 924 L 839 926 L 834 926 L 834 940 L 835 940 L 837 937 L 841 933 L 842 933 L 847 927 L 848 927 L 848 925 L 854 919 L 854 918 L 857 916 L 857 915 L 859 914 L 870 903 Z M 1036 907 L 1028 901 L 1024 901 L 1023 902 L 1018 902 L 1017 903 L 1013 903 L 1012 904 L 1008 904 L 1007 905 L 1003 905 L 1002 906 L 998 906 L 997 907 L 993 907 L 992 908 L 987 908 L 986 909 L 982 909 L 981 910 L 970 911 L 969 912 L 969 917 L 970 918 L 970 922 L 971 923 L 973 923 L 974 922 L 979 922 L 980 921 L 984 921 L 985 920 L 993 919 L 994 918 L 999 918 L 1000 917 L 1014 915 L 1015 914 L 1023 913 L 1024 912 L 1035 911 L 1036 910 Z M 382 901 L 382 902 L 393 913 L 394 913 L 395 915 L 404 924 L 407 929 L 416 938 L 416 939 L 418 940 L 418 936 L 419 935 L 418 934 L 419 932 L 418 931 L 419 930 L 419 927 L 418 926 L 412 926 L 409 923 L 410 922 L 418 923 L 419 921 L 419 912 L 415 910 L 407 909 L 406 908 L 399 907 L 395 905 L 392 905 L 384 901 Z M 442 900 L 441 914 L 453 916 L 457 918 L 468 920 L 469 921 L 479 923 L 480 924 L 481 923 L 481 921 L 482 920 L 481 918 L 475 912 L 471 906 L 456 903 L 448 900 Z M 217 906 L 217 910 L 219 910 L 220 911 L 231 912 L 232 913 L 241 914 L 245 916 L 249 916 L 250 917 L 254 917 L 255 918 L 259 918 L 260 919 L 265 919 L 266 920 L 270 920 L 271 921 L 280 922 L 281 923 L 282 923 L 283 921 L 283 916 L 284 915 L 284 912 L 283 911 L 278 911 L 277 910 L 273 910 L 272 909 L 267 909 L 266 908 L 262 908 L 261 907 L 256 907 L 251 905 L 247 905 L 246 904 L 242 904 L 241 903 L 236 903 L 235 902 L 231 902 L 226 900 Z M 810 900 L 809 899 L 808 900 L 804 900 L 800 902 L 797 902 L 790 905 L 787 905 L 786 906 L 781 907 L 778 912 L 771 920 L 772 923 L 776 923 L 777 922 L 784 921 L 788 919 L 792 919 L 800 916 L 811 914 Z M 1083 893 L 1077 893 L 1072 895 L 1067 895 L 1066 896 L 1061 896 L 1060 897 L 1055 897 L 1054 898 L 1047 899 L 1047 908 L 1056 908 L 1057 907 L 1061 907 L 1066 905 L 1075 904 L 1078 902 Z M 170 893 L 172 895 L 177 904 L 178 903 L 179 904 L 184 904 L 185 905 L 189 905 L 190 906 L 194 906 L 195 907 L 199 907 L 200 908 L 206 908 L 206 899 L 205 898 L 200 898 L 199 897 L 195 897 L 194 896 L 190 896 L 189 895 L 184 895 L 183 894 Z M 1022 896 L 1014 889 L 1011 888 L 1010 889 L 1006 889 L 1005 890 L 999 890 L 998 891 L 993 891 L 992 892 L 986 892 L 985 893 L 981 893 L 980 894 L 969 895 L 968 896 L 966 896 L 966 900 L 967 901 L 967 906 L 973 906 L 974 905 L 978 905 L 979 904 L 984 904 L 985 903 L 990 903 L 991 902 L 995 902 L 996 901 L 1007 900 L 1008 899 L 1011 899 L 1012 898 Z M 230 896 L 232 897 L 236 897 L 237 898 L 242 898 L 243 899 L 252 900 L 253 901 L 258 901 L 259 902 L 268 903 L 269 904 L 274 904 L 275 905 L 279 905 L 280 906 L 285 906 L 286 905 L 286 899 L 287 898 L 287 896 L 284 896 L 283 895 L 279 895 L 278 894 L 274 894 L 273 893 L 268 893 L 267 892 L 262 892 L 261 891 L 256 891 L 255 890 L 251 890 L 250 889 L 244 889 L 243 888 L 239 888 Z M 808 886 L 799 886 L 790 896 L 787 901 L 788 900 L 792 900 L 793 899 L 796 899 L 800 897 L 803 897 L 804 896 L 809 895 Z M 445 886 L 444 888 L 444 893 L 443 894 L 444 895 L 466 901 L 466 900 L 454 886 Z M 446 877 L 445 878 L 445 881 L 446 882 L 450 882 L 447 877 Z M 807 876 L 803 881 L 807 880 Z M 1006 883 L 996 875 L 990 875 L 989 876 L 984 876 L 983 877 L 979 877 L 978 878 L 974 878 L 973 879 L 969 879 L 968 880 L 963 880 L 963 885 L 964 886 L 964 890 L 965 891 L 967 890 L 972 890 L 973 889 L 978 889 L 979 888 L 984 888 L 985 887 L 990 887 L 991 886 L 995 886 L 996 885 L 1000 885 L 1001 884 L 1005 884 Z M 1094 874 L 1089 874 L 1088 875 L 1084 875 L 1083 876 L 1079 876 L 1078 877 L 1073 877 L 1072 878 L 1068 878 L 1067 879 L 1063 879 L 1062 880 L 1057 880 L 1052 882 L 1048 882 L 1046 883 L 1046 893 L 1051 893 L 1052 892 L 1057 892 L 1058 891 L 1064 891 L 1065 890 L 1069 890 L 1070 889 L 1074 889 L 1075 888 L 1079 888 L 1080 887 L 1087 886 L 1092 879 Z M 246 883 L 252 884 L 253 885 L 264 886 L 265 887 L 269 887 L 270 888 L 274 888 L 275 889 L 279 889 L 280 890 L 285 890 L 286 891 L 288 891 L 290 881 L 289 880 L 285 880 L 284 879 L 280 879 L 279 878 L 275 878 L 270 876 L 265 876 L 264 875 L 259 875 L 257 874 Z M 159 873 L 166 886 L 176 887 L 181 889 L 185 889 L 186 890 L 190 890 L 191 891 L 196 891 L 197 892 L 205 892 L 206 893 L 206 885 L 207 883 L 205 882 L 197 881 L 196 880 L 191 880 L 186 878 L 182 878 L 181 877 L 177 877 L 176 876 L 172 876 L 171 875 L 167 875 L 166 874 Z M 960 864 L 961 874 L 968 874 L 969 873 L 973 873 L 974 872 L 979 872 L 980 871 L 988 870 L 985 866 L 979 862 L 973 862 L 972 863 Z M 264 869 L 264 870 L 268 870 L 269 871 L 273 871 L 274 872 L 278 872 L 279 873 L 284 873 L 285 874 L 289 874 L 290 875 L 292 872 L 292 867 L 293 866 L 293 864 L 289 864 L 288 863 L 274 861 Z M 1104 855 L 1102 856 L 1098 856 L 1097 857 L 1093 857 L 1092 858 L 1087 858 L 1082 860 L 1077 860 L 1076 861 L 1071 861 L 1070 862 L 1066 862 L 1065 863 L 1060 863 L 1059 864 L 1054 864 L 1049 866 L 1045 866 L 1045 877 L 1051 877 L 1056 875 L 1061 875 L 1062 874 L 1076 872 L 1081 870 L 1086 870 L 1091 868 L 1096 868 L 1099 866 Z M 150 855 L 156 867 L 207 877 L 207 868 L 208 867 L 207 866 L 200 865 L 199 864 L 196 864 L 191 862 L 182 861 L 181 860 L 176 860 L 175 859 L 170 859 L 169 858 L 164 858 L 163 857 L 159 857 L 158 856 L 153 856 L 152 855 Z M 957 848 L 957 853 L 959 858 L 969 857 L 971 856 L 964 850 L 961 850 Z M 296 848 L 291 848 L 281 856 L 285 856 L 286 857 L 291 857 L 292 858 L 294 858 L 295 857 Z M 1112 838 L 1111 837 L 1110 838 L 1105 838 L 1104 839 L 1100 839 L 1099 840 L 1095 840 L 1094 841 L 1090 841 L 1089 842 L 1085 842 L 1084 843 L 1073 844 L 1072 845 L 1068 845 L 1067 846 L 1063 846 L 1062 847 L 1058 847 L 1057 848 L 1053 848 L 1052 849 L 1047 849 L 1046 850 L 1044 850 L 1044 861 L 1048 861 L 1049 860 L 1053 860 L 1054 859 L 1059 859 L 1060 858 L 1064 858 L 1065 857 L 1069 857 L 1070 856 L 1074 856 L 1075 855 L 1079 855 L 1080 854 L 1094 852 L 1098 850 L 1107 849 Z M 141 837 L 147 849 L 151 849 L 152 850 L 156 850 L 157 851 L 162 851 L 167 853 L 171 853 L 172 854 L 176 854 L 177 855 L 181 855 L 182 856 L 186 856 L 187 857 L 191 857 L 192 858 L 196 858 L 197 859 L 201 859 L 202 860 L 206 860 L 208 861 L 208 856 L 209 855 L 209 850 L 208 849 L 200 848 L 199 847 L 195 847 L 194 846 L 190 846 L 189 845 L 184 845 L 183 844 L 177 844 L 176 843 L 165 842 L 164 841 L 154 840 L 153 839 L 149 839 L 148 838 L 143 838 Z M 932 840 L 925 840 L 924 839 L 916 838 L 915 837 L 917 836 L 915 837 L 914 836 L 911 836 L 910 837 L 906 836 L 905 837 L 896 838 L 895 839 L 889 839 L 888 840 L 883 840 L 882 841 L 877 841 L 876 842 L 870 842 L 869 843 L 864 843 L 863 844 L 857 844 L 852 846 L 847 845 L 844 847 L 833 848 L 834 908 L 841 907 L 842 906 L 846 906 L 849 904 L 852 904 L 853 903 L 856 903 L 857 902 L 860 902 L 861 901 L 864 901 L 868 899 L 874 898 L 905 867 L 906 867 L 932 841 Z M 321 840 L 321 841 L 355 875 L 356 875 L 360 879 L 364 879 L 365 881 L 364 882 L 363 881 L 363 882 L 377 896 L 395 903 L 403 904 L 407 906 L 411 906 L 416 908 L 418 908 L 419 907 L 419 865 L 420 864 L 420 848 L 413 848 L 408 846 L 401 846 L 396 844 L 390 844 L 389 843 L 384 843 L 383 842 L 371 841 L 370 840 L 360 839 L 359 838 L 355 838 L 354 837 L 350 837 L 349 836 L 344 836 L 343 835 L 333 835 L 332 836 L 329 836 L 332 836 L 333 835 L 341 835 L 342 836 L 341 837 L 337 837 L 332 839 Z M 1119 821 L 1118 820 L 1115 820 L 1114 821 L 1110 821 L 1109 822 L 1103 822 L 1102 823 L 1097 823 L 1096 824 L 1091 824 L 1090 825 L 1084 825 L 1083 826 L 1073 827 L 1072 828 L 1062 829 L 1061 830 L 1056 830 L 1055 831 L 1051 831 L 1050 832 L 1044 832 L 1043 833 L 1043 845 L 1045 845 L 1046 844 L 1051 844 L 1052 843 L 1057 843 L 1058 842 L 1062 842 L 1063 841 L 1067 841 L 1068 840 L 1072 840 L 1073 839 L 1077 839 L 1078 838 L 1082 838 L 1083 837 L 1087 837 L 1088 836 L 1096 835 L 1097 834 L 1101 834 L 1102 833 L 1110 832 L 1111 831 L 1115 831 Z M 135 821 L 135 824 L 138 829 L 138 831 L 142 831 L 146 833 L 151 833 L 152 834 L 156 834 L 157 835 L 161 835 L 162 836 L 166 836 L 167 837 L 171 837 L 172 838 L 177 838 L 178 839 L 182 839 L 183 840 L 187 840 L 188 841 L 192 841 L 193 842 L 198 842 L 199 843 L 209 844 L 209 837 L 210 836 L 210 833 L 208 833 L 207 832 L 203 832 L 202 831 L 198 831 L 197 830 L 192 830 L 191 829 L 187 829 L 186 828 L 182 828 L 181 827 L 175 827 L 174 826 L 169 826 L 168 825 L 151 823 L 150 822 L 138 821 L 137 820 Z M 560 814 L 560 968 L 588 968 L 588 906 L 589 905 L 635 905 L 636 906 L 646 907 L 650 909 L 657 916 L 661 926 L 661 930 L 662 931 L 662 950 L 663 951 L 663 959 L 664 960 L 664 963 L 666 968 L 696 968 L 692 962 L 691 957 L 690 956 L 690 952 L 689 951 L 689 943 L 688 942 L 688 923 L 687 922 L 687 918 L 686 917 L 686 914 L 684 911 L 684 909 L 680 903 L 675 899 L 664 895 L 666 893 L 668 893 L 676 889 L 684 881 L 685 878 L 687 876 L 687 874 L 689 870 L 689 867 L 690 866 L 690 848 L 689 847 L 688 840 L 683 831 L 676 824 L 670 820 L 660 816 L 652 815 L 651 814 L 586 814 L 585 813 L 583 814 Z M 588 836 L 589 835 L 639 835 L 640 836 L 645 836 L 646 837 L 653 839 L 661 848 L 662 854 L 663 855 L 662 869 L 658 876 L 655 879 L 652 880 L 650 882 L 644 883 L 643 884 L 589 884 L 588 883 Z M 976 808 L 975 809 L 971 809 L 970 810 L 959 811 L 959 820 L 960 821 L 961 820 L 965 820 L 976 809 Z M 276 808 L 287 819 L 289 820 L 294 820 L 294 811 Z M 1115 812 L 1113 809 L 1113 807 L 1111 805 L 1110 806 L 1104 806 L 1103 807 L 1098 807 L 1097 808 L 1093 808 L 1092 809 L 1085 809 L 1084 810 L 1079 810 L 1078 811 L 1073 811 L 1072 812 L 1066 812 L 1065 813 L 1060 813 L 1059 814 L 1054 814 L 1053 815 L 1041 816 L 1042 828 L 1047 828 L 1048 827 L 1056 826 L 1057 825 L 1061 825 L 1062 824 L 1066 824 L 1071 822 L 1082 821 L 1087 819 L 1091 819 L 1092 818 L 1096 818 L 1097 817 L 1111 815 L 1112 814 L 1114 814 Z M 138 814 L 142 814 L 143 815 L 147 815 L 148 816 L 153 816 L 154 817 L 163 818 L 168 820 L 172 820 L 173 821 L 177 821 L 178 822 L 192 824 L 193 825 L 196 825 L 197 826 L 200 826 L 201 827 L 204 827 L 205 828 L 210 829 L 211 816 L 206 816 L 205 815 L 200 815 L 199 814 L 182 812 L 181 811 L 177 811 L 176 810 L 169 810 L 168 809 L 163 809 L 162 808 L 156 808 L 155 807 L 150 807 L 149 806 L 143 806 L 142 805 L 140 807 L 140 809 Z M 144 797 L 144 799 L 152 800 L 157 802 L 162 802 L 163 803 L 167 803 L 168 804 L 172 804 L 173 805 L 177 805 L 178 806 L 182 806 L 183 807 L 187 807 L 188 808 L 192 808 L 193 809 L 197 809 L 198 810 L 204 810 L 205 811 L 209 811 L 210 812 L 212 811 L 212 801 L 213 800 L 208 798 L 188 796 L 187 795 L 182 795 L 181 794 L 173 794 L 172 793 L 161 792 L 160 791 L 154 791 L 153 790 L 147 790 L 146 794 Z M 1109 797 L 1105 789 L 1103 790 L 1091 791 L 1090 792 L 1086 792 L 1085 793 L 1079 793 L 1078 794 L 1066 795 L 1065 796 L 1050 797 L 1049 798 L 1040 799 L 1040 808 L 1041 809 L 1041 812 L 1043 811 L 1049 811 L 1050 810 L 1055 810 L 1056 809 L 1066 808 L 1071 806 L 1081 805 L 1082 804 L 1090 803 L 1091 802 L 1095 802 L 1096 801 L 1101 801 L 1102 800 L 1109 799 Z M 874 788 L 883 792 L 896 801 L 896 803 L 898 803 L 902 805 L 905 805 L 908 808 L 917 813 L 921 817 L 927 821 L 911 807 L 908 806 L 902 799 L 896 795 L 892 795 L 891 794 L 893 793 L 893 792 L 889 789 L 883 789 L 882 788 L 877 788 L 876 787 Z M 382 786 L 377 786 L 372 788 L 364 788 L 352 799 L 353 801 L 352 802 L 347 802 L 326 820 L 346 806 L 350 805 L 351 803 L 355 803 L 359 799 L 365 795 L 370 793 L 378 787 Z M 1002 785 L 994 786 L 993 787 L 989 787 L 988 788 L 984 788 L 983 789 L 979 789 L 978 790 L 974 790 L 973 791 L 969 791 L 968 792 L 964 792 L 963 793 L 959 793 L 957 794 L 958 806 L 962 806 L 963 805 L 967 805 L 968 804 L 973 804 L 974 803 L 983 802 Z M 252 785 L 254 788 L 255 788 L 268 801 L 270 802 L 275 802 L 276 803 L 281 803 L 282 804 L 286 804 L 287 805 L 295 806 L 295 797 L 296 796 L 296 794 L 295 793 L 291 793 L 290 792 L 286 792 L 285 791 L 281 791 L 280 790 L 270 789 L 269 788 L 265 788 L 264 787 L 260 787 L 259 786 L 254 786 Z M 1025 763 L 1022 763 L 1017 765 L 1013 765 L 1012 766 L 1008 766 L 1007 767 L 1003 767 L 1002 768 L 998 768 L 997 769 L 992 769 L 991 770 L 987 770 L 986 771 L 981 771 L 980 772 L 976 772 L 975 773 L 971 773 L 970 774 L 966 774 L 965 775 L 961 775 L 960 776 L 956 776 L 955 777 L 956 778 L 956 788 L 957 789 L 961 789 L 962 788 L 966 788 L 967 787 L 971 787 L 972 786 L 976 786 L 977 785 L 981 785 L 982 784 L 986 784 L 991 782 L 995 782 L 996 781 L 1000 781 L 1001 780 L 1008 779 L 1022 766 L 1023 766 Z M 228 763 L 228 764 L 229 764 L 246 780 L 250 780 L 251 781 L 255 781 L 256 782 L 260 782 L 261 783 L 266 783 L 267 784 L 271 784 L 272 785 L 276 785 L 277 786 L 281 786 L 282 787 L 287 787 L 288 788 L 296 788 L 296 785 L 297 784 L 297 776 L 295 776 L 294 775 L 289 775 L 288 774 L 284 774 L 283 773 L 279 773 L 278 772 L 274 772 L 273 771 L 262 770 L 257 768 L 252 768 L 251 767 L 243 766 L 242 765 L 238 765 L 237 764 Z M 1038 762 L 1038 776 L 1039 777 L 1041 776 L 1045 776 L 1046 775 L 1051 775 L 1052 774 L 1057 774 L 1058 773 L 1064 773 L 1065 772 L 1070 772 L 1071 771 L 1075 771 L 1076 770 L 1081 770 L 1082 769 L 1085 769 L 1086 770 L 1084 772 L 1080 773 L 1083 775 L 1087 775 L 1088 776 L 1087 777 L 1061 777 L 1060 778 L 1056 778 L 1055 779 L 1050 779 L 1049 780 L 1039 781 L 1039 793 L 1040 794 L 1046 794 L 1047 793 L 1052 793 L 1053 792 L 1057 792 L 1058 791 L 1070 790 L 1071 789 L 1085 787 L 1089 785 L 1093 785 L 1094 784 L 1102 783 L 1101 781 L 1093 780 L 1092 779 L 1093 778 L 1099 778 L 1100 779 L 1100 775 L 1096 767 L 1089 768 L 1085 765 L 1070 764 L 1069 763 Z M 1087 768 L 1088 767 L 1089 768 L 1088 769 Z M 215 762 L 213 762 L 212 761 L 205 761 L 204 762 L 185 763 L 184 764 L 179 764 L 174 766 L 163 767 L 159 769 L 156 769 L 160 769 L 163 771 L 164 773 L 163 774 L 157 774 L 155 773 L 153 775 L 153 777 L 150 782 L 154 784 L 168 786 L 169 787 L 177 788 L 178 789 L 182 789 L 183 790 L 190 790 L 191 791 L 195 791 L 196 792 L 202 792 L 203 793 L 213 794 L 214 780 L 211 780 L 210 779 L 202 779 L 201 778 L 193 778 L 192 777 L 183 777 L 182 776 L 170 776 L 169 775 L 170 772 L 168 772 L 167 771 L 168 770 L 175 770 L 176 771 L 184 771 L 185 772 L 197 773 L 198 774 L 214 775 L 215 774 Z M 167 774 L 168 773 L 169 774 L 168 775 Z M 164 773 L 165 772 L 166 773 L 165 774 Z M 165 771 L 166 770 L 167 771 L 166 772 Z M 841 755 L 850 756 L 849 755 Z M 818 753 L 821 754 L 826 758 L 834 762 L 850 773 L 861 779 L 862 781 L 867 782 L 868 783 L 872 783 L 873 784 L 883 785 L 884 786 L 884 785 L 879 780 L 878 780 L 873 775 L 866 770 L 858 762 L 854 762 L 853 761 L 850 761 L 849 760 L 846 760 L 845 759 L 842 759 L 841 758 L 838 758 L 837 757 L 829 756 L 828 755 Z M 434 753 L 431 753 L 424 756 L 419 756 L 418 757 L 415 757 L 414 758 L 411 758 L 410 759 L 395 762 L 378 777 L 371 782 L 369 785 L 377 784 L 378 783 L 383 783 L 384 782 L 390 781 L 394 777 L 397 776 L 399 774 L 402 773 L 404 771 L 407 770 L 420 761 L 423 760 L 425 758 Z M 159 762 L 180 761 L 185 759 L 200 759 L 197 757 L 194 757 L 193 756 L 182 755 L 177 753 L 173 753 L 172 752 L 167 752 L 166 751 L 164 751 L 160 758 Z M 1093 761 L 1092 756 L 1089 750 L 1087 751 L 1082 751 L 1081 752 L 1071 753 L 1070 754 L 1067 754 L 1066 755 L 1063 755 L 1058 757 L 1054 757 L 1054 758 L 1056 758 L 1057 759 L 1064 759 L 1065 760 L 1072 760 L 1073 761 L 1082 761 L 1083 762 L 1091 762 Z M 1018 758 L 1004 750 L 1002 751 L 997 751 L 996 752 L 989 752 L 988 753 L 983 753 L 982 754 L 969 755 L 968 756 L 963 756 L 962 757 L 954 757 L 955 771 L 956 772 L 957 771 L 968 770 L 973 768 L 983 767 L 984 766 L 988 766 L 993 764 L 1008 762 L 1009 761 L 1011 761 L 1009 759 L 1010 758 Z M 235 758 L 240 758 L 241 759 L 241 761 L 244 761 L 245 762 L 256 763 L 261 765 L 266 765 L 271 767 L 276 767 L 281 769 L 286 769 L 287 770 L 291 770 L 292 771 L 296 771 L 297 772 L 298 771 L 299 757 L 295 757 L 294 756 L 286 756 L 285 755 L 280 755 L 279 754 L 273 754 L 272 753 L 267 753 L 266 752 L 249 750 L 239 755 Z M 996 746 L 978 736 L 976 737 L 970 737 L 969 738 L 956 739 L 952 741 L 953 742 L 953 751 L 954 752 L 972 751 L 973 750 L 977 750 L 978 749 L 985 749 L 986 748 L 996 747 Z M 257 746 L 257 747 L 262 747 L 263 748 L 268 748 L 269 749 L 276 749 L 277 750 L 281 750 L 282 751 L 299 752 L 300 751 L 300 740 L 275 736 Z M 1086 742 L 1084 739 L 1083 735 L 1079 735 L 1078 736 L 1072 737 L 1071 736 L 1071 733 L 1069 734 L 1065 734 L 1064 735 L 1060 735 L 1059 736 L 1039 738 L 1037 739 L 1037 756 L 1047 755 L 1066 748 L 1069 748 L 1070 747 L 1073 747 L 1074 746 L 1077 746 L 1082 744 L 1086 744 Z M 167 742 L 167 744 L 169 744 L 170 745 L 174 745 L 177 747 L 180 747 L 181 748 L 196 751 L 203 754 L 206 754 L 207 755 L 215 757 L 215 754 L 216 753 L 216 738 L 195 736 L 194 735 L 183 733 L 182 735 L 170 735 L 169 739 Z M 951 725 L 951 729 L 952 730 L 952 734 L 953 735 L 954 734 L 960 734 L 961 733 L 970 732 L 961 727 Z M 796 726 L 797 740 L 804 743 L 807 746 L 817 748 L 818 749 L 822 749 L 823 750 L 826 750 L 831 752 L 831 749 L 832 748 L 831 740 L 829 738 L 826 738 L 820 732 L 820 731 L 810 729 L 809 728 L 799 726 L 798 725 Z M 456 725 L 455 726 L 452 726 L 451 727 L 448 727 L 447 728 L 444 728 L 440 730 L 437 730 L 436 731 L 431 732 L 425 738 L 414 746 L 402 757 L 407 756 L 408 755 L 411 755 L 412 754 L 416 754 L 415 753 L 417 751 L 418 751 L 419 752 L 418 753 L 423 751 L 431 750 L 439 747 L 446 746 L 450 742 L 454 740 L 456 740 Z M 302 724 L 292 727 L 283 732 L 288 732 L 289 733 L 293 733 L 294 734 L 301 734 Z M 1081 712 L 1076 715 L 1074 713 L 1065 713 L 1064 714 L 1059 714 L 1058 715 L 1052 715 L 1051 716 L 1045 716 L 1044 717 L 1037 717 L 1036 718 L 1036 733 L 1037 734 L 1043 734 L 1044 733 L 1049 733 L 1050 732 L 1054 732 L 1055 731 L 1061 731 L 1062 730 L 1067 730 L 1072 728 L 1077 728 L 1079 727 L 1079 725 L 1076 718 Z M 796 712 L 796 720 L 797 721 L 800 721 L 804 723 L 811 724 Z M 457 712 L 456 712 L 440 725 L 456 721 L 457 720 Z M 172 710 L 177 718 L 176 723 L 174 726 L 175 728 L 180 728 L 181 729 L 185 729 L 186 730 L 204 732 L 205 733 L 209 733 L 210 734 L 217 734 L 217 717 L 202 716 L 201 715 L 195 715 L 194 714 L 188 714 L 187 713 L 179 713 L 178 714 L 177 712 L 176 714 Z M 1147 707 L 1106 707 L 1106 729 L 1107 730 L 1107 763 L 1108 764 L 1108 780 L 1111 774 L 1113 772 L 1118 761 L 1120 759 L 1129 740 L 1131 738 L 1138 723 L 1140 721 Z M 106 707 L 117 728 L 119 730 L 123 739 L 125 741 L 132 756 L 134 758 L 145 780 L 146 740 L 147 739 L 147 713 L 148 712 L 148 707 Z M 1076 703 L 1073 703 L 1072 704 L 1070 702 L 1070 700 L 1067 693 L 1060 693 L 1059 694 L 1055 694 L 1054 695 L 1049 695 L 1048 696 L 1043 696 L 1042 697 L 1036 697 L 1035 698 L 1035 710 L 1036 711 L 1036 714 L 1037 713 L 1043 713 L 1044 712 L 1049 712 L 1050 711 L 1054 711 L 1055 710 L 1061 710 L 1062 709 L 1076 707 Z M 178 703 L 178 707 L 182 707 L 183 708 L 187 708 L 188 709 L 192 709 L 193 710 L 198 710 L 199 711 L 204 711 L 205 712 L 210 712 L 211 713 L 216 713 L 217 714 L 217 711 L 218 710 L 218 698 L 217 697 L 213 697 L 212 696 L 206 696 L 205 695 L 200 695 L 199 694 L 195 694 L 194 693 L 187 693 L 185 696 L 185 699 L 183 703 L 181 705 L 179 705 Z M 613 644 L 611 647 L 609 655 L 607 658 L 607 660 L 605 663 L 605 665 L 603 668 L 603 670 L 601 673 L 601 675 L 599 678 L 599 680 L 593 693 L 592 698 L 589 703 L 589 705 L 585 713 L 584 718 L 581 723 L 581 725 L 577 733 L 576 738 L 573 743 L 572 748 L 568 756 L 567 761 L 564 766 L 564 768 L 560 776 L 559 781 L 557 784 L 557 786 L 554 791 L 554 793 L 552 797 L 580 797 L 581 796 L 582 791 L 584 788 L 584 786 L 586 783 L 587 778 L 589 775 L 594 759 L 595 758 L 603 758 L 604 757 L 611 757 L 612 758 L 613 757 L 614 758 L 619 758 L 620 757 L 657 758 L 659 760 L 660 765 L 662 768 L 663 773 L 665 776 L 665 778 L 672 797 L 701 797 L 700 793 L 698 790 L 697 785 L 695 782 L 695 780 L 693 777 L 693 775 L 687 762 L 686 757 L 684 754 L 684 752 L 682 749 L 682 747 L 676 734 L 675 729 L 670 719 L 667 709 L 665 706 L 665 704 L 663 701 L 663 699 L 661 696 L 661 694 L 659 691 L 659 689 L 657 686 L 657 684 L 655 681 L 655 679 L 653 676 L 653 674 L 651 671 L 651 669 L 649 666 L 649 664 L 643 651 L 642 646 L 640 644 Z M 626 672 L 628 673 L 628 675 L 629 676 L 632 687 L 634 690 L 637 701 L 642 712 L 646 726 L 648 729 L 648 731 L 650 735 L 649 737 L 604 737 L 603 736 L 603 734 L 605 731 L 607 723 L 609 720 L 611 712 L 613 709 L 614 704 L 616 701 L 619 690 L 621 687 L 621 685 Z M 921 566 L 918 566 L 917 567 L 914 567 L 913 568 L 910 568 L 905 570 L 901 570 L 900 571 L 897 571 L 896 572 L 893 572 L 892 573 L 889 573 L 884 575 L 880 575 L 872 578 L 866 578 L 865 579 L 860 579 L 859 580 L 871 590 L 877 589 L 881 587 L 884 587 L 885 586 L 890 585 L 893 583 L 895 583 L 898 581 L 900 581 L 901 583 L 899 585 L 895 586 L 886 591 L 877 593 L 877 595 L 878 595 L 883 600 L 890 595 L 890 594 L 893 592 L 901 583 L 908 578 L 919 567 Z M 1145 560 L 1149 568 L 1149 570 L 1152 576 L 1154 578 L 1154 576 L 1152 572 L 1151 562 L 1148 562 Z M 109 560 L 104 561 L 102 563 L 101 569 L 100 570 L 100 577 Z M 924 561 L 908 547 L 905 547 L 904 548 L 901 548 L 900 549 L 897 549 L 896 550 L 893 550 L 888 552 L 884 552 L 883 553 L 868 556 L 871 561 L 871 563 L 870 564 L 868 564 L 860 571 L 856 573 L 854 573 L 853 575 L 855 577 L 860 577 L 865 575 L 874 574 L 882 571 L 888 571 L 893 569 L 897 569 L 905 566 L 908 566 L 909 565 L 924 562 Z M 329 562 L 331 566 L 332 566 L 340 574 L 352 583 L 360 591 L 359 592 L 361 592 L 363 595 L 370 600 L 377 593 L 375 593 L 374 592 L 366 590 L 361 587 L 359 587 L 354 584 L 355 582 L 356 583 L 360 583 L 366 586 L 369 586 L 374 588 L 378 588 L 381 590 L 394 580 L 394 579 L 392 578 L 386 578 L 385 577 L 381 577 L 377 575 L 378 570 L 385 557 L 384 556 L 381 556 L 380 555 L 377 555 L 376 554 L 373 554 L 368 552 L 364 552 L 356 549 L 352 549 L 351 548 L 345 547 L 331 560 L 330 560 Z M 330 562 L 332 561 L 333 562 L 338 563 L 341 565 L 344 565 L 345 566 L 351 567 L 362 571 L 366 571 L 367 572 L 374 573 L 377 575 L 375 577 L 374 576 L 367 575 L 363 573 L 359 573 L 358 572 L 343 569 L 331 564 Z M 1150 545 L 1148 546 L 1138 546 L 1140 552 L 1142 554 L 1150 555 L 1150 552 L 1149 551 L 1149 547 Z M 103 546 L 103 555 L 105 554 L 112 554 L 115 547 L 109 547 L 105 545 Z M 923 532 L 921 532 L 920 533 L 921 540 L 927 537 L 927 535 Z M 331 532 L 329 533 L 327 536 L 329 538 L 332 539 L 332 535 L 333 533 Z M 124 530 L 119 530 L 116 532 L 113 532 L 111 534 L 106 535 L 105 536 L 104 541 L 118 541 Z M 1129 529 L 1135 541 L 1137 540 L 1144 540 L 1145 541 L 1149 540 L 1147 536 L 1139 532 Z M 903 543 L 884 527 L 881 527 L 876 529 L 872 529 L 871 530 L 866 530 L 861 532 L 857 532 L 867 552 L 867 554 L 875 551 L 880 551 L 881 550 L 884 550 L 887 548 L 902 545 Z M 350 543 L 351 545 L 353 545 L 357 547 L 360 547 L 361 548 L 368 549 L 372 551 L 380 552 L 381 553 L 386 554 L 391 544 L 391 542 L 396 533 L 395 532 L 392 532 L 387 530 L 383 530 L 378 528 L 368 527 Z M 1147 529 L 1147 523 L 1146 522 L 1146 518 L 1145 516 L 1142 516 L 1131 522 L 1129 522 L 1129 523 L 1133 524 L 1136 526 Z M 329 513 L 322 514 L 319 516 L 299 522 L 302 524 L 304 527 L 296 534 L 294 534 L 301 540 L 303 540 L 309 532 L 316 527 Z M 924 512 L 940 529 L 942 529 L 944 531 L 945 534 L 948 537 L 950 541 L 951 541 L 958 534 L 958 533 L 953 530 L 949 526 L 954 522 L 944 519 L 941 517 Z M 1117 506 L 1123 518 L 1125 520 L 1127 520 L 1138 515 L 1140 515 L 1139 513 L 1137 513 L 1134 511 Z M 137 505 L 135 505 L 127 509 L 117 512 L 113 514 L 112 516 L 111 515 L 108 515 L 107 522 L 106 523 L 106 529 L 108 529 L 112 527 L 115 527 L 125 523 L 125 522 L 120 520 L 119 519 L 120 518 L 125 519 L 128 521 Z M 117 518 L 118 517 L 120 518 L 119 519 Z M 115 517 L 116 516 L 117 517 L 116 518 Z M 113 516 L 114 515 L 115 516 L 114 517 Z M 1117 500 L 1133 505 L 1134 506 L 1136 506 L 1137 507 L 1139 507 L 1140 508 L 1144 508 L 1143 506 L 1143 502 L 1142 501 L 1142 497 L 1141 495 L 1139 494 L 1132 494 Z M 110 506 L 114 507 L 115 506 L 118 506 L 128 502 L 134 501 L 134 500 L 120 493 L 112 494 L 111 496 Z M 835 486 L 835 500 L 836 501 L 838 501 L 839 500 L 842 500 L 843 501 L 841 504 L 843 505 L 844 508 L 846 510 L 855 528 L 855 530 L 856 529 L 860 529 L 861 528 L 869 527 L 870 526 L 880 524 L 880 523 L 879 523 L 872 516 L 866 512 L 855 502 L 853 501 L 844 502 L 843 501 L 846 499 L 850 499 L 847 495 Z M 418 486 L 412 490 L 401 501 L 398 502 L 390 509 L 389 509 L 383 515 L 375 521 L 373 524 L 378 525 L 379 526 L 382 526 L 383 527 L 386 527 L 387 528 L 391 528 L 392 529 L 396 529 L 398 530 L 400 526 L 400 524 L 408 508 L 412 505 L 411 501 L 412 500 L 415 500 L 416 501 L 418 500 Z M 1105 484 L 1112 496 L 1117 495 L 1118 494 L 1121 494 L 1125 492 L 1128 492 L 1132 490 L 1127 488 L 1120 487 L 1116 485 L 1113 485 L 1109 483 L 1106 483 Z M 148 483 L 145 483 L 134 487 L 131 487 L 122 491 L 124 491 L 131 494 L 141 496 L 147 487 Z M 613 481 L 611 484 L 611 486 L 605 499 L 604 504 L 602 507 L 600 514 L 597 519 L 596 524 L 593 529 L 592 534 L 589 539 L 588 544 L 583 554 L 583 556 L 579 564 L 578 569 L 576 572 L 576 574 L 570 587 L 569 592 L 567 595 L 567 597 L 565 600 L 565 602 L 563 605 L 563 607 L 561 610 L 561 612 L 559 615 L 559 617 L 557 620 L 557 622 L 554 627 L 554 629 L 552 633 L 581 633 L 583 625 L 585 622 L 586 617 L 591 606 L 593 598 L 596 594 L 657 594 L 659 596 L 662 607 L 664 610 L 665 615 L 667 618 L 667 620 L 672 633 L 701 633 L 700 629 L 698 626 L 698 624 L 696 621 L 695 616 L 689 603 L 688 598 L 685 593 L 684 588 L 682 585 L 682 583 L 680 580 L 680 578 L 678 575 L 678 573 L 676 570 L 676 568 L 674 565 L 674 563 L 672 560 L 672 558 L 670 555 L 670 553 L 664 540 L 663 535 L 660 530 L 660 528 L 658 525 L 658 523 L 656 520 L 656 518 L 654 515 L 654 513 L 652 510 L 649 500 L 646 495 L 646 493 L 644 490 L 644 488 L 642 485 L 641 481 Z M 626 509 L 628 510 L 628 512 L 631 518 L 634 529 L 636 532 L 638 540 L 640 543 L 644 557 L 646 560 L 648 568 L 650 571 L 649 573 L 604 573 L 603 572 L 604 567 L 608 559 L 610 551 L 612 548 L 614 540 L 616 537 L 618 529 L 620 526 L 622 518 L 624 515 L 624 513 Z M 1117 479 L 1118 480 L 1126 482 L 1129 484 L 1135 485 L 1138 487 L 1139 486 L 1138 478 L 1137 476 L 1133 474 L 1129 474 Z M 114 487 L 117 487 L 118 486 L 123 485 L 126 483 L 137 480 L 137 479 L 133 477 L 128 476 L 125 474 L 122 474 L 116 477 Z M 1058 455 L 1056 455 L 1056 461 L 1058 458 Z M 920 444 L 920 507 L 921 508 L 924 508 L 934 512 L 937 512 L 953 518 L 960 519 L 983 507 L 987 503 L 992 502 L 992 501 L 991 501 L 967 481 L 957 474 L 952 469 L 947 466 L 931 452 Z M 333 444 L 322 452 L 317 457 L 316 457 L 282 485 L 272 492 L 267 497 L 261 501 L 261 502 L 266 503 L 268 506 L 286 515 L 292 519 L 295 519 L 296 518 L 303 517 L 307 515 L 314 514 L 315 513 L 321 512 L 332 508 L 333 507 Z M 877 401 L 880 407 L 880 413 L 881 414 L 881 419 L 882 421 L 886 421 L 889 419 L 896 417 L 901 414 L 903 414 L 908 411 L 895 407 L 892 405 L 882 402 L 879 400 Z M 376 400 L 369 402 L 361 406 L 350 409 L 347 411 L 345 411 L 354 416 L 356 416 L 367 421 L 373 420 L 372 419 L 372 415 L 373 414 L 374 405 Z M 1052 394 L 1051 395 L 1052 396 L 1052 401 L 1053 402 L 1053 407 L 1054 408 L 1054 412 L 1053 413 L 1053 424 L 1054 425 L 1054 434 L 1055 435 L 1055 451 L 1058 453 L 1060 453 L 1083 407 L 1074 404 L 1076 406 L 1075 407 L 1073 407 L 1070 404 L 1071 403 L 1070 402 L 1065 403 L 1062 400 L 1062 398 Z M 202 394 L 194 397 L 189 402 L 184 402 L 180 407 L 179 406 L 178 407 L 176 406 L 172 406 L 171 407 L 176 417 L 176 419 L 187 440 L 187 442 L 189 444 L 193 453 L 195 455 L 195 458 L 197 462 L 198 455 L 195 455 L 194 454 L 198 451 L 198 443 L 196 442 L 194 437 L 200 429 L 201 408 L 197 406 L 196 404 L 199 401 Z M 378 376 L 376 376 L 368 380 L 363 381 L 360 383 L 358 383 L 355 385 L 350 386 L 347 388 L 345 388 L 342 390 L 340 390 L 333 393 L 332 403 L 331 404 L 329 402 L 327 403 L 327 404 L 329 404 L 339 409 L 341 409 L 347 406 L 352 405 L 355 403 L 357 403 L 358 402 L 363 401 L 366 399 L 374 397 L 375 396 L 375 393 L 377 388 Z M 875 375 L 875 378 L 876 379 L 876 386 L 877 387 L 879 397 L 887 399 L 890 401 L 892 401 L 914 409 L 924 404 L 928 403 L 926 399 L 921 393 L 914 391 L 909 388 L 904 387 L 901 385 L 891 382 L 888 380 L 886 380 Z M 874 333 L 874 370 L 875 371 L 874 372 L 876 372 L 879 374 L 887 376 L 890 378 L 895 379 L 898 381 L 903 382 L 914 387 L 916 387 L 920 389 L 923 389 L 938 395 L 942 395 L 944 396 L 949 394 L 949 393 L 941 386 L 932 380 L 924 380 L 923 381 L 921 381 L 920 380 L 920 377 L 921 376 L 924 376 L 925 377 L 926 376 L 928 376 L 921 371 L 917 366 L 912 363 L 907 358 L 906 358 L 887 342 Z M 379 332 L 361 347 L 351 354 L 336 367 L 335 367 L 333 370 L 326 376 L 332 376 L 333 377 L 333 379 L 332 380 L 322 380 L 321 381 L 319 381 L 315 385 L 304 393 L 304 394 L 306 394 L 309 396 L 314 396 L 315 395 L 320 394 L 323 392 L 325 392 L 328 390 L 331 390 L 332 389 L 337 388 L 345 384 L 347 384 L 353 381 L 358 380 L 361 378 L 366 377 L 369 375 L 377 373 L 379 370 Z M 852 310 L 851 311 L 847 311 L 846 312 L 847 313 L 849 313 L 850 312 L 852 312 Z M 590 307 L 576 315 L 569 322 L 566 328 L 564 330 L 564 332 L 562 336 L 562 339 L 561 340 L 561 352 L 562 353 L 563 360 L 566 366 L 569 370 L 576 376 L 592 384 L 594 384 L 598 386 L 601 386 L 602 387 L 605 387 L 606 388 L 609 388 L 610 389 L 613 389 L 614 390 L 618 390 L 619 391 L 622 391 L 627 393 L 632 393 L 633 394 L 644 396 L 657 401 L 664 407 L 666 411 L 666 413 L 667 414 L 667 424 L 664 430 L 660 434 L 654 438 L 652 438 L 648 440 L 645 440 L 644 441 L 641 441 L 640 442 L 616 442 L 615 441 L 611 441 L 610 440 L 602 438 L 598 436 L 591 430 L 588 426 L 586 421 L 586 418 L 585 417 L 585 410 L 555 410 L 556 422 L 557 423 L 557 426 L 560 432 L 560 434 L 566 443 L 570 447 L 582 455 L 584 455 L 589 458 L 591 458 L 595 460 L 603 461 L 604 462 L 608 462 L 609 463 L 617 463 L 618 464 L 632 464 L 634 463 L 635 464 L 636 463 L 650 462 L 651 461 L 654 461 L 655 460 L 658 460 L 659 459 L 664 458 L 675 453 L 686 444 L 689 440 L 695 427 L 695 422 L 696 421 L 696 411 L 695 410 L 695 405 L 694 404 L 694 401 L 688 391 L 680 384 L 668 378 L 666 378 L 662 376 L 659 376 L 652 373 L 648 373 L 647 372 L 644 372 L 639 370 L 635 370 L 634 369 L 631 369 L 626 367 L 622 367 L 618 365 L 615 365 L 614 364 L 611 364 L 610 363 L 602 361 L 600 359 L 597 358 L 591 352 L 589 343 L 590 342 L 590 338 L 593 333 L 597 329 L 605 325 L 613 324 L 614 323 L 634 323 L 635 324 L 643 325 L 653 330 L 658 335 L 661 341 L 662 350 L 691 350 L 691 342 L 690 341 L 690 338 L 689 337 L 688 332 L 685 326 L 676 316 L 669 311 L 661 307 L 659 307 L 655 305 L 652 305 L 648 303 L 644 303 L 643 302 L 635 302 L 634 301 L 617 301 L 616 302 L 608 302 L 607 303 L 603 303 L 602 304 L 599 304 L 598 305 Z M 913 276 L 911 279 L 910 278 L 908 278 L 907 279 L 909 279 L 912 281 L 913 280 Z M 853 257 L 848 259 L 837 267 L 826 273 L 809 285 L 806 286 L 806 287 L 809 289 L 810 288 L 815 290 L 818 293 L 834 303 L 836 303 L 842 300 L 849 299 L 852 296 L 852 289 L 851 287 L 852 286 Z M 849 292 L 850 291 L 851 292 L 850 293 Z M 848 291 L 849 290 L 850 291 L 849 292 Z M 849 290 L 850 289 L 851 290 L 850 291 Z M 401 257 L 401 259 L 402 260 L 402 270 L 401 271 L 401 284 L 402 285 L 401 287 L 401 290 L 402 291 L 402 293 L 401 294 L 401 312 L 404 312 L 405 313 L 405 312 L 402 312 L 401 310 L 402 309 L 405 309 L 409 311 L 415 307 L 413 302 L 414 301 L 416 302 L 420 302 L 422 301 L 423 302 L 427 299 L 430 298 L 438 291 L 444 289 L 447 287 L 447 286 L 441 283 L 424 271 L 421 270 L 410 262 Z M 402 288 L 404 287 L 409 292 L 408 293 L 403 292 L 402 291 Z M 927 254 L 927 259 L 928 260 L 928 265 L 929 266 L 929 270 L 930 271 L 930 275 L 931 276 L 932 287 L 933 288 L 934 297 L 935 297 L 935 296 L 952 277 L 956 271 L 953 270 L 951 268 L 944 268 L 943 267 L 938 267 L 937 266 L 935 266 L 933 263 L 935 259 L 933 257 Z M 346 249 L 344 251 L 330 258 L 320 261 L 317 265 L 315 265 L 312 267 L 302 270 L 304 271 L 318 286 L 321 290 L 322 294 L 327 284 L 329 282 L 334 271 L 336 269 L 341 258 L 343 256 Z M 583 124 L 585 128 L 617 161 L 589 190 L 589 191 L 582 198 L 582 199 L 598 199 L 626 170 L 627 170 L 655 199 L 672 199 L 636 161 L 656 141 L 656 140 L 671 125 L 671 124 L 654 124 L 627 153 L 625 152 L 625 151 L 599 124 Z" fill="#a2f71f" fill-rule="evenodd" clip-rule="evenodd"/>
  </g>
</svg>
