<svg width="391" height="391" xmlns="http://www.w3.org/2000/svg" xmlns:xlink="http://www.w3.org/1999/xlink" xml:space="preserve" overflow="hidden"><defs><clipPath id="clip0"><rect x="2221" y="878" width="391" height="391"/></clipPath></defs><g clip-path="url(#clip0)" transform="translate(-2221 -878)"><path d="M2416 878C2523.7 878 2611 965.304 2611 1073 2611 1180.7 2523.7 1268 2416 1268L2416 1268 2416 878Z" fill="#E30613" fill-rule="evenodd"/><path d="M0.000120701 0C107.695 0 195 87.3045 195 195 195 302.696 107.695 390 0.000120701 390L0 390 0 0Z" fill="#FFFFFF" fill-rule="evenodd" transform="matrix(-1 0 0 1 2416 878)"/><path d="M2221.5 1073.5C2221.5 965.805 2308.8 878.5 2416.5 878.5 2524.2 878.5 2611.5 965.805 2611.5 1073.5 2611.5 1181.2 2524.2 1268.5 2416.5 1268.5 2308.8 1268.5 2221.5 1181.2 2221.5 1073.5Z" stroke="#404040" stroke-width="1.14583" stroke-miterlimit="8" fill="none" fill-rule="evenodd"/><text fill="#E30613" font-family="DLRG Univers 55 Roman,DLRG Univers 55 Roman_MSFontService,sans-serif" font-weight="700" font-size="23" transform="matrix(6.12323e-17 1 -1 6.12323e-17 2267.51 981)">LV  WESTFALEN</text><text fill="#FFFFFF" font-family="DLRG Univers 55 Roman,DLRG Univers 55 Roman_MSFontService,sans-serif" font-weight="700" font-size="23" transform="matrix(-1.83697e-16 -1 1 -1.83697e-16 2564.94 1165)">LV  WESTFALEN</text></g></svg>