<svg width="1957" height="1956" xmlns="http://www.w3.org/2000/svg" xmlns:xlink="http://www.w3.org/1999/xlink" xml:space="preserve" overflow="hidden"><g transform="translate(-1322 -233)"><path d="M2985.89 1903.85C2603.21 2282.22 1986.25 2278.72 1607.89 1896.04 1606.82 1894.97 1605.76 1893.89 1604.7 1892.81L2300.79 1210.94Z" stroke="#042433" stroke-width="6.875" stroke-miterlimit="8" fill="#003FBC" fill-rule="evenodd"/><path d="M1607.89 1896.04C1229.52 1513.36 1233.01 896.409 1615.69 518.04 1616.77 516.977 1617.85 515.916 1618.93 514.858L2300.79 1210.94Z" stroke="#042433" stroke-width="6.875" stroke-miterlimit="8" fill="#1F832D" fill-rule="evenodd"/><path d="M1615.69 518.04C1998.37 139.672 2615.33 143.168 2993.69 525.848 2994.76 526.924 2995.82 528.001 2996.88 529.082L2300.79 1210.94Z" stroke="#042433" stroke-width="6.875" stroke-miterlimit="8" fill="#003FBC" fill-rule="evenodd"/><path d="M2993.69 525.848C3372.06 908.529 3368.57 1525.48 2985.89 1903.85 2984.81 1904.91 2983.73 1905.97 2982.65 1907.03L2300.79 1210.94Z" stroke="#042433" stroke-width="6.875" stroke-miterlimit="8" fill="#1F832D" fill-rule="evenodd"/></g></svg>