<svg width="6242" height="6243" xmlns="http://www.w3.org/2000/svg" xmlns:xlink="http://www.w3.org/1999/xlink" xml:space="preserve" overflow="hidden"><g transform="translate(-127 -127)"><path d="M550.987 1683.56C1415.09 193.961 3323.14-313.109 4812.74 550.989 5284.64 824.735 5676.46 1217.5 5949.07 1690.07L3248.15 3248.15Z" stroke="#262626" stroke-width="4.58333" stroke-miterlimit="8" fill="#FAFAFA" fill-rule="evenodd"/><path d="M5945.31 4812.74C5081.22 6302.34 3173.17 6809.41 1683.57 5945.31 1211.66 5671.57 819.838 5278.8 547.23 4806.24L3248.15 3248.15Z" stroke="#262626" stroke-width="4.58333" stroke-miterlimit="8" fill="#FAFAFA" fill-rule="evenodd"/><path d="M5950.01 1691.69C6506.78 2658.19 6504.89 3848.47 5945.05 4813.18L3248.15 3248.15Z" stroke="#262626" stroke-width="4.58333" stroke-miterlimit="8" fill="#262626" fill-rule="evenodd"/><path d="M546.287 4804.61C-10.4771 3838.12-8.58594 2647.84 551.247 1683.12L3248.15 3248.15Z" stroke="#262626" stroke-width="4.58333" stroke-miterlimit="8" fill="#262626" fill-rule="evenodd"/><path d="M3248.15 1594.52 4901.78 3248.15 3248.15 4901.78 1594.52 3248.15Z" fill="#00AAE6" fill-rule="evenodd"/></g></svg>