<svg width="6236" height="6236" xmlns="http://www.w3.org/2000/svg" xmlns:xlink="http://www.w3.org/1999/xlink" xml:space="preserve" overflow="hidden"><defs><clipPath id="clip0"><rect x="137" y="130" width="6236" height="6236"/></clipPath></defs><g clip-path="url(#clip0)" transform="translate(-137 -130)"><path d="M137 3248C137 1525.98 1532.98 130 3255 130 4977.02 130 6373 1525.98 6373 3248 6373 4970.02 4977.02 6366 3255 6366 1532.98 6366 137 4970.02 137 3248Z" fill="#FF0198" fill-rule="evenodd"/><path d="M5674.5 2274.5 5674.5 4223.32" stroke="#000000" stroke-width="183.333" stroke-linecap="round" stroke-miterlimit="8" fill="none" fill-rule="evenodd"/><path d="M4278.5 975.5 4278.5 5522.74" stroke="#000000" stroke-width="183.333" stroke-linecap="round" stroke-miterlimit="8" fill="none" fill-rule="evenodd"/><path d="M0 0 0.000360892 1948.82" stroke="#000000" stroke-width="183.333" stroke-linecap="round" stroke-miterlimit="8" fill="none" fill-rule="evenodd" transform="matrix(-1 0 0 1 789.5 2274.5)"/><path d="M0 0 0.000360892 4547.24" stroke="#000000" stroke-width="183.333" stroke-linecap="round" stroke-miterlimit="8" fill="none" fill-rule="evenodd" transform="matrix(-1 0 0 1 2186.5 975.5)"/><text font-family="DLRG Univers 55 Roman,DLRG Univers 55 Roman_MSFontService,sans-serif" font-weight="700" font-size="912" transform="matrix(6.12323e-17 1 -1 6.12323e-17 1184.34 2425)">N</text><text font-family="DLRG Univers 55 Roman,DLRG Univers 55 Roman_MSFontService,sans-serif" font-weight="700" font-size="912" transform="matrix(6.12323e-17 1 -1 6.12323e-17 1184.34 3160)">W</text><text font-family="DLRG Univers 55 Roman,DLRG Univers 55 Roman_MSFontService,sans-serif" font-weight="700" font-size="912" transform="matrix(-1.83697e-16 -1 1 -1.83697e-16 5311.96 4072)">N</text><text font-family="DLRG Univers 55 Roman,DLRG Univers 55 Roman_MSFontService,sans-serif" font-weight="700" font-size="912" transform="matrix(-1.83697e-16 -1 1 -1.83697e-16 5311.96 3337)">W</text></g></svg>