<svg width="2086" height="2119" xmlns="http://www.w3.org/2000/svg" xmlns:xlink="http://www.w3.org/1999/xlink" xml:space="preserve" overflow="hidden"><g transform="translate(-174 36)"><path d="M177.5 1040C177.5 465.9 642.9 0.499836 1217 0.499836 1791.1 0.499836 2256.5 465.9 2256.5 1040 2256.5 1614.1 1791.1 2079.5 1217 2079.5 642.9 2079.5 177.5 1614.1 177.5 1040Z" stroke="#000000" stroke-width="6.875" stroke-miterlimit="8" fill-rule="evenodd"/><path d="M475 574 864.583 574" stroke="#36FF36" stroke-width="27.5" stroke-miterlimit="8" fill="none" fill-rule="evenodd"/><path d="M850 193 850 582.583" stroke="#36FF36" stroke-width="27.5" stroke-miterlimit="8" fill="none" fill-rule="evenodd"/><path d="M499 651 940.732 651" stroke="#36FF36" stroke-width="27.5" stroke-miterlimit="8" fill="none" fill-rule="evenodd"/><path d="M929 222 929 663.732" stroke="#36FF36" stroke-width="27.5" stroke-miterlimit="8" fill="none" fill-rule="evenodd"/><path d="M1582 198 1582 587.583" stroke="#36FF36" stroke-width="27.5" stroke-miterlimit="8" fill="none" fill-rule="evenodd"/><path d="M1962.58 574 1573 574" stroke="#36FF36" stroke-width="27.5" stroke-miterlimit="8" fill="none" fill-rule="evenodd"/><path d="M1505 222 1505 663.732" stroke="#36FF36" stroke-width="27.5" stroke-miterlimit="8" fill="none" fill-rule="evenodd"/><path d="M1933.73 653 1492 653" stroke="#36FF36" stroke-width="27.5" stroke-miterlimit="8" fill="none" fill-rule="evenodd"/><path d="M0 0 389.583 0.000360892" stroke="#36FF36" stroke-width="27.5" stroke-miterlimit="8" fill="none" fill-rule="evenodd" transform="matrix(1 0 0 -1 475 1505)"/><path d="M0 0 389.583 0.000360892" stroke="#36FF36" stroke-width="27.5" stroke-miterlimit="8" fill="none" fill-rule="evenodd" transform="matrix(-1.83697e-16 -1 -1 1.83697e-16 850 1885.58)"/><path d="M0 0 441.732 0.000360892" stroke="#36FF36" stroke-width="27.5" stroke-miterlimit="8" fill="none" fill-rule="evenodd" transform="matrix(1 0 0 -1 499 1428)"/><path d="M0 0 441.732 0.000360892" stroke="#36FF36" stroke-width="27.5" stroke-miterlimit="8" fill="none" fill-rule="evenodd" transform="matrix(-1.83697e-16 -1 -1 1.83697e-16 929 1856.73)"/><path d="M0 0 389.583 0.000360892" stroke="#36FF36" stroke-width="27.5" stroke-miterlimit="8" fill="none" fill-rule="evenodd" transform="matrix(-1.83697e-16 -1 -1 1.83697e-16 1582 1885.58)"/><path d="M0 0 389.583 0.000360892" stroke="#36FF36" stroke-width="27.5" stroke-miterlimit="8" fill="none" fill-rule="evenodd" transform="matrix(-1 1.22465e-16 1.22465e-16 1 1962.58 1510)"/><path d="M0 0 441.732 0.000360892" stroke="#36FF36" stroke-width="27.5" stroke-miterlimit="8" fill="none" fill-rule="evenodd" transform="matrix(-1.83697e-16 -1 -1 1.83697e-16 1505 1861.73)"/><path d="M0 0 441.732 0.000360892" stroke="#36FF36" stroke-width="27.5" stroke-miterlimit="8" fill="none" fill-rule="evenodd" transform="matrix(-1 1.22465e-16 1.22465e-16 1 1933.73 1431)"/><path d="M372 751 776.678 909.333" stroke="#36FF36" stroke-width="27.5" stroke-miterlimit="8" fill="none" fill-rule="evenodd"/><path d="M372 814 776.678 972.333" stroke="#36FF36" stroke-width="27.5" stroke-miterlimit="8" fill="none" fill-rule="evenodd"/><path d="M0 0 404.678 158.333" stroke="#36FF36" stroke-width="27.5" stroke-miterlimit="8" fill="none" fill-rule="evenodd" transform="matrix(1 0 0 -1 372 1265.33)"/><path d="M0 0 404.678 158.333" stroke="#36FF36" stroke-width="27.5" stroke-miterlimit="8" fill="none" fill-rule="evenodd" transform="matrix(1 0 0 -1 372 1328.33)"/><path d="M0 0 404.678 158.333" stroke="#36FF36" stroke-width="27.5" stroke-miterlimit="8" fill="none" fill-rule="evenodd" transform="matrix(-1 0 0 1 2061.68 751)"/><path d="M0 0 404.678 158.333" stroke="#36FF36" stroke-width="27.5" stroke-miterlimit="8" fill="none" fill-rule="evenodd" transform="matrix(-1 0 0 1 2061.68 814)"/><path d="M2061.68 1265.33 1657 1107" stroke="#36FF36" stroke-width="27.5" stroke-miterlimit="8" fill="none" fill-rule="evenodd"/><path d="M2061.68 1328.33 1657 1170" stroke="#36FF36" stroke-width="27.5" stroke-miterlimit="8" fill="none" fill-rule="evenodd"/><text fill="#36FF36" font-family="Arial,Arial_MSFontService,sans-serif" font-weight="700" font-size="248" transform="matrix(1 0 0 1 1134.43 969)">S</text><text fill="#36FF36" font-family="Arial,Arial_MSFontService,sans-serif" font-weight="700" font-size="248" transform="matrix(1 0 0 1 1127.56 1266)">A</text><text fill="#36FF36" font-family="Arial,Arial_MSFontService,sans-serif" font-weight="700" font-size="248" transform="matrix(1 0 0 1 1127.56 1563)">A</text><text fill="#36FF36" font-family="Arial,Arial_MSFontService,sans-serif" font-weight="700" font-size="248" transform="matrix(1 0 0 1 1127.56 1860)">R</text><text fill="#36FF36" font-family="Arial,Arial_MSFontService,sans-serif" font-weight="700" font-size="248" transform="matrix(1 0 0 1 1148.18 280)">6</text></g></svg>