<svg width="6236" height="6236" xmlns="http://www.w3.org/2000/svg" xmlns:xlink="http://www.w3.org/1999/xlink" xml:space="preserve" overflow="hidden"><defs><clipPath id="clip0"><rect x="130" y="130" width="6236" height="6236"/></clipPath></defs><g clip-path="url(#clip0)" transform="translate(-130 -130)"><path d="M3271 130 3271 6366 3270.68 6366 3105.31 6361.95C2940.68 6353.87 2779.3 6333.81 2622.1 6302.66L2537 6283.64 2537 212.367 2622.1 193.346C2779.3 162.196 2940.68 142.139 3105.31 134.057L3271 130Z" fill="#266430" fill-rule="evenodd"/><path d="M3271 131 3415.96 134.665C3575.44 142.746 3731.76 162.802 3884.03 193.952L3982 216.556 3982 6280.44 3884.03 6303.05C3731.76 6334.2 3575.44 6354.25 3415.96 6362.34L3271 6366 3271 131Z" fill="#DA2A00" fill-rule="evenodd"/><path d="M2537 211 2537 6279 2475.71 6264.99C2274.44 6213.73 2080.95 6143.26 1897.36 6055.68L1819 6015.94 1819 474.055 1897.36 434.321C2080.95 346.741 2274.44 276.272 2475.71 225.005L2537 211Z" fill="#DA2A00" fill-rule="evenodd"/><path d="M3982 218 4027.16 228.42C4226.47 279.689 4418.07 350.16 4599.87 437.742L4693 485.433 4693 6011.57 4599.87 6059.26C4418.07 6146.84 4226.47 6217.31 4027.16 6268.58L3982 6279 3982 218Z" fill="#266430" fill-rule="evenodd"/><path d="M1819 477 1819 6019 1762.12 5989.87C789.957 5461.83 130 4431.98 130 3248 130 2064.02 789.957 1034.17 1762.12 506.127L1819 477Z" fill="#266430" fill-rule="evenodd"/><path d="M4693 485 4734.33 506.172C5706.23 1034.2 6366 2064.04 6366 3248 6366 4431.96 5706.23 5461.8 4734.33 5989.83L4693 6011 4693 485Z" fill="#DA2A00" fill-rule="evenodd"/></g></svg>