<svg width="6242" height="6241" xmlns="http://www.w3.org/2000/svg" xmlns:xlink="http://www.w3.org/1999/xlink" xml:space="preserve" overflow="hidden"><g transform="translate(-127 -127)"><path d="M3320.39 3321 3882.06 3882.95 3890.6 3898.67C3897.6 3909.04 3906.55 3917.99 3916.92 3924.99L3932.59 3933.5 4869.98 4871.36 4872.34 4878.96C4882.2 4902.28 4900.88 4920.95 4924.19 4930.81L4931.75 4933.16 5250.69 5252.26 5245.91 5249.67C5234.25 5244.74 5221.44 5242.01 5207.98 5242.01 5154.17 5242.01 5110.55 5285.64 5110.55 5339.45 5110.55 5393.27 5154.17 5436.89 5207.98 5436.89 5261.8 5436.89 5305.42 5393.27 5305.42 5339.45 5305.42 5326 5302.69 5313.18 5297.76 5301.52L5295.19 5296.79 5452 5453.67C5355.74 5549.89 5254.75 5638.51 5149.78 5719.52L5048.74 5794.12 5042.92 5783.39C5025.41 5757.47 4995.75 5740.43 4962.12 5740.43 4908.31 5740.43 4864.68 5784.05 4864.68 5837.87 4864.68 5858.05 4870.82 5876.8 4881.32 5892.35L4887.84 5900.25 4823.69 5939.71C4524.54 6115.16 4202.42 6236.5 3871.49 6303.75L3816.46 6313.77 3811.67 6298.36C3796.88 6263.39 3762.25 6238.85 3721.89 6238.85 3668.08 6238.85 3624.46 6282.47 3624.46 6336.29L3625.19 6343.57 3621.86 6344.03C3538.25 6354.08 3454.31 6360.75 3370.26 6364.03L3319.17 6365 3321.99 6355.93C3323.29 6349.58 3323.97 6343.02 3323.97 6336.29 3323.97 6282.47 3280.34 6238.85 3226.53 6238.85 3172.72 6238.85 3129.09 6282.47 3129.09 6336.29 3129.09 6343.02 3129.77 6349.58 3131.07 6355.93L3133.6 6364.07 3118.01 6363.74C3033.97 6360.26 2950.04 6353.4 2866.44 6343.16L2828.46 6337.72 2828.6 6336.29C2828.6 6282.47 2784.98 6238.85 2731.17 6238.85 2690.81 6238.85 2656.18 6263.39 2641.39 6298.36L2638.91 6306.35 2616.88 6302.29C2286.07 6234.26 1964.16 6112.13 1665.33 5935.88L1580.48 5882.94 1584.36 5875.8C1589.29 5864.14 1592.01 5851.32 1592.01 5837.87 1592.01 5784.05 1548.39 5740.43 1494.58 5740.43 1467.67 5740.43 1443.31 5751.34 1425.68 5768.97L1420.65 5775.06 1406.15 5764.97C1279.96 5672.38 1159.17 5569.11 1045 5455.14L1148.82 5351.13 1149.62 5359.09C1158.7 5403.49 1197.99 5436.89 1245.08 5436.89 1298.89 5436.89 1342.51 5393.27 1342.51 5339.45 1342.51 5292.36 1309.11 5253.08 1264.71 5243.99L1256.58 5243.17 2139.94 4358.2 2140.35 4362.25C2149.43 4406.65 2188.72 4440.05 2235.8 4440.05 2289.62 4440.05 2333.24 4396.43 2333.24 4342.61 2333.24 4295.52 2299.84 4256.24 2255.44 4247.15L2251.2 4246.73 3131.06 3365.26 3131.07 3365.41C3140.16 3409.81 3179.44 3443.22 3226.53 3443.22 3280.34 3443.22 3323.97 3399.59 3323.97 3345.78 3323.97 3339.05 3323.29 3332.48 3321.99 3326.14L3320.39 3321Z" fill="#181717" fill-rule="evenodd"/><path d="M1042.8 5452.47C-173.641 4235.46-174.299 2263.11 1041.33 1045.3L3248.15 3248.15Z" stroke="#000000" stroke-width="4.58333" stroke-miterlimit="8" fill="#FFFFFF" fill-rule="evenodd"/><path d="M1043.83 1042.8C2260.84-173.64 4233.19-174.298 5451 1041.33L3248.15 3248.15Z" stroke="#000000" stroke-width="4.58333" stroke-miterlimit="8" fill="#385723" fill-rule="evenodd"/><path d="M5453.51 1043.83C6669.94 2260.84 6670.6 4233.19 5454.98 5451L3248.15 3248.15Z" stroke="#000000" stroke-width="4.58333" stroke-miterlimit="8" fill="#FFFFFF" fill-rule="evenodd"/><path d="M4616 5339.5C4616 5285.65 4659.65 5242 4713.5 5242 4767.35 5242 4811 5285.65 4811 5339.5 4811 5393.35 4767.35 5437 4713.5 5437 4659.65 5437 4616 5393.35 4616 5339.5Z" fill="#FFFFFF" fill-rule="evenodd"/><path d="M3379 3844C3379 3790.43 3422.65 3747 3476.5 3747 3530.35 3747 3574 3790.43 3574 3844 3574 3897.57 3530.35 3941 3476.5 3941 3422.65 3941 3379 3897.57 3379 3844Z" fill="#FFFFFF" fill-rule="evenodd"/><path d="M3625 4342.5C3625 4288.65 3668.65 4245 3722.5 4245 3776.35 4245 3820 4288.65 3820 4342.5 3820 4396.35 3776.35 4440 3722.5 4440 3668.65 4440 3625 4396.35 3625 4342.5Z" fill="#FFFFFF" fill-rule="evenodd"/><path d="M3129 4342.5C3129 4288.65 3172.65 4245 3226.5 4245 3280.35 4245 3324 4288.65 3324 4342.5 3324 4396.35 3280.35 4440 3226.5 4440 3172.65 4440 3129 4396.35 3129 4342.5Z" fill="#FFFFFF" fill-rule="evenodd"/><path d="M3874 4840.5C3874 4786.65 3917.65 4743 3971.5 4743 4025.35 4743 4069 4786.65 4069 4840.5 4069 4894.35 4025.35 4938 3971.5 4938 3917.65 4938 3874 4894.35 3874 4840.5Z" fill="#FFFFFF" fill-rule="evenodd"/><path d="M3379 4840.5C3379 4786.65 3422.65 4743 3476.5 4743 3530.35 4743 3574 4786.65 3574 4840.5 3574 4894.35 3530.35 4938 3476.5 4938 3422.65 4938 3379 4894.35 3379 4840.5Z" fill="#FFFFFF" fill-rule="evenodd"/><path d="M4217.5 4245C4271.35 4245 4315 4288.65 4315 4342.5 4315 4396.35 4271.35 4440 4217.5 4440 4163.65 4440 4120 4396.35 4120 4342.5 4120 4288.65 4163.65 4245 4217.5 4245Z" fill="#FFFFFF" fill-rule="evenodd"/><path d="M4467.5 4743C4521.35 4743 4565 4786.65 4565 4840.5 4565 4894.35 4521.35 4938 4467.5 4938 4413.65 4938 4370 4894.35 4370 4840.5 4370 4786.65 4413.65 4743 4467.5 4743Z" fill="#FFFFFF" fill-rule="evenodd"/><path d="M3625 5339.5C3625 5285.65 3668.65 5242 3722.5 5242 3776.35 5242 3820 5285.65 3820 5339.5 3820 5393.35 3776.35 5437 3722.5 5437 3668.65 5437 3625 5393.35 3625 5339.5Z" fill="#FFFFFF" fill-rule="evenodd"/><path d="M4120 5339.5C4120 5285.65 4163.65 5242 4217.5 5242 4271.35 5242 4315 5285.65 4315 5339.5 4315 5393.35 4271.35 5437 4217.5 5437 4163.65 5437 4120 5393.35 4120 5339.5Z" fill="#FFFFFF" fill-rule="evenodd"/><path d="M3129 5339.5C3129 5285.65 3172.65 5242 3226.5 5242 3280.35 5242 3324 5285.65 3324 5339.5 3324 5393.35 3280.35 5437 3226.5 5437 3172.65 5437 3129 5393.35 3129 5339.5Z" fill="#FFFFFF" fill-rule="evenodd"/><path d="M3874 5837.5C3874 5783.65 3917.65 5740 3971.5 5740 4025.35 5740 4069 5783.65 4069 5837.5 4069 5891.35 4025.35 5935 3971.5 5935 3917.65 5935 3874 5891.35 3874 5837.5Z" fill="#FFFFFF" fill-rule="evenodd"/><path d="M3379 5837.5C3379 5783.65 3422.65 5740 3476.5 5740 3530.35 5740 3574 5783.65 3574 5837.5 3574 5891.35 3530.35 5935 3476.5 5935 3422.65 5935 3379 5891.35 3379 5837.5Z" fill="#FFFFFF" fill-rule="evenodd"/><path d="M4467.5 5740C4521.35 5740 4565 5783.65 4565 5837.5 4565 5891.35 4521.35 5935 4467.5 5935 4413.65 5935 4370 5891.35 4370 5837.5 4370 5783.65 4413.65 5740 4467.5 5740Z" fill="#FFFFFF" fill-rule="evenodd"/><path d="M2884 3844C2884 3790.43 2927.43 3747 2981 3747 3034.57 3747 3078 3790.43 3078 3844 3078 3897.57 3034.57 3941 2981 3941 2927.43 3941 2884 3897.57 2884 3844Z" fill="#FFFFFF" fill-rule="evenodd"/><path d="M2388 4840.5C2388 4786.65 2431.65 4743 2485.5 4743 2539.35 4743 2583 4786.65 2583 4840.5 2583 4894.35 2539.35 4938 2485.5 4938 2431.65 4938 2388 4894.35 2388 4840.5Z" fill="#FFFFFF" fill-rule="evenodd"/><path d="M1893 4840.5C1893 4786.65 1936.65 4743 1990.5 4743 2044.35 4743 2088 4786.65 2088 4840.5 2088 4894.35 2044.35 4938 1990.5 4938 1936.65 4938 1893 4894.35 1893 4840.5Z" fill="#FFFFFF" fill-rule="evenodd"/><path d="M2731.5 4245C2785.35 4245 2829 4288.65 2829 4342.5 2829 4396.35 2785.35 4440 2731.5 4440 2677.65 4440 2634 4396.35 2634 4342.5 2634 4288.65 2677.65 4245 2731.5 4245Z" fill="#FFFFFF" fill-rule="evenodd"/><path d="M2981 4743C3034.57 4743 3078 4786.65 3078 4840.5 3078 4894.35 3034.57 4938 2981 4938 2927.43 4938 2884 4894.35 2884 4840.5 2884 4786.65 2927.43 4743 2981 4743Z" fill="#FFFFFF" fill-rule="evenodd"/><path d="M2139 5339.5C2139 5285.65 2182.65 5242 2236.5 5242 2290.35 5242 2334 5285.65 2334 5339.5 2334 5393.35 2290.35 5437 2236.5 5437 2182.65 5437 2139 5393.35 2139 5339.5Z" fill="#FFFFFF" fill-rule="evenodd"/><path d="M2634 5339.5C2634 5285.65 2677.65 5242 2731.5 5242 2785.35 5242 2829 5285.65 2829 5339.5 2829 5393.35 2785.35 5437 2731.5 5437 2677.65 5437 2634 5393.35 2634 5339.5Z" fill="#FFFFFF" fill-rule="evenodd"/><path d="M1643 5339.5C1643 5285.65 1686.65 5242 1740.5 5242 1794.35 5242 1838 5285.65 1838 5339.5 1838 5393.35 1794.35 5437 1740.5 5437 1686.65 5437 1643 5393.35 1643 5339.5Z" fill="#FFFFFF" fill-rule="evenodd"/><path d="M2388 5837.5C2388 5783.65 2431.65 5740 2485.5 5740 2539.35 5740 2583 5783.65 2583 5837.5 2583 5891.35 2539.35 5935 2485.5 5935 2431.65 5935 2388 5891.35 2388 5837.5Z" fill="#FFFFFF" fill-rule="evenodd"/><path d="M1893 5837.5C1893 5783.65 1936.65 5740 1990.5 5740 2044.35 5740 2088 5783.65 2088 5837.5 2088 5891.35 2044.35 5935 1990.5 5935 1936.65 5935 1893 5891.35 1893 5837.5Z" fill="#FFFFFF" fill-rule="evenodd"/><path d="M2981 5740C3034.57 5740 3078 5783.65 3078 5837.5 3078 5891.35 3034.57 5935 2981 5935 2927.43 5935 2884 5891.35 2884 5837.5 2884 5783.65 2927.43 5740 2981 5740Z" fill="#FFFFFF" fill-rule="evenodd"/><path d="M3245.82 3250 3246.16 3250.03 3251.35 3251.65 3320.42 3320.74 3322.02 3325.88C3323.32 3332.23 3324 3338.8 3324 3345.53 3324 3399.36 3280.36 3443 3226.52 3443 3179.41 3443 3140.11 3409.59 3131.02 3365.17L3131 3365.01 3245.82 3250Z" fill="#FFFFFF" fill-rule="evenodd"/><path d="M3882 3883 3933 3933 3917.18 3924.59C3906.72 3917.66 3897.68 3908.81 3890.61 3898.55L3882 3883Z" fill="#FFFFFF" fill-rule="evenodd"/><path d="M2251.67 4247 2255.92 4247.43C2300.48 4256.5 2334 4295.72 2334 4342.73 2334 4396.45 2290.22 4440 2236.21 4440 2188.96 4440 2149.53 4406.66 2140.41 4362.33L2140 4358.28 2251.67 4247Z" fill="#FFFFFF" fill-rule="evenodd"/><path d="M4870 4871 4932 4933 4924.42 4930.65C4901.01 4920.75 4882.27 4902.01 4872.37 4878.62L4870 4871Z" fill="#FFFFFF" fill-rule="evenodd"/><path d="M5208.5 5242C5221.96 5242 5234.79 5244.73 5246.45 5249.66L5251.23 5252.26 5295.77 5296.81 5298.34 5301.55C5303.27 5313.21 5306 5326.04 5306 5339.5 5306 5393.35 5262.35 5437 5208.5 5437 5154.65 5437 5111 5393.35 5111 5339.5 5111 5285.65 5154.65 5242 5208.5 5242Z" fill="#FFFFFF" fill-rule="evenodd"/><path d="M1256.94 5243 1265.08 5243.82C1309.55 5252.92 1343 5292.26 1343 5339.42 1343 5393.31 1299.31 5437 1245.41 5437 1198.25 5437 1158.9 5403.55 1149.8 5359.08L1149 5351.12 1256.94 5243Z" fill="#FFFFFF" fill-rule="evenodd"/><path d="M4962.41 5740C4996.03 5740 5025.67 5757.06 5043.18 5783.01L5049 5793.76 5043.77 5797.62C5007.94 5822.96 4971.69 5847.46 4935.05 5871.1L4888.15 5900 4881.64 5892.09C4871.13 5876.52 4865 5857.75 4865 5837.55 4865 5783.67 4908.61 5740 4962.41 5740Z" fill="#FFFFFF" fill-rule="evenodd"/><path d="M2731.41 6239C2785.31 6239 2829 6282.68 2829 6336.56L2828.85 6338 2741.59 6325.52 2639 6306.59 2641.48 6298.59C2656.3 6263.57 2690.98 6239 2731.41 6239Z" fill="#FFFFFF" fill-rule="evenodd"/><path d="M3226.5 6239C3280.35 6239 3324 6282.43 3324 6336 3324 6342.7 3323.32 6349.24 3322.02 6355.55L3319.2 6364.58 3244.11 6366 3133.51 6363.66 3130.98 6355.55C3129.68 6349.24 3129 6342.7 3129 6336 3129 6282.43 3172.65 6239 3226.5 6239Z" fill="#FFFFFF" fill-rule="evenodd"/><path d="M3722.44 6239C3762.8 6239 3797.42 6263.37 3812.22 6298.1L3817 6313.41 3747.55 6325.98 3625.73 6343 3625 6335.77C3625 6282.33 3668.62 6239 3722.44 6239Z" fill="#FFFFFF" fill-rule="evenodd"/><path d="M1494.77 5740C1548.47 5740 1592 5783.78 1592 5837.78 1592 5851.28 1589.28 5864.14 1584.36 5875.83L1580.49 5883 1534.19 5853.95 1421 5774.75 1426.01 5768.64C1443.61 5750.94 1467.92 5740 1494.77 5740Z" fill="#FFFFFF" fill-rule="evenodd"/><path d="M131.5 3247.5C131.5 1525.48 1527.25 129.5 3249 129.5 4970.75 129.5 6366.5 1525.48 6366.5 3247.5 6366.5 4969.52 4970.75 6365.5 3249 6365.5 1527.25 6365.5 131.5 4969.52 131.5 3247.5Z" stroke="#0D0D0D" stroke-width="4.58333" stroke-miterlimit="8" fill="none" fill-rule="evenodd"/></g></svg>