<svg width="1170" height="1171" xmlns="http://www.w3.org/2000/svg" xmlns:xlink="http://www.w3.org/1999/xlink" xml:space="preserve" overflow="hidden"><defs><clipPath id="clip0"><rect x="1483" y="332" width="1170" height="1171"/></clipPath></defs><g clip-path="url(#clip0)" transform="translate(-1483 -332)"><path d="M2067.49 332 2067.51 332 2096.75 333.477 2096.75 830.072 2644.84 830.072 2648.98 857.212C2650.98 876.879 2652 896.834 2652 917.028 2652 937.222 2650.98 957.177 2648.98 976.844L2645.14 1002.06 2096.75 1002.06 2096.75 1500.58 2068.63 1502 2066.37 1502 2007.74 1499.04C1988.09 1497.04 1968.73 1494.07 1949.7 1490.17L1924.92 1483.79 1924.92 1002.06 1489.86 1002.06 1486.02 976.844C1484.02 957.177 1483 937.222 1483 917.028 1483 896.834 1484.02 876.879 1486.02 857.212L1490.16 830.072 1924.92 830.072 1924.92 350.265 1949.7 343.885C1968.73 339.989 1988.09 337.017 2007.74 335.02L2067.49 332Z" fill="#FFFFFF" fill-rule="evenodd"/><path d="M2097 334 2127.51 335.541C2382.9 361.474 2589.68 551.84 2640.28 799.09L2645 830 2097 830 2097 334Z" fill="#C8102E" fill-rule="evenodd"/><path d="M1925 351 1925 830 1490 830 1494.72 799.105C1537.57 589.995 1692.32 421.593 1893.76 359.023L1925 351Z" fill="#C8102E" fill-rule="evenodd"/><path d="M1490 1002 1925 1002 1925 1483 1893.78 1474.98C1692.47 1412.4 1537.83 1243.97 1495.01 1034.82L1490 1002Z" fill="#C8102E" fill-rule="evenodd"/><path d="M2097 1002 2645 1002 2639.99 1034.84C2589.42 1282.13 2382.75 1472.52 2127.49 1498.46L2097 1500 2097 1002Z" fill="#C8102E" fill-rule="evenodd"/><path d="M1483.5 917.5C1483.5 594.413 1745.19 332.5 2068 332.5 2390.81 332.5 2652.5 594.413 2652.5 917.5 2652.5 1240.59 2390.81 1502.5 2068 1502.5 1745.19 1502.5 1483.5 1240.59 1483.5 917.5Z" stroke="#000000" stroke-width="1.14583" stroke-miterlimit="8" fill="none" fill-rule="evenodd"/></g></svg>