<!DOCTYPE svg PUBLIC "-//W3C//DTD SVG 1.1//EN" "http://www.w3.org/Graphics/SVG/1.1/DTD/svg11.dtd">
<!-- Uploaded to: SVG Repo, www.svgrepo.com, Transformed by: SVG Repo Mixer Tools -->
<svg fill="#b3e54d" height="256px" width="256px" version="1.1" id="Capa_1" xmlns="http://www.w3.org/2000/svg" xmlns:xlink="http://www.w3.org/1999/xlink" viewBox="-24.5 -24.5 538.90 538.90" xml:space="preserve" stroke="#b3e54d">
<g id="SVGRepo_bgCarrier" stroke-width="0"/>
<g id="SVGRepo_tracerCarrier" stroke-linecap="round" stroke-linejoin="round"/>
<g id="SVGRepo_iconCarrier"> <g> <path d="M382.35,352.5c0-75.7-61.6-137.4-137.4-137.4c-75.7,0-137.4,61.6-137.4,137.4c0,75.7,61.6,137.4,137.4,137.4 C320.65,489.8,382.35,428.2,382.35,352.5z M253.55,382.1l-26,25.8l-25.8-26l-24.9-25l26-25.8l24.9,25l59.5-59.2l25.8,26 L253.55,382.1z M256.95,184.6L153.65,0h30.4l106.7,190.5C279.85,187.4,268.55,185.4,256.95,184.6z M194.25,191.9L86.75,0h31.2 l104,185.8C212.45,187.1,203.15,189.1,194.25,191.9z M297.05,133.7L371.95,0h31.2l-90.5,161.6L297.05,133.7z M279.25,101.8 l-15.2-27.1L305.85,0h30.4L279.25,101.8z"/> </g> </g>
</svg>