<svg width="1170" height="1171" xmlns="http://www.w3.org/2000/svg" xmlns:xlink="http://www.w3.org/1999/xlink" xml:space="preserve" overflow="hidden"><defs><clipPath id="clip0"><rect x="1483" y="332" width="1170" height="1171"/></clipPath></defs><g clip-path="url(#clip0)" transform="translate(-1483 -332)"><path d="M2067.5 332C2309.6 332 2517.31 479.326 2606.04 689.292L2618 722 1517 722 1528.96 689.292C1617.69 479.326 1825.4 332 2067.5 332Z" fill="#AE1C28" fill-rule="evenodd"/><path d="M1516.97 722 2618.03 722 2625.72 743.039C2642.8 797.993 2652 856.421 2652 917 2652 957.386 2647.91 996.816 2640.13 1034.9L2616.21 1112 1518.79 1112 1494.88 1034.9C1487.09 996.816 1483 957.386 1483 917 1483 856.421 1492.2 797.993 1509.28 743.039Z" fill="#FFFFFF" fill-rule="evenodd"/><path d="M550.5 0C792.595 0 1000.31 147.326 1089.04 357.291L1101 390 0 390 11.9604 357.291C100.688 147.326 308.404 0 550.5 0Z" fill="#21468B" fill-rule="evenodd" transform="matrix(1 0 0 -1 1517 1502)"/><path d="M1483.5 917.5C1483.5 594.413 1745.19 332.5 2068 332.5 2390.81 332.5 2652.5 594.413 2652.5 917.5 2652.5 1240.59 2390.81 1502.5 2068 1502.5 1745.19 1502.5 1483.5 1240.59 1483.5 917.5Z" stroke="#000000" stroke-width="1.14583" stroke-miterlimit="8" fill="none" fill-rule="evenodd"/></g></svg>